<svg width="160" height="94" viewBox="0 0 42.333 24.871" xmlns="http://www.w3.org/2000/svg"><path style="opacity:.287;fill:#f37e40;fill-opacity:1;stroke-width:.26459" d="M41.805 1.588v5.556h-1.588v10.054h1.588v7.144H.529V1.588zM29.11 5.042H10.589a.792.792 0 0 0-.794.793v13.759c0 .44.354.794.794.794H29.11c.44 0 .794-.354.794-.794V5.835a.792.792 0 0 0-.794-.793z"/><path d="M1617-4354c2.199 0 4 1.801 4 4v52c0 2.199-1.801 4-4 4h-70c-2.199 0-4-1.801-4-4v-52c0-2.199 1.801-4 4-4zm0 2h-70c-1.125 0-2 .875-2 2v52c0 1.125.875 2 2 2h70c1.125 0 2-.875 2-2v-52c0-1.125-.875-2-2-2z" color="#000" fill="#f37e40" style="-inkscape-stroke:none" transform="matrix(-.26458 0 0 .26458 438.414 1156.8)"/><path d="M1613-4346v29.27l-6.408-6.264-3.149 6.432c-.287.647-.901 1.012-1.533 1.117-.631.105-1.305-.01-1.912-.277-.607-.269-1.157-.7-1.475-1.303-.317-.602-.356-1.38.016-2.14l3.088-6.622h-8.027zm-1 2.486-16.055 16.727h7.25l-3.756 8.055v.01c-.253.518-.212.89-.029 1.236.182.346.551.658.994.854.443.196.95.27 1.344.205.393-.065.646-.226.783-.535v-.01l3.77-7.7 5.697 5.569z" color="#000" display="block" fill="#f37e40" style="-inkscape-stroke:none" stroke="none" transform="matrix(-.26458 0 0 .26458 438.414 1156.8)"/><path d="m28.42 6.085-.79.79-.79-.79-.374.375.79.79-.79.79.375.374.79-.79.79.79.374-.374-.79-.79.79-.79z" fill="#f37e40"/><path d="m37.572 12.978-1.27-1.27v-.001H36.3a.222.222 0 0 0-.157-.065h-.223v.222c0 .062.025.118.065.158l.956.956-.956.956a.221.221 0 0 0-.065.157v.223h.223a.222.222 0 0 0 .157-.065l.001-.002zm-1.782 0-1.27-1.27v-.001a.222.222 0 0 0-.158-.065h-.223v.222c0 .062.025.118.065.158l.956.956-.956.956a.221.221 0 0 0-.065.157v.223h.223a.222.222 0 0 0 .157-.065l.002-.002zm-1.781 0-1.27-1.27v-.001h-.001a.222.222 0 0 0-.157-.065h-.223v.222c0 .062.025.118.065.158l.956.956-.956.956a.221.221 0 0 0-.065.157v.223h.223a.221.221 0 0 0 .157-.065l.001-.002z" color="#000" fill="#f37e40" style="font-variant-ligatures:normal;font-variant-position:normal;font-variant-caps:normal;font-variant-numeric:normal;font-variant-alternates:normal;font-feature-settings:normal;text-indent:0;text-decoration-line:none;text-decoration-style:solid;text-decoration-color:#000;text-transform:none;text-orientation:mixed;white-space:normal;shape-padding:0;isolation:auto;mix-blend-mode:normal"/><path d="M42.334 0v24.873H0V0h39.688zm-.53 1.588H.53v22.754h41.276v-6.614h-1.588a.528.528 0 0 1-.529-.53V7.144c0-.293.236-.53.53-.53h1.587zm-.422 5.556h-.741a.422.422 0 0 0-.424.423v.741c0 .235.19.423.424.423h.74a.422.422 0 0 0 .424-.423v-.74a.422.422 0 0 0-.423-.424zm0 2.117h-.741a.422.422 0 0 0-.424.423v.741c0 .234.19.423.424.423h.74a.422.422 0 0 0 .424-.423v-.741a.422.422 0 0 0-.423-.423zm0 2.116h-.741a.422.422 0 0 0-.424.424v.74c0 .235.19.424.424.424h.74a.422.422 0 0 0 .424-.423V11.8a.422.422 0 0 0-.423-.424zm0 2.117h-.741a.422.422 0 0 0-.424.423v.741c0 .235.19.424.424.424h.74a.422.422 0 0 0 .424-.424v-.74a.422.422 0 0 0-.423-.424zm0 2.117h-.741a.422.422 0 0 0-.424.423v.741c0 .235.19.423.424.423h.74a.422.422 0 0 0 .424-.423v-.741a.422.422 0 0 0-.423-.423z" fill="#f37e40" style="stroke-width:.26459"/></svg>