<svg width="160" height="94" viewBox="0 0 42.333 24.871" xmlns="http://www.w3.org/2000/svg"><path style="fill:#f37e40;fill-opacity:1;stroke-width:.26458;-inkscape-stroke:none" d="M13.225 4.819c-.581 0-1.058.476-1.058 1.058v13.758c0 .582.477 1.058 1.058 1.058h18.521c.582 0 1.059-.476 1.059-1.058V5.877c0-.582-.477-1.058-1.059-1.058zm0 .529h18.521c.298 0 .53.231.53.529v13.758c0 .298-.232.529-.53.529h-18.52a.522.522 0 0 1-.53-.53V5.878c0-.298.232-.53.53-.53zm16.351.718-.374.374.79.79-.79.79.374.374.79-.79.79.79.374-.374-.79-.79.79-.79-.374-.374-.79.79zm-15.297.87v7.745l1.695-1.657.833 1.702.001.001c.076.17.238.267.405.294a.9.9 0 0 0 .506-.073.794.794 0 0 0 .39-.344.622.622 0 0 0-.004-.567l-.817-1.752h2.125zm.265.659 4.247 4.425h-1.918l.994 2.131v.002c.067.137.057.235.009.327a.55.55 0 0 1-.264.225.66.66 0 0 1-.356.055c-.104-.018-.171-.06-.207-.142l-.001-.002-.997-2.037-1.507 1.473z"/><path style="stroke-width:1.00002;fill:#f37e40;fill-opacity:1;opacity:.287" d="M2 6v86h59v-6h38v6h59l.002-86H2zm47.98 13.055h70c1.662 0 3 1.338 3 3v52c0 1.662-1.338 3-3 3h-70c-1.662 0-3-1.338-3-3v-52c0-1.662 1.338-3 3-3z" transform="matrix(.26459 0 0 .26459 0 0)"/><path d="m6.099 16.855-1.27-1.27h-.002a.222.222 0 0 1-.065-.158v-.222h.223c.062 0 .117.024.157.065l.956.956.956-.956a.221.221 0 0 1 .158-.065h.222v.222a.222.222 0 0 1-.065.157l-.001.002zm0-1.781-1.27-1.27h-.002v-.001a.222.222 0 0 1-.065-.157v-.223h.223c.062 0 .117.025.157.065l.956.956.956-.956a.221.221 0 0 1 .158-.065h.223v.223a.222.222 0 0 1-.066.157l-.001.001zm0-1.782-1.27-1.27h-.002a.222.222 0 0 1-.065-.158v-.222h.223c.062 0 .117.024.157.065l.956.956.956-.956a.221.221 0 0 1 .158-.065h.223v.222a.221.221 0 0 1-.066.157l-.001.002z" color="#000" fill="#f37e40" style="font-variant-ligatures:normal;font-variant-position:normal;font-variant-caps:normal;font-variant-numeric:normal;font-variant-alternates:normal;font-feature-settings:normal;text-indent:0;text-decoration-line:none;text-decoration-style:solid;text-decoration-color:#000;text-transform:none;text-orientation:mixed;white-space:normal;shape-padding:0;isolation:auto;mix-blend-mode:normal"/><path d="M0 0V24.873h42.334V0H0zm.529 1.588h41.276v22.755H26.723v-1.599a.527.527 0 0 0-.528-.518H16.14a.528.528 0 0 0-.529.529v1.587H.527V1.588zm16.035 21.167h.741c.235 0 .424.188.424.423v.741a.422.422 0 0 1-.424.423h-.74a.423.423 0 0 1-.424-.423v-.741c0-.235.189-.423.423-.423zm2.117 0h.741c.235 0 .423.188.423.423v.741a.422.422 0 0 1-.423.423h-.74a.422.422 0 0 1-.424-.423v-.741c0-.235.189-.423.423-.423zm2.117 0h.74c.235 0 .424.188.424.423v.741a.422.422 0 0 1-.423.423h-.741a.422.422 0 0 1-.423-.423v-.741c0-.235.188-.423.423-.423zm2.117 0h.74c.235 0 .424.188.424.423v.741a.422.422 0 0 1-.423.423h-.741a.422.422 0 0 1-.424-.423v-.741c0-.235.189-.423.424-.423zm2.116 0h.741c.235 0 .424.188.424.423v.741a.422.422 0 0 1-.424.423h-.74a.422.422 0 0 1-.424-.423v-.741c0-.235.189-.423.423-.423z" fill="#f37e40" style="stroke-width:.26459"/></svg>