<?xml version="1.0" encoding="UTF-8" standalone="no"?>
<svg
   width="160"
   height="94"
   version="1.1"
   viewBox="0 0 42.333 24.871"
   id="svg18"
   sodipodi:docname="auto-hide-dock-right.svg"
   inkscape:version="1.1.1 (3bf5ae0d25, 2021-09-20)"
   xmlns:inkscape="http://www.inkscape.org/namespaces/inkscape"
   xmlns:sodipodi="http://sodipodi.sourceforge.net/DTD/sodipodi-0.dtd"
   xmlns="http://www.w3.org/2000/svg"
   xmlns:svg="http://www.w3.org/2000/svg">
  <defs
     id="defs22" />
  <sodipodi:namedview
     id="namedview20"
     pagecolor="#ffffff"
     bordercolor="#666666"
     borderopacity="1.0"
     inkscape:pageshadow="2"
     inkscape:pageopacity="0.0"
     inkscape:pagecheckerboard="0"
     showgrid="true"
     inkscape:zoom="4.0019235"
     inkscape:cx="56.472844"
     inkscape:cy="55.348384"
     inkscape:window-width="1298"
     inkscape:window-height="704"
     inkscape:window-x="68"
     inkscape:window-y="27"
     inkscape:window-maximized="1"
     inkscape:current-layer="svg18">
    <inkscape:grid
       type="xygrid"
       id="grid1083" />
  </sodipodi:namedview>
  <path
     id="path4"
     style="opacity:0.287;fill:#f37e40;fill-opacity:1;stroke-width:0.26459"
     d="M 41.804922,1.5875107 V 7.143798 h -1.587511 v 10.054234 h 1.587511 V 24.34183 L 0.52912868,24.342347 V 1.5875107 Z M 29.110004,5.0415867 H 10.589046 c -0.439748,0 -0.7937552,0.3540067 -0.7937552,0.7937554 V 19.593768 c 0,0.439748 0.3540072,0.793755 0.7937552,0.793755 h 18.520958 c 0.439749,0 0.793755,-0.354007 0.793755,-0.793755 V 5.8353421 c 0,-0.4397487 -0.354006,-0.7937554 -0.793755,-0.7937554 z" />
  <g
     transform="matrix(-0.26458,0,0,0.26458,438.41378,1156.8)"
     id="g12">
    <path
       d="m 1617,-4354 c 2.1987,0 4,1.8013 4,4 v 52 c 0,2.1987 -1.8013,4 -4,4 h -70 c -2.1987,0 -4,-1.8013 -4,-4 v -52 c 0,-2.1987 1.8013,-4 4,-4 z m 0,2 h -70 c -1.1253,0 -2,0.8747 -2,2 v 52 c 0,1.1253 0.8747,2 2,2 h 70 c 1.1253,0 2,-0.8747 2,-2 v -52 c 0,-1.1253 -0.8747,-2 -2,-2 z"
       color="#000000"
       fill="#f37e40"
       style="-inkscape-stroke:none"
       id="path6" />
    <g
       fill="#ffffff"
       stroke="#3584e4"
       id="g10">
      <path
         d="m 1613,-4346 v 29.27 l -6.4082,-6.2636 -3.1484,6.4316 c -0.287,0.6475 -0.9017,1.0125 -1.5332,1.1172 -0.6315,0.1046 -1.3051,-0.01 -1.9121,-0.2774 -0.607,-0.2688 -1.1572,-0.7006 -1.4746,-1.3027 -0.3172,-0.6016 -0.3561,-1.38 0.016,-2.1406 l 3.0879,-6.6211 H 1593.6 Z m -1,2.4863 -16.055,16.727 h 7.25 l -3.7559,8.0547 v 0.01 c -0.2535,0.5179 -0.2116,0.8905 -0.029,1.2364 0.1824,0.3459 0.5511,0.6572 0.9942,0.8535 0.4431,0.1962 0.9504,0.2702 1.3437,0.2051 0.3933,-0.065 0.6463,-0.2261 0.7832,-0.5352 v -0.01 l 3.7696,-7.6992 5.6972,5.5684 z"
         color="#000000"
         display="block"
         fill="#f37e40"
         stroke="none"
         style="-inkscape-stroke:none"
         id="path8" />
    </g>
  </g>
  <path
     d="m 28.420657,6.0855 -0.79002,0.79002 -0.79002,-0.79002 -0.37418,0.37418 0.79002,0.79002 -0.79002,0.79002 0.37418,0.37418 0.79002,-0.79002 0.79002,0.79002 0.37418,-0.37418 -0.79002,-0.79002 0.79002,-0.79002 z"
     fill="#f37e40"
     id="path14" />
  <path
     d="m 37.571583,12.978 -1.2696,-1.2696 c -4.88e-4,-4.87e-4 -4.88e-4,-8.41e-4 -8.41e-4,-0.0015 h -4.88e-4 c -0.04024,-0.0401 -0.09546,-0.06524 -0.15701,-0.06524 h -0.22269 v 0.22269 c 0,0.06168 0.02455,0.1172 0.0648,0.15745 l 0.956,0.956 -0.956,0.956 c -0.04025,0.04023 -0.0648,0.09576 -0.0648,0.15744 v 0.22269 h 0.22269 c 0.06155,0 0.11678,-0.02514 0.15701,-0.06524 l 0.0014,-0.0015 z m -1.7815,0 -1.2696,-1.2696 c -4.87e-4,-4.87e-4 -4.87e-4,-8.41e-4 -8.4e-4,-0.0015 h -4.89e-4 c -0.04024,-0.0401 -0.09546,-0.06524 -0.15701,-0.06524 h -0.22269 v 0.22269 c 0,0.06168 0.02455,0.1172 0.0648,0.15745 l 0.956,0.95604 -0.956,0.956 c -0.04025,0.04023 -0.0648,0.09576 -0.0648,0.15744 v 0.22269 h 0.22266 c 0.06155,0 0.11678,-0.02514 0.15702,-0.06524 l 0.0014,-0.0015 z m -1.7815,0 -1.2696,-1.2696 c -4.92e-4,-4.87e-4 -4.92e-4,-8.41e-4 -8.4e-4,-0.0015 h -4.93e-4 c -0.0402,-0.04006 -0.09543,-0.0652 -0.15698,-0.0652 h -0.22269 v 0.22269 c 0,0.06168 0.02456,0.1172 0.0648,0.15745 l 0.956,0.95599 -0.956,0.956 c -0.04024,0.04024 -0.0648,0.09576 -0.0648,0.15745 v 0.22269 h 0.22269 c 0.06156,0 0.11678,-0.02513 0.15701,-0.06524 l 0.0015,-0.0015 z"
     color="#000000"
     color-rendering="auto"
     dominant-baseline="auto"
     enable-background="new"
     fill="#f37e40"
     image-rendering="auto"
     shape-rendering="auto"
     solid-color="#000000"
     style="font-variant-ligatures:normal;font-variant-position:normal;font-variant-caps:normal;font-variant-numeric:normal;font-variant-alternates:normal;font-feature-settings:normal;text-indent:0;text-decoration-line:none;text-decoration-style:solid;text-decoration-color:#000000;text-transform:none;text-orientation:mixed;white-space:normal;shape-padding:0;isolation:auto;mix-blend-mode:normal"
     id="path16" />
  <path
     d="M 42.334092,0 V 24.872518 H -3.0851064e-4 V 0 H 39.688191 Z m -0.52918,1.58754 H 0.52887149 V 24.34228 H 41.804912 v -6.61475 h -1.587541 c -0.293165,0 -0.52918,-0.236014 -0.52918,-0.52918 V 7.14393 c 0,-0.293166 0.236015,-0.52918 0.52918,-0.52918 h 1.587541 z M 41.381673,7.14393 H 40.64061 c -0.234541,0 -0.423239,0.188703 -0.423239,0.423238 v 0.741064 c 0,0.23454 0.188706,0.423238 0.423239,0.423238 h 0.741063 c 0.234541,0 0.423239,-0.188703 0.423239,-0.423238 V 7.567168 c 0,-0.23454 -0.188706,-0.423238 -0.423239,-0.423238 z m 0,2.11672 H 40.64061 c -0.234541,0 -0.423239,0.188703 -0.423239,0.423238 v 0.741064 c 0,0.234538 0.188706,0.423238 0.423239,0.423238 h 0.741063 c 0.234541,0 0.423239,-0.188703 0.423239,-0.423238 V 9.683888 c 0,-0.23454 -0.188706,-0.423238 -0.423239,-0.423238 z m 0,2.11672 H 40.64061 c -0.234541,0 -0.423239,0.188706 -0.423239,0.423238 v 0.741064 c 0,0.234538 0.188706,0.423238 0.423239,0.423238 h 0.741063 c 0.234541,0 0.423239,-0.188703 0.423239,-0.423238 v -0.741064 c 0,-0.234538 -0.188706,-0.423238 -0.423239,-0.423238 z m 0,2.11672 H 40.64061 c -0.234541,0 -0.423239,0.188706 -0.423239,0.423238 v 0.741064 c 0,0.23454 0.188706,0.423238 0.423239,0.423238 h 0.741063 c 0.234541,0 0.423239,-0.188703 0.423239,-0.423238 v -0.741064 c 0,-0.234538 -0.188706,-0.423238 -0.423239,-0.423238 z m 0,2.11672 H 40.64061 c -0.234541,0 -0.423239,0.188706 -0.423239,0.423238 v 0.741064 c 0,0.23454 0.188706,0.423238 0.423239,0.423238 h 0.741063 c 0.234538,0 0.423239,-0.188703 0.423239,-0.423238 v -0.741064 c 0,-0.234538 -0.188706,-0.423238 -0.423239,-0.423238 z"
     fill="#f37e40"
     id="path2-3"
     style="stroke-width:0.26459" />
</svg>
