<svg width="160" height="94" viewBox="0 0 42.333 24.871" xmlns="http://www.w3.org/2000/svg"><path style="stroke-width:1.00002;fill:#f37e40;fill-opacity:1;opacity:.287" d="M2 6v21h6v38H2v27l156.002.002V6H2zm47.98 13.055h70c1.662 0 3 1.338 3 3v52c0 1.662-1.338 3-3 3h-70c-1.662 0-3-1.338-3-3v-52c0-1.662 1.338-3 3-3z" transform="matrix(.26459 0 0 .26459 0 0)"/><path d="M1547-4354c-2.199 0-4 1.801-4 4v52c0 2.199 1.801 4 4 4h70c2.199 0 4-1.801 4-4v-52c0-2.199-1.801-4-4-4zm0 2h70c1.125 0 2 .875 2 2v52c0 1.125-.875 2-2 2h-70c-1.125 0-2-.875-2-2v-52c0-1.125.875-2 2-2z" color="#000" fill="#f37e40" style="-inkscape-stroke:none" transform="translate(-396.08 1156.8) scale(.26458)"/><path d="M1551-4346v29.27l6.408-6.264 3.149 6.432c.287.647.901 1.012 1.533 1.117.631.105 1.305-.01 1.912-.277.607-.269 1.157-.7 1.475-1.303.317-.602.356-1.38-.016-2.14l-3.088-6.622h8.027zm1 2.486 16.055 16.727h-7.25l3.756 8.055v.01c.253.518.212.89.029 1.236-.182.346-.551.658-.994.854-.443.196-.95.27-1.344.205-.393-.065-.646-.226-.783-.535v-.01l-3.77-7.7-5.697 5.569z" color="#000" display="block" fill="#f37e40" style="-inkscape-stroke:none" stroke="none" transform="translate(-396.08 1156.8) scale(.26458)"/><path d="m31.058 6.085-.79.79-.79-.79-.374.375.79.79-.79.79.374.374.79-.79.79.79.374-.374-.79-.79.79-.79z" fill="#f37e40"/><path d="m4.762 12.978 1.27-1.27v-.001h.001a.222.222 0 0 1 .157-.065h.223v.222a.221.221 0 0 1-.065.158l-.956.956.956.956c.04.04.065.096.065.157v.223H6.19a.222.222 0 0 1-.157-.065l-.001-.002zm1.782 0 1.27-1.27v-.001a.222.222 0 0 1 .158-.065h.222v.222a.221.221 0 0 1-.064.158l-.956.956.956.956c.04.04.064.096.064.157v.223h-.222a.222.222 0 0 1-.157-.065l-.002-.002zm1.781 0 1.27-1.27v-.001h.001a.222.222 0 0 1 .157-.065h.223v.222a.221.221 0 0 1-.065.158l-.956.956.956.956c.04.04.065.096.065.157v.223h-.223a.221.221 0 0 1-.157-.065l-.001-.002z" color="#000" fill="#f37e40" style="font-feature-settings:normal;font-variant-alternates:normal;font-variant-caps:normal;font-variant-ligatures:normal;font-variant-numeric:normal;font-variant-position:normal;isolation:auto;mix-blend-mode:normal;shape-padding:0;text-decoration-color:#000;text-decoration-line:none;text-decoration-style:solid;text-indent:0;text-orientation:mixed;text-transform:none;white-space:normal"/><path d="M0 0v24.873h42.334V0H2.646zm.529 1.588h41.276v22.754H.529v-6.614h1.587c.294 0 .53-.236.53-.53V7.144a.528.528 0 0 0-.53-.53H.53zm.423 5.556h.741c.235 0 .423.189.423.423v.741a.422.422 0 0 1-.423.423h-.74a.422.422 0 0 1-.424-.423v-.74c0-.235.189-.424.423-.424zm0 2.117h.741c.235 0 .423.188.423.423v.741a.422.422 0 0 1-.423.423h-.74a.422.422 0 0 1-.424-.423v-.741c0-.235.189-.423.423-.423zm0 2.116h.741c.235 0 .423.19.423.424v.74a.422.422 0 0 1-.423.424h-.74a.422.422 0 0 1-.424-.423V11.8c0-.235.189-.424.423-.424zm0 2.117h.741c.235 0 .423.189.423.423v.741a.422.422 0 0 1-.423.424h-.74a.422.422 0 0 1-.424-.424v-.74c0-.235.189-.424.423-.424zm0 2.117h.741c.235 0 .423.189.423.423v.741a.422.422 0 0 1-.423.423h-.74a.422.422 0 0 1-.424-.423v-.741c0-.234.189-.423.423-.423z" fill="#f37e40" style="stroke-width:.26459"/></svg>