<?xml version="1.0" encoding="UTF-8" standalone="no"?>
<svg
   width="160"
   height="94"
   version="1.1"
   viewBox="0 0 42.333 24.871"
   id="svg6"
   sodipodi:docname="auto-hide-dock-bottom.svg"
   inkscape:version="1.1.1 (3bf5ae0d25, 2021-09-20)"
   xmlns:inkscape="http://www.inkscape.org/namespaces/inkscape"
   xmlns:sodipodi="http://sodipodi.sourceforge.net/DTD/sodipodi-0.dtd"
   xmlns="http://www.w3.org/2000/svg"
   xmlns:svg="http://www.w3.org/2000/svg">
  <defs
     id="defs10" />
  <sodipodi:namedview
     id="namedview8"
     pagecolor="#ffffff"
     bordercolor="#666666"
     borderopacity="1.0"
     inkscape:pageshadow="2"
     inkscape:pageopacity="0.0"
     inkscape:pagecheckerboard="0"
     showgrid="true"
     inkscape:zoom="2.8297873"
     inkscape:cx="77.390976"
     inkscape:cy="74.7406"
     inkscape:window-width="1298"
     inkscape:window-height="704"
     inkscape:window-x="68"
     inkscape:window-y="27"
     inkscape:window-maximized="1"
     inkscape:current-layer="svg6">
    <inkscape:grid
       type="xygrid"
       id="grid920" />
  </sodipodi:namedview>
  <path
     id="path6"
     style="fill:#f37e40;fill-opacity:1;stroke-width:0.26458;-inkscape-stroke:none"
     d="m 13.225243,4.818624 c -0.581732,0 -1.058341,0.4766085 -1.058341,1.0583404 V 19.634873 c 0,0.581733 0.476609,1.058341 1.058341,1.058341 h 18.520958 c 0.581732,0 1.05834,-0.476608 1.05834,-1.058341 V 5.8769644 c 0,-0.5817319 -0.476608,-1.0583404 -1.05834,-1.0583404 z m 0,0.5291702 h 18.520958 c 0.297732,0 0.52917,0.2314384 0.52917,0.5291702 V 19.634873 c 0,0.297732 -0.231438,0.529171 -0.52917,0.529171 H 13.225243 c -0.297732,0 -0.529171,-0.231439 -0.529171,-0.529171 V 5.8769644 c 0,-0.2977318 0.231439,-0.5291702 0.529171,-0.5291702 z m 16.35105,0.7177905 -0.37414,0.3741398 0.789621,0.7901382 -0.789621,0.7901379 0.37414,0.3741397 0.789621,-0.7901379 0.790138,0.7901379 0.37414,-0.3741397 -0.790138,-0.7901379 0.790138,-0.7901382 -0.37414,-0.3741398 -0.790138,0.790138 z M 14.278932,6.9368553 v 7.7442817 l 1.695515,-1.656757 0.832513,1.701716 c 1.78e-4,3.97e-4 8.2e-4,6.09e-4 0.001,10e-4 0.07618,0.170624 0.238504,0.266424 0.405146,0.294041 0.167034,0.02768 0.344823,-0.0023 0.505399,-0.07338 0.160567,-0.07111 0.306157,-0.184821 0.39016,-0.344167 0.08388,-0.159105 0.09402,-0.365746 -0.0041,-0.566894 l -0.816484,-1.751811 h 2.124432 z M 14.543517,7.5947007 18.791349,12.0203 H 16.87259 l 0.994261,2.131151 v 0.0016 c 0.06706,0.136977 0.05701,0.23511 0.0088,0.326597 -0.04823,0.09149 -0.146799,0.173892 -0.264069,0.225827 -0.117269,0.05194 -0.25142,0.07151 -0.355536,0.05426 -0.104115,-0.01726 -0.171001,-0.05987 -0.207224,-0.141594 l -0.001,-0.0021 -0.996842,-2.03706 -1.507412,1.472788 z" />
  <path
     id="path4"
     style="stroke-width:1.00002;fill:#f37e40;fill-opacity:1;opacity:0.287"
     d="M 2 6 L 2 92 L 61 92 L 61 86 L 99 86 L 99 92 L 158 92 L 158.00195 6 L 2 6 z M 49.980469 19.054688 L 119.98047 19.054688 C 121.6425 19.054688 122.98047 20.392657 122.98047 22.054688 L 122.98047 74.054688 C 122.98047 75.71672 121.6425 77.054688 119.98047 77.054688 L 49.980469 77.054688 C 48.31844 77.054688 46.980469 75.71672 46.980469 74.054688 L 46.980469 22.054688 C 46.980469 20.392657 48.31844 19.054687 49.980469 19.054688 z "
     transform="matrix(0.26458511,0,0,0.26458511,-3.0851064e-4,0)" />
  <path
     d="m 6.0985634,16.855348 -1.2696,-1.2696 c -4.87e-4,-4.88e-4 -8.41e-4,-4.88e-4 -0.0015,-8.41e-4 v -4.88e-4 c -0.0401,-0.04024 -0.06524,-0.09546 -0.06524,-0.15701 v -0.22269 h 0.22269 c 0.06168,0 0.1172,0.02455 0.15745,0.0648 l 0.956,0.956 0.956,-0.956 c 0.04023,-0.04025 0.09576,-0.0648 0.15744,-0.0648 h 0.22269 v 0.22269 c 0,0.06156 -0.02514,0.11678 -0.06524,0.15701 l -0.0015,0.0014 z m 0,-1.7815 -1.2696,-1.2696 c -4.87e-4,-4.87e-4 -8.41e-4,-4.87e-4 -0.0015,-8.4e-4 v -4.89e-4 c -0.0401,-0.04023 -0.06524,-0.09546 -0.06524,-0.15701 v -0.22269 h 0.22269 c 0.06168,0 0.1172,0.02455 0.15745,0.0648 l 0.95604,0.956 0.956,-0.956 c 0.04023,-0.04025 0.09576,-0.0648 0.15744,-0.0648 h 0.22269 v 0.22266 c 0,0.06155 -0.02514,0.11678 -0.06524,0.15702 l -0.0015,0.0014 z m 0,-1.7815 -1.2696,-1.2696 c -4.87e-4,-4.92e-4 -8.41e-4,-4.92e-4 -0.0015,-8.4e-4 v -4.93e-4 c -0.04006,-0.0402 -0.0652,-0.09543 -0.0652,-0.15698 v -0.22269 h 0.22269 c 0.06168,0 0.1172,0.02456 0.15745,0.0648 l 0.95599,0.956 0.956,-0.956 c 0.04024,-0.04024 0.09576,-0.0648 0.15745,-0.0648 h 0.22269 v 0.22269 c 0,0.06156 -0.02513,0.11678 -0.06524,0.15701 l -0.0015,0.0015 z"
     color="#000000"
     color-rendering="auto"
     dominant-baseline="auto"
     enable-background="new"
     fill="#f37e40"
     image-rendering="auto"
     shape-rendering="auto"
     solid-color="#000000"
     style="font-variant-ligatures:normal;font-variant-position:normal;font-variant-caps:normal;font-variant-numeric:normal;font-variant-alternates:normal;font-feature-settings:normal;text-indent:0;text-decoration-line:none;text-decoration-style:solid;text-decoration-color:#000000;text-transform:none;text-orientation:mixed;white-space:normal;shape-padding:0;isolation:auto;mix-blend-mode:normal"
     id="path16" />
  <path
     d="m -3.0851064e-4,2.6e-5 v 1.58754 22.75474 0.52918 0.0016 H 42.334092 V 0 H 2.6455925 -3.0851064e-4 Z M 0.52887149,1.587566 H 5.5560825 41.804912 v 22.755269 h -15.08163 v -1.598388 c -0.0056,-0.288244 -0.238515,-0.518835 -0.528149,-0.518835 H 16.140184 c -0.293166,0 -0.52918,0.236009 -0.52918,0.52918 v 1.58754 h -5.29e-4 v 5.3e-4 H 0.52832849 v -5.3e-4 -22.75474 z m 16.03547651,21.1672 h 0.741064 c 0.234543,0 0.423238,0.188703 0.423238,0.423238 v 0.741064 c 0,0.234543 -0.1887,0.423238 -0.423238,0.423238 h -0.741064 c -0.234546,0 -0.423767,-0.188706 -0.423767,-0.423238 v -0.741064 c 0,-0.234546 0.189219,-0.423238 0.423767,-0.423238 z m 2.11672,0 h 0.741064 c 0.234543,0 0.423238,0.188703 0.423238,0.423238 v 0.741064 c 0,0.234543 -0.1887,0.423238 -0.423238,0.423238 h -0.741064 c -0.234546,0 -0.423238,-0.188706 -0.423238,-0.423238 v -0.741064 c 0,-0.234546 0.1887,-0.423238 0.423238,-0.423238 z m 2.11672,0 h 0.741064 c 0.23454,0 0.423238,0.188703 0.423238,0.423238 v 0.741064 c 0,0.234543 -0.1887,0.423238 -0.423238,0.423238 h -0.741064 c -0.234543,0 -0.423238,-0.188706 -0.423238,-0.423238 v -0.741064 c 0,-0.234546 0.188703,-0.423238 0.423238,-0.423238 z m 2.11672,0 h 0.741064 c 0.234543,0 0.423238,0.188703 0.423238,0.423238 v 0.741064 c 0,0.234543 -0.1887,0.423238 -0.423238,0.423238 h -0.741064 c -0.23454,0 -0.423238,-0.188706 -0.423238,-0.423238 v -0.741064 c 0,-0.234546 0.188706,-0.423238 0.423238,-0.423238 z m 2.11672,0 h 0.741064 c 0.234546,0 0.423238,0.188703 0.423238,0.423238 v 0.741064 c 0,0.234543 -0.1887,0.423238 -0.423238,0.423238 h -0.741064 c -0.23454,0 -0.423238,-0.188706 -0.423238,-0.423238 v -0.741064 c 0,-0.234546 0.188706,-0.423238 0.423238,-0.423238 z"
     fill="#f37e40"
     id="path2-3"
     style="stroke-width:0.26459" />
</svg>
