<svg width="160" height="94" viewBox="0 0 42.333 24.871" xmlns="http://www.w3.org/2000/svg"><path d="M0 0v24.873h42.334V0H-.001zm.528 1.588h41.276v22.755H26.723v-1.599a.527.527 0 0 0-.528-.518H16.14a.528.528 0 0 0-.53.529v1.587H.528V1.588zm16.036 21.167h.74c.235 0 .424.188.424.423v.741a.422.422 0 0 1-.423.423h-.741a.423.423 0 0 1-.424-.423v-.741c0-.235.19-.423.424-.423zm2.117 0h.74c.235 0 .424.188.424.423v.741a.422.422 0 0 1-.423.423h-.741a.422.422 0 0 1-.424-.423v-.741c0-.235.189-.423.424-.423zm2.116 0h.741c.235 0 .424.188.424.423v.741a.422.422 0 0 1-.424.423h-.74a.422.422 0 0 1-.424-.423v-.741c0-.235.189-.423.423-.423zm2.117 0h.741c.235 0 .423.188.423.423v.741a.422.422 0 0 1-.423.423h-.741a.422.422 0 0 1-.423-.423v-.741c0-.235.188-.423.423-.423zm2.117 0h.74c.235 0 .424.188.424.423v.741a.422.422 0 0 1-.423.423h-.741a.422.422 0 0 1-.424-.423v-.741c0-.235.19-.423.424-.423z" fill="#f37e40"/><path d="M.529 1.588v3.175h3.44c.732 0 1.322.59 1.322 1.323v12.7A1.32 1.32 0 0 1 3.97 20.11H.529v4.234H15.61v-1.588c0-.293.236-.53.53-.53h10.054c.29 0 .523.231.528.52v1.597h15.082V20.11h-3.44a1.32 1.32 0 0 1-1.322-1.323v-12.7c0-.734.59-1.324 1.323-1.324h3.44V1.588H.528zM9.26 4.763h23.814c.733 0 1.323.59 1.323 1.323v12.7a1.32 1.32 0 0 1-1.323 1.323H9.26a1.32 1.32 0 0 1-1.323-1.323v-12.7c0-.733.59-1.323 1.323-1.323zm16.934 18.393v.785l.001-.022v-.763z" fill="#f37e40" opacity=".287"/></svg>