<svg width="160" height="94" version="1.1" viewBox="0 0 42.333 24.871" xmlns="http://www.w3.org/2000/svg">
 <path transform="matrix(.26459 0 0 .26459 -.00030851 0)" d="m-0.0019531 0v6 86 2 0.005859h160v-94.006h-150-10zm2 6h19 137v86.002h-57v-6.041c-0.02117-1.0894-0.90145-1.9609-1.9961-1.9609h-38.002c-1.108 0-2 0.89198-2 2v6h-0.001953v0.001953h-57.002v-0.001953-86zm60.605 80h2.8008c0.88644 0 1.5996 0.71319 1.5996 1.5996v2.8008c0 0.88644-0.71318 1.5996-1.5996 1.5996h-2.8008c-0.88645 0-1.6016-0.7132-1.6016-1.5996v-2.8008c0-0.88645 0.71514-1.5996 1.6016-1.5996zm8 0h2.8008c0.88644 0 1.5996 0.71319 1.5996 1.5996v2.8008c0 0.88644-0.71318 1.5996-1.5996 1.5996h-2.8008c-0.88645 0-1.5996-0.7132-1.5996-1.5996v-2.8008c0-0.88645 0.71318-1.5996 1.5996-1.5996zm8 0h2.8008c0.88643 0 1.5996 0.71319 1.5996 1.5996v2.8008c0 0.88644-0.71318 1.5996-1.5996 1.5996h-2.8008c-0.88644 0-1.5996-0.7132-1.5996-1.5996v-2.8008c0-0.88645 0.71319-1.5996 1.5996-1.5996zm8 0h2.8008c0.88644 0 1.5996 0.71319 1.5996 1.5996v2.8008c0 0.88644-0.71318 1.5996-1.5996 1.5996h-2.8008c-0.88643 0-1.5996-0.7132-1.5996-1.5996v-2.8008c0-0.88645 0.7132-1.5996 1.5996-1.5996zm8 0h2.8008c0.88645 0 1.5996 0.71319 1.5996 1.5996v2.8008c0 0.88644-0.71318 1.5996-1.5996 1.5996h-2.8008c-0.88643 0-1.5996-0.7132-1.5996-1.5996v-2.8008c0-0.88645 0.7132-1.5996 1.5996-1.5996z" fill="#f37e40"/>
 <path transform="matrix(.26459 0 0 .26459 -.00030851 0)" d="m2 6v12h8v0.001953h5c2.77 0 5 2.2282 5 4.998v48.002c0 2.77-2.23 5-5 5h-4-1-8v16h9v-0.001953h48 0.001953v-6c0-1.108 0.89198-2 2-2h38.002c1.0946 0 1.9749 0.87155 1.9961 1.9609v6.0391h57.002v-15.996h-13c-2.77 0-5-2.23-5-5v-48.002c0-2.77 2.23-5 5-5h13v-12.002l-147 0.0019531v-0.0019531h-9zm33 12.002h90.002c2.77 0 5 2.2282 5 4.998v48.002c0 2.77-2.23 5-5 5h-90.002c-2.77 0-5-2.23-5-5v-48.002c0-2.77 2.23-4.998 5-4.998zm64 69.516v2.9648c0.001247-0.027326 0.003906-0.054441 0.003906-0.082031v-2.8008c0-0.027666-0.00253-0.054818-0.003906-0.082031z" fill="#f37e40" opacity=".287"/>
</svg>
