<svg width="160" height="94" viewBox="0 0 42.333 24.871" xmlns="http://www.w3.org/2000/svg"><path d="M42.334 0v24.873H0V0h39.688zm-.53 1.587H.53v22.755h41.276v-6.614h-1.588a.528.528 0 0 1-.529-.53V7.146c0-.294.236-.53.53-.53h1.587zm-.422 5.557h-.741a.422.422 0 0 0-.424.423v.741c0 .235.189.423.424.423h.74a.422.422 0 0 0 .424-.423v-.74a.422.422 0 0 0-.423-.424zm0 2.117h-.741a.422.422 0 0 0-.424.423v.74c0 .235.189.424.424.424h.74a.422.422 0 0 0 .424-.423v-.741a.422.422 0 0 0-.423-.423zm0 2.116h-.741a.422.422 0 0 0-.424.424v.74c0 .235.189.424.424.424h.74a.422.422 0 0 0 .424-.423V11.8a.422.422 0 0 0-.423-.424zm0 2.117h-.741a.422.422 0 0 0-.424.423v.741c0 .235.189.424.424.424h.74a.422.422 0 0 0 .424-.424v-.74a.422.422 0 0 0-.423-.424zm0 2.117h-.741a.422.422 0 0 0-.424.423v.741c0 .235.189.423.424.423h.74a.422.422 0 0 0 .424-.423v-.741a.422.422 0 0 0-.423-.423z" fill="#f37e40"/><path d="M41.805 1.587v3.176h-3.44a1.32 1.32 0 0 0-1.323 1.323v12.7c0 .732.59 1.323 1.323 1.323h3.44v4.233H.529V1.586h38.895zm-8.732 3.176H9.26a1.32 1.32 0 0 0-1.323 1.322v12.7c0 .733.59 1.323 1.323 1.323h23.813a1.32 1.32 0 0 0 1.323-1.323v-12.7a1.32 1.32 0 0 0-1.323-1.322zm-29.105 0H.528V20.11h3.44a1.32 1.32 0 0 0 1.323-1.323v-12.7a1.32 1.32 0 0 0-1.323-1.323z" fill="#f37e40" opacity=".28"/></svg>