<svg width="160" height="94" viewBox="0 0 42.333 24.871" xmlns="http://www.w3.org/2000/svg"><path d="M0 0v24.873h42.334V0H2.646zm.529 1.588h41.276v22.754H.529v-6.614h1.587c.294 0 .53-.236.53-.53V7.144a.528.528 0 0 0-.53-.53H.53zm.423 5.556h.741c.235 0 .423.189.423.423v.741a.422.422 0 0 1-.423.423h-.74a.422.422 0 0 1-.424-.423v-.74c0-.235.189-.424.423-.424zm0 2.117h.741c.235 0 .423.188.423.423v.741a.422.422 0 0 1-.423.423h-.74a.422.422 0 0 1-.424-.423v-.741c0-.235.189-.423.423-.423zm0 2.116h.741c.235 0 .423.19.423.424v.74a.422.422 0 0 1-.423.424h-.74a.422.422 0 0 1-.424-.423V11.8c0-.235.189-.424.423-.424zm0 2.117h.741c.235 0 .423.189.423.423v.741a.422.422 0 0 1-.423.424h-.74a.422.422 0 0 1-.424-.424v-.74c0-.235.189-.424.423-.424zm0 2.117h.741c.235 0 .423.189.423.423v.741a.422.422 0 0 1-.423.423h-.74a.422.422 0 0 1-.424-.423v-.741c0-.234.189-.423.423-.423z" fill="#f37e40"/><path d="M.529 1.588v3.175h3.44c.732 0 1.322.59 1.322 1.323v12.7a1.32 1.32 0 0 1-1.322 1.323H.529v4.233h41.276V1.588H.529zM9.26 4.763h23.813c.733 0 1.323.59 1.323 1.323v12.7a1.32 1.32 0 0 1-1.323 1.323H9.26a1.32 1.32 0 0 1-1.323-1.323v-12.7c0-.733.59-1.323 1.323-1.323zm29.105 0h3.44V20.11h-3.44a1.32 1.32 0 0 1-1.323-1.323v-12.7c0-.733.59-1.323 1.323-1.323z" fill="#f37e40" opacity=".28"/></svg>