<svg width="160" height="94" version="1.1" viewBox="0 0 42.333 24.871" xmlns="http://www.w3.org/2000/svg">
 <path transform="matrix(.26459 0 0 .26459 -.00030851 0)" d="m0 0v94.002h10 150v-94.002h-150-10zm3.5996 6h2.8008c0.88641 0 1.5996 0.7132 1.5996 1.5996v2.8008c0 0.88641-0.7132 1.5996-1.5996 1.5996h-2.8008c-0.88641 0-1.5996-0.7132-1.5996-1.5996v-2.8008c0-0.88641 0.7132-1.5996 1.5996-1.5996zm6.4004 0h148v85.998h-148v-85.998zm-6.4004 8h2.8008c0.88641 0 1.5996 0.7132 1.5996 1.5996v2.8008c0 0.88641-0.7132 1.5996-1.5996 1.5996h-2.8008c-0.88641 0-1.5996-0.7132-1.5996-1.5996v-2.8008c0-0.88641 0.7132-1.5996 1.5996-1.5996zm0 8h2.8008c0.88641 0 1.5996 0.7132 1.5996 1.5996v2.8008c0 0.88641-0.7132 1.5996-1.5996 1.5996h-2.8008c-0.88641 0-1.5996-0.7132-1.5996-1.5996v-2.8008c0-0.88641 0.7132-1.5996 1.5996-1.5996zm0 8h2.8008c0.88641 0 1.5996 0.7132 1.5996 1.5996v2.8008c0 0.88641-0.7132 1.5996-1.5996 1.5996h-2.8008c-0.88641 0-1.5996-0.7132-1.5996-1.5996v-2.8008c0-0.88641 0.7132-1.5996 1.5996-1.5996zm0 53h2.8008c0.88641 0 1.5996 0.7132 1.5996 1.5996v2.8008c0 0.88641-0.7132 1.5996-1.5996 1.5996h-2.8008c-0.88641 0-1.5996-0.7132-1.5996-1.5996v-2.8008c0-0.88641 0.7132-1.5996 1.5996-1.5996z" fill="#f37e40"/>
 <path transform="matrix(.26459 0 0 .26459 -.00030851 0)" d="m10 6v85.998h73.998v-13.787h-58.012c-1.1157-1e-6 -2.1259-0.46671-2.8535-1.2109h-0.13281v-0.16016c-0.62255-0.70583-1.0137-1.6204-1.0137-2.6289v-51.998c0-2.1987 1.8013-4 4-4h58.012v-12.213h-73.998z" fill="#f37e40" opacity=".28"/>
 <g transform="matrix(.26458 0 0 .26458 -376.07 1155.1)">
  <path d="m1447-4347.5c-2.1987 0-4 1.8013-4 4v52c0 2.1987 1.8013 4 4 4h70c2.1987 0 4-1.8013 4-4v-52c0-2.1987-1.8013-4-4-4zm0 2h70c1.1253 0 2 0.8747 2 2v52c0 1.1253-0.8747 2-2 2h-70c-1.1253 0-2-0.8747-2-2v-52c0-1.1253 0.8747-2 2-2z" color="#000000" fill="#f37e40" style="-inkscape-stroke:none"/>
  <g fill="#fff">
   <g transform="matrix(1.6306,0,0,1.6325,1484.1,-4348.5)">
    <path d="m-20.31 5.5169v17.93l3.9297-3.8359 1.9297 3.9395c4.13e-4 9.3e-4 0.0015 1e-3 2e-3 2e-3 0.17657 0.39503 0.55319 0.6177 0.93945 0.68164 0.38717 0.06409 0.7997-0.0053 1.1719-0.16992 0.37218-0.16463 0.70959-0.42796 0.9043-0.79688 0.19442-0.36836 0.21772-0.8468-0.0098-1.3125l-1.8926-4.0567h4.9238zm0.61328 1.5234 9.8457 10.246h-4.4473l2.3047 4.9336v0.0039c0.15543 0.31713 0.13132 0.54405 0.01953 0.75586s-0.33951 0.4032-0.61133 0.52344-0.58289 0.16494-0.82422 0.125c-0.24133-0.03995-0.39651-0.1389-0.48047-0.32812l-2e-3 -0.0039-2.3105-4.7168-3.4941 3.4102z" color="#000000" display="block" fill="#f37e40" style="-inkscape-stroke:none"/>
   </g>
  </g>
 </g>
 <path d="m24.708 6.0855-0.79002 0.79002-0.79002-0.79002-0.37418 0.37418 0.79002 0.79002-0.79002 0.79002 0.37418 0.37418 0.79002-0.79002 0.79002 0.79002 0.37418-0.37418-0.79002-0.79002 0.79002-0.79002z" fill="#f37e40"/>
</svg>
