<svg width="160" height="94" version="1.1" viewBox="0 0 42.333 24.871" xmlns="http://www.w3.org/2000/svg">
 <path transform="matrix(.26459 0 0 .26459 -.00030851 0)" d="m0 0v94h10 150v-94h-150-10zm3.5996 6h2.8008c0.8864 0 1.5996 0.71321 1.5996 1.5996v2.8008c0 0.8864-0.71321 1.5996-1.5996 1.5996h-2.8008c-0.8864 0-1.5996-0.71321-1.5996-1.5996v-2.8008c0-0.8864 0.71321-1.5996 1.5996-1.5996zm6.4004 0h148v86h-148v-86zm-6.4004 8h2.8008c0.8864 0 1.5996 0.71321 1.5996 1.5996v2.8008c0 0.8864-0.71321 1.5996-1.5996 1.5996h-2.8008c-0.8864 0-1.5996-0.71321-1.5996-1.5996v-2.8008c0-0.8864 0.71321-1.5996 1.5996-1.5996zm0 8h2.8008c0.8864 0 1.5996 0.71321 1.5996 1.5996v2.8008c0 0.8864-0.71321 1.5996-1.5996 1.5996h-2.8008c-0.8864 0-1.5996-0.71321-1.5996-1.5996v-2.8008c0-0.8864 0.71321-1.5996 1.5996-1.5996zm0 8h2.8008c0.8864 0 1.5996 0.71321 1.5996 1.5996v2.8008c0 0.8864-0.71321 1.5996-1.5996 1.5996h-2.8008c-0.8864 0-1.5996-0.71321-1.5996-1.5996v-2.8008c0-0.8864 0.71321-1.5996 1.5996-1.5996zm0 53h2.8008c0.8864 0 1.5996 0.71321 1.5996 1.5996v2.8008c0 0.8864-0.71321 1.5996-1.5996 1.5996h-2.8008c-0.8864 0-1.5996-0.71321-1.5996-1.5996v-2.8008c0-0.8864 0.71321-1.5996 1.5996-1.5996z" fill="#f37e40"/>
 <path transform="matrix(.26459 0 0 .26459 -.00030851 0)" d="m10 6v86h148v-86h-148zm39.98 13.055h69.998c1.662 0 3 1.338 3 3v51.998c0 1.662-1.338 3-3 3h-69.998c-1.662 0-3-1.338-3-3v-51.998c0-1.662 1.338-3 3-3z" fill="#f37e40" opacity=".287"/>
 <g transform="matrix(.26458 0 0 .26458 -396.08 1156.8)">
  <path d="m1547-4354c-2.1987 0-4 1.8013-4 4v52c0 2.1987 1.8013 4 4 4h70c2.1987 0 4-1.8013 4-4v-52c0-2.1987-1.8013-4-4-4zm0 2h70c1.1253 0 2 0.8747 2 2v52c0 1.1253-0.8747 2-2 2h-70c-1.1253 0-2-0.8747-2-2v-52c0-1.1253 0.8747-2 2-2z" color="#000000" fill="#f37e40" style="-inkscape-stroke:none"/>
  <g fill="#fff" stroke="#3584e4">
   <path d="m1551-4346v29.27l6.4082-6.2636 3.1484 6.4316c0.287 0.6475 0.9017 1.0125 1.5332 1.1172 0.6315 0.1046 1.3051-0.01 1.9121-0.2774 0.607-0.2688 1.1572-0.7006 1.4746-1.3027 0.3172-0.6016 0.3561-1.38-0.016-2.1406l-3.0879-6.6211h8.0274zm1 2.4863 16.055 16.727h-7.25l3.7559 8.0547v0.01c0.2535 0.5179 0.2116 0.8905 0.029 1.2364-0.1824 0.3459-0.5511 0.6572-0.9942 0.8535-0.4431 0.1962-0.9504 0.2702-1.3437 0.2051-0.3933-0.065-0.6463-0.2261-0.7832-0.5352v-0.01l-3.7696-7.6992-5.6972 5.5684z" color="#000000" display="block" fill="#f37e40" stroke="none" style="-inkscape-stroke:none"/>
  </g>
 </g>
 <path d="m31.058 6.0855-0.79002 0.79002-0.79002-0.79002-0.37418 0.37418 0.79002 0.79002-0.79002 0.79002 0.37418 0.37418 0.79002-0.79002 0.79002 0.79002 0.37418-0.37418-0.79002-0.79002 0.79002-0.79002z" fill="#f37e40"/>
 <path d="m4.7622 12.978 1.2696-1.2696c4.883e-4 -4.87e-4 4.883e-4 -8.41e-4 8.418e-4 -0.0015h4.877e-4c0.040235-0.0401 0.095457-0.06524 0.15701-0.06524h0.22269v0.22269c0 0.06168-0.024552 0.1172-0.064804 0.15745l-0.956 0.956 0.956 0.956c0.040252 0.04023 0.064804 0.09576 0.064804 0.15744v0.22269h-0.22269c-0.061555 0-0.11678-0.02514-0.15701-0.06524l-0.00138-0.0015zm1.7815 0 1.2696-1.2696c4.874e-4 -4.87e-4 4.874e-4 -8.41e-4 8.409e-4 -0.0015h4.886e-4c0.040235-0.0401 0.095458-0.06524 0.15701-0.06524h0.22269v0.22269c0 0.06168-0.024552 0.1172-0.064804 0.15745l-0.956 0.95604 0.956 0.956c0.040253 0.04023 0.064804 0.09576 0.064804 0.15744v0.22269h-0.22266c-0.061554 0-0.11678-0.02514-0.15702-0.06524l-0.00138-0.0015zm1.7815 0 1.2696-1.2696c4.92e-4 -4.87e-4 4.92e-4 -8.41e-4 8.4e-4 -0.0015h4.93e-4c0.0402-0.04006 0.09543-0.0652 0.15698-0.0652h0.22269v0.22269c0 0.06168-0.02456 0.1172-0.0648 0.15745l-0.956 0.95599 0.956 0.956c0.04024 0.04024 0.0648 0.09576 0.0648 0.15745v0.22269h-0.22269c-0.06156 0-0.11678-0.02513-0.15701-0.06524l-0.0015-0.0015z" color="#000000" color-rendering="auto" dominant-baseline="auto" enable-background="new" fill="#f37e40" image-rendering="auto" shape-rendering="auto" solid-color="#000000" style="font-feature-settings:normal;font-variant-alternates:normal;font-variant-caps:normal;font-variant-ligatures:normal;font-variant-numeric:normal;font-variant-position:normal;isolation:auto;mix-blend-mode:normal;shape-padding:0;text-decoration-color:#000000;text-decoration-line:none;text-decoration-style:solid;text-indent:0;text-orientation:mixed;text-transform:none;white-space:normal"/>
</svg>
