<svg width="160" height="94" version="1.1" viewBox="0 0 42.333 24.871" xmlns="http://www.w3.org/2000/svg">
 <path transform="matrix(.26459 0 0 .26459 -.00030851 0)" d="m0 0v94.004h160v-94.004h-150zm2 6h156v86h-156v-25h6c1.108 0 2-0.892 2-2v-38c0-1.108-0.892-2-2-2h-6zm1.5996 21h2.8008c0.88643 0 1.5996 0.71319 1.5996 1.5996v2.8008c0 0.88643-0.7132 1.5996-1.5996 1.5996h-2.8008c-0.88643 0-1.5996-0.71319-1.5996-1.5996v-2.8008c0-0.88643 0.7132-1.5996 1.5996-1.5996zm0 8h2.8008c0.88643 0 1.5996 0.71319 1.5996 1.5996v2.8008c0 0.88642-0.7132 1.5996-1.5996 1.5996h-2.8008c-0.88643 0-1.5996-0.71319-1.5996-1.5996v-2.8008c0-0.88643 0.7132-1.5996 1.5996-1.5996zm0 8h2.8008c0.88643 0 1.5996 0.7132 1.5996 1.5996v2.8008c0 0.88642-0.7132 1.5996-1.5996 1.5996h-2.8008c-0.88643 0-1.5996-0.71319-1.5996-1.5996v-2.8008c0-0.88642 0.7132-1.5996 1.5996-1.5996zm0 8h2.8008c0.88643 0 1.5996 0.7132 1.5996 1.5996v2.8008c0 0.88643-0.7132 1.5996-1.5996 1.5996h-2.8008c-0.88643 0-1.5996-0.71319-1.5996-1.5996v-2.8008c0-0.88642 0.7132-1.5996 1.5996-1.5996zm0 8h2.8008c0.88643 0 1.5996 0.7132 1.5996 1.5996v2.8008c0 0.88643-0.7132 1.5996-1.5996 1.5996h-2.8008c-0.88642 0-1.5996-0.71319-1.5996-1.5996v-2.8008c0-0.88642 0.7132-1.5996 1.5996-1.5996z" fill="#f37e40"/>
 <path transform="matrix(.26459 0 0 .26459 -.00030851 0)" d="m2 6v12h8v0.001953h5c2.7699 0 5 2.2282 5 4.998v48c0 2.7699-2.2301 5-5 5h-4-1-8v16h9v-0.001953h147v-85.998l-147 0.0019531v-0.0019531h-9zm33 12.002h90c2.7699 0 5 2.2282 5 4.998v48c0 2.7699-2.2301 5-5 5h-90c-2.7699 0-5-2.2301-5-5v-48c0-2.7699 2.2301-4.998 5-4.998zm110 0h13v58h-13c-2.7699 0-5-2.2301-5-5v-48c0-2.7699 2.2301-5 5-5z" fill="#f37e40" opacity=".28"/>
</svg>
