<svg width="160" height="94" version="1.1" viewBox="0 0 42.333 24.871" xmlns="http://www.w3.org/2000/svg">
 <path d="m42.334 0v24.873h-42.334v-24.873h39.688zm-0.52918 1.5875h-41.276v22.755h41.276v-6.6148h-1.5875c-0.29316 0-0.52918-0.23601-0.52918-0.52918v-10.054c0-0.29317 0.23602-0.52918 0.52918-0.52918h1.5875zm-0.42324 5.5564h-0.74106c-0.23454 0-0.42324 0.1887-0.42324 0.42324v0.74106c0 0.23454 0.18871 0.42324 0.42324 0.42324h0.74106c0.23454 0 0.42324-0.1887 0.42324-0.42324v-0.74106c0-0.23454-0.1887-0.42324-0.42324-0.42324zm0 2.1167h-0.74106c-0.23454 0-0.42324 0.1887-0.42324 0.42324v0.74106c0 0.23454 0.18871 0.42324 0.42324 0.42324h0.74106c0.23454 0 0.42324-0.1887 0.42324-0.42324v-0.74106c0-0.23454-0.1887-0.42324-0.42324-0.42324zm0 2.1167h-0.74106c-0.23454 0-0.42324 0.18871-0.42324 0.42324v0.74106c0 0.23454 0.18871 0.42324 0.42324 0.42324h0.74106c0.23454 0 0.42324-0.1887 0.42324-0.42324v-0.74106c0-0.23454-0.1887-0.42324-0.42324-0.42324zm0 2.1167h-0.74106c-0.23454 0-0.42324 0.18871-0.42324 0.42324v0.74106c0 0.23454 0.18871 0.42324 0.42324 0.42324h0.74106c0.23454 0 0.42324-0.1887 0.42324-0.42324v-0.74106c0-0.23454-0.1887-0.42324-0.42324-0.42324zm0 2.1167h-0.74106c-0.23454 0-0.42324 0.18871-0.42324 0.42324v0.74106c0 0.23454 0.18871 0.42324 0.42324 0.42324h0.74106c0.23454 0 0.42324-0.1887 0.42324-0.42324v-0.74106c0-0.23454-0.1887-0.42324-0.42324-0.42324z" fill="#f37e40" stroke-width=".26459"/>
 <path d="m41.805 1.5875v3.1751h-2.1167v5.167e-4h-1.323c-0.73289 0-1.323 0.58956-1.323 1.3224v12.7c0 0.73289 0.59006 1.323 1.323 1.323h3.4397v4.2334h-2.3813v-5.17e-4h-38.895v-22.754l38.895 5.168e-4v-5.168e-4zm-8.7315 3.1756h-23.813c-0.73289 0-1.323 0.58956-1.323 1.3224v12.7c0 0.73289 0.59006 1.323 1.323 1.323h23.813c0.73289 0 1.323-0.59006 1.323-1.323v-12.7c0-0.73289-0.59006-1.3224-1.323-1.3224zm-29.105 0h-3.4397v15.346h3.4397c0.73289 0 1.323-0.59006 1.323-1.323v-12.7c0-0.73289-0.59006-1.323-1.323-1.323z" fill="#f37e40" opacity=".28" stroke-width=".26459"/>
</svg>
