<svg width="160" height="94" version="1.1" viewBox="0 0 42.333 24.871" xmlns="http://www.w3.org/2000/svg">
 <defs>
  <clipPath id="a">
   <path d="m316-4731h162v95h-162z" fill="#3584e4" style="paint-order:normal"/>
  </clipPath>
 </defs>
 <g transform="matrix(.26458 0 0 .26458 -83.608 1251.7)" clip-path="url(#a)" fill="#f37e40" stroke-width=".99996">
  <path transform="matrix(1 0 0 1 316 -4730.9)" d="m76.754-0.20508c1.6e-5 0.020309 0.001953 0.040234 0.001953 0.060547 0 17.373-5.7756 33.379-15.498 46.234l2.0879 2.1738c10.283-13.424 16.408-30.198 16.408-48.408 0-0.020306-0.001937-0.040244-0.001953-0.060547h-2.998zm-22.078 53.908c-11.716 11.886-27.274 19.976-44.676 22.24v3.0215c17.188-2.1548 32.682-9.7794 44.676-21.076v-4.1855zm-54.678 22.91v3h0.0019531v-3h-0.0019531z" opacity=".249" style="-inkscape-stroke:none"/>
  <path transform="matrix(1 0 0 1 316 -4730.9)" d="m46.486-0.20508c2.6e-5 0.0203 0.001953 0.040241 0.001953 0.060547 0 7.3621-1.7167 14.316-4.7578 20.5l3.2012 0.24609c2.9223-6.3116 4.5566-13.339 4.5566-20.746 0-0.020311-0.001928-0.040241-0.001953-0.060547h-3zm-26.15 41.871c-3.2523 1.5835-6.7121 2.8083-10.336 3.6016v3.0625c3.6951-0.75973 7.2366-1.9385 10.582-3.4727l-0.24609-3.1914zm-20.338 4.6777v3h0.0019531v-3h-0.0019531z" opacity=".474" style="-inkscape-stroke:none"/>
  <path transform="matrix(1 0 0 1 316 -4730.9)" d="m25.355-0.20508c4.7e-5 0.0202 0 0.040335 0 0.060547 0 10.468-6.3195 19.435-15.355 23.311v3.2227c10.717-4.0512 18.355-14.411 18.355-26.533 0-0.020257 4.2e-5 -0.0403 0-0.060547h-3zm-25.357 25.418v3h0.0019531v-3h-0.0019531z" opacity=".705" style="-inkscape-stroke:none"/>
  <path transform="matrix(1 0 0 1 316 -4730.9)" d="m15.062-0.20508c8e-5 0.020281 0.001953 0.040246 0.001953 0.060547 0 4.4943-1.957 8.5179-5.0645 11.275v3.7598c4.8569-3.2427 8.0645-8.7716 8.0645-15.035 0-0.020317-0.001885-0.040246-0.001953-0.060547h-3zm-15.064 15.127v3h0.0019531v-3h-0.0019531z" style="-inkscape-stroke:none"/>
 </g>
 <g stroke-dashoffset=".95" stroke-linecap="square" stroke-linejoin="round">
  <path d="m4.9219 4.7832a0.13146 0.13146 0 0 0-0.14062 0.14062l0.60547 7.8906a0.13146 0.13146 0 0 0 0.22461 0.08203l2.0293-2.0312 3.1934 3.1992 0.09375 0.09375 0.18555-0.18555-0.0918-0.09375-3.2891-3.293a0.13146 0.13146 0 0 0-0.18555 0l-1.9199 1.9219-0.57227-7.4512 7.4414 0.57422-1.918 1.9219a0.13146 0.13146 0 0 0-2e-3 0.18359l1.3418 1.3789 0.0918 0.095703 0.1875-0.18359-0.08984-0.095703-1.252-1.2852 2.0293-2.0332a0.13146 0.13146 0 0 0-0.08203-0.22461z" color="#000000" fill="#f37e40" style="-inkscape-stroke:none"/>
 </g>
 <g stroke-dasharray="0.525771, 0.262885" stroke-miterlimit="10">
  <path d="m14.561 10.289-0.0957 0.0918h-0.13086v0.52539h0.26367v-0.25391l0.16211-0.15625zm0.38086 0.39648-0.18945 0.18164 0.36328 0.37891 0.19141-0.18164zm-0.60742 0.48242v0.52734h0.26367v-0.52734zm1.1543 0.08594-0.18945 0.18164 0.36328 0.38086 0.18945-0.18359zm0.54492 0.57031-0.18945 0.18164 0.36523 0.37891 0.18945-0.18164zm-1.6992 0.13281v0.52539h0.26367v-0.52539zm2.2461 0.43555-0.18945 0.18164 0.36328 0.37891 0.18945-0.18164zm-2.2461 0.35352v0.52539h0.26367v-0.52539zm2.793 0.21484-0.18945 0.18164 0.36328 0.38086 0.18945-0.18359zm0.54492 0.57031-0.18945 0.18164 0.36523 0.37891 0.18945-0.18164zm-3.3379 0.0039v0.52539h0.26367v-0.52539zm3.8848 0.56445-0.18945 0.18164 0.36328 0.37891 0.18945-0.18164zm-3.8848 0.22461v0.52539h0.26367v-0.52539zm4.4316 0.34375-0.19141 0.18164 0.24414 0.25391h-0.3457v0.26367h0.52539v-0.19336l0.13086-0.12695zm-1.8535 0.43555 0.18164 0.39062 0.23828-0.11133-0.0078-0.01563h0.0957v-0.26367zm0.77148 0v0.26367h0.52539v-0.26367zm-3.3496 0.0078v0.52734h0.26367v-0.52734zm3.1094 0.50977-0.23828 0.11133 0.22266 0.47656 0.23828-0.11133zm-1.5352 0.2207-0.375 0.36719 0.18359 0.1875 0.375-0.36719zm-1.5742 0.05859v0.52539h0.26367v-0.52539zm1.9219 0.08594-0.23633 0.11719 0.23242 0.4707 0.23633-0.11524zm1.5215 0.34961-0.23828 0.11133 0.2207 0.47656 0.23828-0.11133zm-2.4316 0.05664-0.37695 0.36719 0.18359 0.18945 0.37695-0.36914zm-1.0117 0.29688v0.52539h0.16992l-0.09961 0.09766 0.18359 0.1875 0.37695-0.36719-0.18359-0.18945-0.18359 0.17969v-0.43359zm2.2695 0.0059-0.23633 0.11524 0.23047 0.47266 0.23633-0.11523zm1.5059 0.35547-0.23828 0.11133 0.02734 0.05664 0.02344 0.05273 0.01367 0.04687 0.0078 0.04297 2e-3 0.04102-0.0039 0.03906-0.0059 0.03711-0.01172 0.03516-0.01758 0.03906 0.23828 0.10938 0.02344-0.05273 0.02148-0.06641 0.01367-0.06836 0.0059-0.07031-0.0039-0.07227-0.01367-0.07422-0.02344-0.07617-0.0293-0.07031zm-1.1602 0.35352-0.23633 0.11523 0.13672 0.2793 0.0293 0.05469 0.03906 0.05469 0.04687 0.04687 0.05078 0.03906 0.02734 0.01758 0.13476-0.22656-0.01367-0.0078-0.02344-0.01758-0.02148-0.02148-0.01758-0.02539-0.01758-0.0332zm0.82226 0.29688-0.0039 2e-3 -0.03711 0.02539-0.04102 0.02344-0.04297 0.01953-0.04492 0.01953-0.04492 0.01367-0.04492 0.01172-0.04687 0.0098-0.04492 0.0039-0.04492 2e-3h-0.0098l-0.0098 0.26172 0.02148 2e-3 0.0625-2e-3 0.06445-0.0078 0.06445-0.01172 0.0625-0.01563 0.06055-0.02148 0.0625-0.02344 0.05859-0.0293 0.05664-0.0332 0.05469-0.03516 0.0098-0.0098z" color="#000000" display="block" fill="#f37e40" style="-inkscape-stroke:none"/>
 </g>
 <path transform="matrix(.26459 0 0 .26459 -.00030851 0)" d="m0 0v94.002h10 150v-94.002h-2.002-158zm3.5996 6h2.8008c0.88641 0 1.5996 0.7132 1.5996 1.5996v2.8008c0 0.88641-0.7132 1.5996-1.5996 1.5996h-2.8008c-0.88641 0-1.5996-0.7132-1.5996-1.5996v-2.8008c0-0.88641 0.7132-1.5996 1.5996-1.5996zm6.4004 0h148v85.998h-148v-85.998zm-6.4004 8h2.8008c0.88641 0 1.5996 0.7132 1.5996 1.5996v2.8008c0 0.88641-0.7132 1.5996-1.5996 1.5996h-2.8008c-0.88641 0-1.5996-0.7132-1.5996-1.5996v-2.8008c0-0.88641 0.7132-1.5996 1.5996-1.5996zm0 8h2.8008c0.88641 0 1.5996 0.7132 1.5996 1.5996v2.8008c0 0.88641-0.7132 1.5996-1.5996 1.5996h-2.8008c-0.88641 0-1.5996-0.7132-1.5996-1.5996v-2.8008c0-0.88641 0.7132-1.5996 1.5996-1.5996zm0 8h2.8008c0.88641 0 1.5996 0.7132 1.5996 1.5996v2.8008c0 0.88641-0.7132 1.5996-1.5996 1.5996h-2.8008c-0.88641 0-1.5996-0.7132-1.5996-1.5996v-2.8008c0-0.88641 0.7132-1.5996 1.5996-1.5996zm0 53h2.8008c0.88641 0 1.5996 0.7132 1.5996 1.5996v2.8008c0 0.88641-0.7132 1.5996-1.5996 1.5996h-2.8008c-0.88641 0-1.5996-0.7132-1.5996-1.5996v-2.8008c0-0.88641 0.7132-1.5996 1.5996-1.5996z" fill="#f37e40"/>
</svg>
