<?xml version="1.0" encoding="UTF-8" standalone="no"?>
<svg width="160" height="94" viewBox="0 0 42.333 24.871" version="1.1" id="svg31" sodipodi:docname="hot-corner.svg" inkscape:version="1.1.1 (3bf5ae0d25, 2021-09-20)" xmlns:inkscape="http://www.inkscape.org/namespaces/inkscape" xmlns:sodipodi="http://sodipodi.sourceforge.net/DTD/sodipodi-0.dtd" xmlns="http://www.w3.org/2000/svg" xmlns:svg="http://www.w3.org/2000/svg">
  <sodipodi:namedview id="namedview33" pagecolor="#ffffff" bordercolor="#666666" borderopacity="1.0" inkscape:pageshadow="2" inkscape:pageopacity="0.0" inkscape:pagecheckerboard="0" showgrid="true" inkscape:zoom="3.5355339" inkscape:cx="80.044488" inkscape:cy="47.376154" inkscape:window-width="1292" inkscape:window-height="704" inkscape:window-x="68" inkscape:window-y="27" inkscape:window-maximized="1" inkscape:current-layer="svg31">
    <inkscape:grid type="xygrid" id="grid35"/>
  </sodipodi:namedview>
  <defs id="defs5">
    <clipPath id="a" clipPathUnits="userSpaceOnUse">
      <path style="opacity:1;vector-effect:none;fill:#3584e4;fill-opacity:1;stroke:none;stroke-width:1;stroke-linecap:butt;stroke-linejoin:miter;stroke-miterlimit:4;stroke-dasharray:none;stroke-dashoffset:0;stroke-opacity:1;marker:none;marker-start:none;marker-mid:none;marker-end:none;paint-order:normal" d="M316-4731.007h162v95H316z" id="path2"/>
    </clipPath>
  </defs>
  <g style="display:inline" id="g11"/>
  <rect style="fill:#924d8b;fill-opacity:1;stroke:none;stroke-width:0.286803;stroke-opacity:1" id="rect4752" width="42.333618" height="24.871" x="-0.00030851064" y="-3.5527137e-15" ry="0"/>
  <rect style="fill:#ffffff;fill-opacity:1;stroke:none;stroke-width:0.398372;stroke-opacity:1" id="rect5232" width="39.158596" height="22.754318" x="2.6455426" y="1.5875111"/>
  <g transform="matrix(0.69227248,-0.69226845,0.69227248,0.69226845,-224.92188,-205.01571)" id="g4632" style="fill:#ffffff;stroke-width:0.28984"/>
  <g clip-path="url(#a)" transform="matrix(.26458 0 0 .26458 -83.608 1251.746)" style="display:inline" id="g21">
    <circle style="opacity:0.249;vector-effect:none;fill:none;fill-opacity:1;stroke:#924d8b;stroke-width:3;stroke-linecap:butt;stroke-linejoin:miter;stroke-miterlimit:4;stroke-dasharray:none;stroke-dashoffset:0;stroke-opacity:1;marker:none;marker-start:none;marker-mid:none;marker-end:none;paint-order:normal" cx="316.00003" cy="-4731.0068" r="78.261002" id="circle13"/>
    <circle r="47.992001" cy="-4731.0068" cx="316.00003" style="opacity:0.474;vector-effect:none;fill:none;fill-opacity:1;stroke:#924d8b;stroke-width:3;stroke-linecap:butt;stroke-linejoin:miter;stroke-miterlimit:4;stroke-dasharray:none;stroke-dashoffset:0;stroke-opacity:1;marker:none;marker-start:none;marker-mid:none;marker-end:none;paint-order:normal" id="circle15"/>
    <circle style="opacity:0.705;vector-effect:none;fill:none;fill-opacity:1;stroke:#924d8b;stroke-width:3;stroke-linecap:butt;stroke-linejoin:miter;stroke-miterlimit:4;stroke-dasharray:none;stroke-dashoffset:0;stroke-opacity:1;marker:none;marker-start:none;marker-mid:none;marker-end:none;paint-order:normal" cx="316.00003" cy="-4731.0068" r="26.858999" id="circle17"/>
    <circle r="16.568001" cy="-4731.0068" cx="316.00003" style="opacity:1;vector-effect:none;fill:none;fill-opacity:1;stroke:#924d8b;stroke-width:3;stroke-linecap:butt;stroke-linejoin:miter;stroke-miterlimit:4;stroke-dasharray:none;stroke-dashoffset:0;stroke-opacity:1;marker:none;marker-start:none;marker-mid:none;marker-end:none;paint-order:normal" id="circle19"/>
  </g>
  <g style="display:inline" id="g29">
    <path style="color:#000000;display:inline;overflow:visible;visibility:visible;fill:#ffffff;stroke:#924d8b;stroke-width:0.262885;stroke-linecap:square;stroke-linejoin:round;stroke-miterlimit:4;stroke-dashoffset:0.95;stroke-opacity:1;marker:none;enable-background:accumulate" d="M 12.012273,9.02423 10.670567,7.6449098 12.792434,5.5205678 4.9115201,4.9137355 5.5176453,12.803842 7.6395121,10.6795 10.927763,13.972016" id="path23"/>
    <g style="display:inline" id="g27">
      <path style="color:#000000;display:block;overflow:visible;visibility:visible;fill:#ffffff;fill-opacity:1;fill-rule:nonzero;stroke:#924d8b;stroke-width:0.262885;stroke-linecap:butt;stroke-linejoin:miter;stroke-miterlimit:10;stroke-dasharray:0.525771, 0.262885;stroke-dashoffset:0;stroke-opacity:1;marker:none;enable-background:accumulate" d="m 14.466348,10.380047 v 7.055391 l 1.591186,-1.555276 0.909616,1.858692 c 0.222903,0.502546 1.380285,0.09871 1.051075,-0.573787 l -0.899758,-1.929932 h 2.008272 z" id="path25"/>
    </g>
  </g>
  <rect style="fill:#924d8b;fill-opacity:1;stroke:none;stroke-width:0.263189;stroke-opacity:1" id="rect5358" width="2.6458511" height="24.871" x="-0.00030851064" y="-3.5527137e-15"/>
  <rect style="fill:#924d8b;fill-rule:evenodd;stroke-width:0.407151;fill-opacity:1" id="rect1342" width="39.158596" height="1.5875106" x="2.6455426" y="0"/>
  <path id="rect2863-36-3" style="fill:#ffffff;fill-opacity:1;stroke-width:0.0993768" d="m 0.95209478,1.5875106 c -0.234528,0 -0.423233,0.188705 -0.423233,0.423233 v 0.741045 c 0,0.234529 0.188705,0.423233 0.423233,0.423233 H 1.6931398 c 0.234528,0 0.423233,-0.188704 0.423233,-0.423233 v -0.741045 c 0,-0.234528 -0.188705,-0.423233 -0.423233,-0.423233 z m 0,2.116681 c -0.234528,0 -0.423233,0.188705 -0.423233,0.423233 v 0.741045 c 0,0.234528 0.188705,0.423233 0.423233,0.423233 H 1.6931398 c 0.234528,0 0.423233,-0.188705 0.423233,-0.423233 v -0.741045 c 0,-0.234528 -0.188705,-0.423233 -0.423233,-0.423233 z m 0,2.116681 c -0.234528,0 -0.423233,0.188704 -0.423233,0.423233 v 0.7410448 c 0,0.2345282 0.188705,0.4232327 0.423233,0.4232327 H 1.6931398 c 0.234528,0 0.423233,-0.1887045 0.423233,-0.4232327 V 6.2441056 c 0,-0.234529 -0.188705,-0.423233 -0.423233,-0.423233 z m 0,2.1166807 c -0.234528,0 -0.423233,0.1887045 -0.423233,0.4232326 v 0.7410452 c 0,0.2345291 0.188705,0.4232322 0.423233,0.4232322 H 1.6931398 c 0.234528,0 0.423233,-0.1887031 0.423233,-0.4232322 V 8.3607859 c 0,-0.2345281 -0.188705,-0.4232326 -0.423233,-0.4232326 z m 0,14.0230107 c -0.234528,0 -0.423233,0.188704 -0.423233,0.423232 v 0.741046 c 0,0.234528 0.188705,0.423232 0.423233,0.423232 H 1.6931398 c 0.234528,0 0.423233,-0.188704 0.423233,-0.423232 v -0.741046 c 0,-0.234528 -0.188705,-0.423232 -0.423233,-0.423232 z" sodipodi:nodetypes="sssssssssssssssssssssssssssssssssssssssssssss"/>
</svg>