<svg width="160" height="94" viewBox="0 0 42.333 24.871" xmlns="http://www.w3.org/2000/svg"><defs><clipPath id="a"><path d="M316-4731h162v95H316z" fill="#3584e4" style="paint-order:normal"/></clipPath></defs><g transform="translate(-83.608 1251.7) scale(.26458)" clip-path="url(#a)" fill="#f37e40"><path transform="translate(316 -4730.9)" d="m76.754-.205.002.06c0 17.373-5.776 33.38-15.498 46.234l2.088 2.174C73.629 34.84 79.754 18.065 79.754-.145l-.002-.06h-2.998zM54.676 53.703C42.96 65.589 27.402 73.679 10 75.943v3.021c17.188-2.154 32.682-9.779 44.676-21.076v-4.185zM-.002 76.613v3H0v-3h-.002z" opacity=".249" style="-inkscape-stroke:none"/><path transform="translate(316 -4730.9)" d="m46.486-.205.002.06a46.317 46.317 0 0 1-4.758 20.5l3.201.247A49.248 49.248 0 0 0 49.488-.144l-.002-.061h-3zm-26.15 41.87A46.144 46.144 0 0 1 10 45.269v3.062a49.093 49.093 0 0 0 10.582-3.473l-.246-3.191zM-.002 46.345v3H0v-3h-.002z" opacity=".474" style="-inkscape-stroke:none"/><path transform="translate(316 -4730.9)" d="M25.355-.205v.06c0 10.468-6.32 19.435-15.355 23.311v3.223C20.717 22.338 28.355 11.98 28.355-.144v-.06h-3zM-.002 25.213v3H0v-3h-.002z" opacity=".705" style="-inkscape-stroke:none"/><path transform="translate(316 -4730.9)" d="m15.062-.205.002.06A15.02 15.02 0 0 1 9.999 11.13v3.76c4.857-3.242 8.065-8.771 8.065-15.035l-.002-.06h-3zM-.002 14.922v3H0v-3h-.002z" style="-inkscape-stroke:none"/></g><path d="M4.922 4.783a.131.131 0 0 0-.14.14l.605 7.891a.131.131 0 0 0 .224.082l2.03-2.03 3.193 3.198.094.094.185-.185-.091-.094-3.29-3.293a.131.131 0 0 0-.185 0l-1.92 1.922-.572-7.451 7.441.574-1.918 1.922a.131.131 0 0 0-.002.183l1.342 1.38.092.095.187-.184-.09-.095-1.252-1.286 2.03-2.033a.131.131 0 0 0-.082-.224z" color="#000" fill="#f37e40" style="-inkscape-stroke:none" stroke-dashoffset=".95" stroke-linecap="square" stroke-linejoin="round"/><path d="m14.561 10.289-.096.092h-.13v.525h.263v-.254l.162-.156zm.38.396-.189.182.364.379.191-.182zm-.607.483v.527h.264v-.527zm1.155.086-.19.181.364.381.189-.183zm.545.57-.19.182.365.379.19-.182zm-1.7.133v.525h.264v-.525zm2.247.436-.19.181.363.38.19-.183zm-2.247.353v.525h.264v-.525zm2.793.215-.189.182.363.38.19-.183zm.545.57-.19.182.366.379.19-.182zm-3.338.004v.525h.264v-.525zm3.885.565-.19.181.364.38.19-.183zm-3.885.224v.526h.264v-.526zm4.432.344-.191.182.244.253h-.346v.264H19v-.193l.13-.127zm-1.853.435.181.391.239-.111-.008-.016h.095v-.264zm.771 0v.264h.525v-.264zm-3.35.008v.528h.264v-.528zm3.11.51-.238.111.222.477.239-.111zm-1.535.22-.375.368.183.187.375-.367zm-1.575.06v.525h.264V15.9zm1.922.085-.236.117.232.471.237-.115zm1.522.35-.238.111.22.477.239-.112zm-2.432.056-.377.368.184.19.377-.37zm-1.011.297v.526h.17l-.1.097.183.188.377-.367-.183-.19-.184.18v-.434zm2.27.006-.237.116.23.472.237-.115zm1.505.356-.238.111.027.057.023.052.014.047.008.043.002.041-.004.04-.006.036-.012.036-.017.039.238.11.024-.054.021-.066.014-.068.006-.07-.004-.073-.014-.074-.023-.076-.03-.07zm-1.16.353-.237.115.137.28.03.054.039.055.046.047.051.04.028.017.134-.227-.013-.008-.024-.017-.021-.022-.018-.025-.017-.033zm.822.297-.004.002-.037.026-.041.023-.043.02-.045.019-.045.014-.045.011-.047.01-.045.004-.044.002h-.01l-.01.262.021.002.063-.002.064-.008.065-.012.062-.015.06-.022.063-.023.059-.03.057-.033.054-.035.01-.01z" color="#000" display="block" fill="#f37e40" style="-inkscape-stroke:none" stroke-dasharray="0.525771, 0.262885" stroke-miterlimit="10"/><path d="M0 0v24.872h42.334V0H0zm.952 1.588h.741c.235 0 .423.188.423.423v.74a.422.422 0 0 1-.423.424h-.74a.422.422 0 0 1-.424-.423V2.01c0-.235.189-.423.423-.423zm1.694 0h39.159v22.754H2.645V1.588zM.952 3.704h.741c.235 0 .423.189.423.423v.742a.422.422 0 0 1-.423.423h-.74a.422.422 0 0 1-.424-.423v-.742c0-.234.189-.423.423-.423zm0 2.117h.741c.235 0 .423.189.423.423v.741a.422.422 0 0 1-.423.424h-.74a.422.422 0 0 1-.424-.424v-.74c0-.235.189-.424.423-.424zm0 2.117h.741c.235 0 .423.188.423.423v.741a.422.422 0 0 1-.423.423h-.74a.422.422 0 0 1-.424-.423v-.741c0-.235.189-.423.423-.423zm0 14.023h.741c.235 0 .423.189.423.423v.741a.422.422 0 0 1-.423.424h-.74a.422.422 0 0 1-.424-.424v-.74c0-.235.189-.424.423-.424z" fill="#f37e40"/></svg>