<svg width="160" height="94" version="1.1" viewBox="0 0 42.333 24.871" xmlns="http://www.w3.org/2000/svg">
 <path d="m-3.0851e-4 0v24.872h42.334v-24.872h-39.688zm0.95242 1.5875h0.74106c0.23454 0 0.42324 0.18871 0.42324 0.42324v0.74106c0 0.23454-0.18871 0.42324-0.42324 0.42324h-0.74106c-0.23454 0-0.42324-0.18871-0.42324-0.42324v-0.74106c0-0.23454 0.18871-0.42324 0.42324-0.42324zm1.6935 0h39.159v22.754h-39.159zm-1.6935 2.1167h0.74106c0.23454 0 0.42324 0.18871 0.42324 0.42324v0.74106c0 0.23454-0.18871 0.42324-0.42324 0.42324h-0.74106c-0.23454 0-0.42324-0.1887-0.42324-0.42324v-0.74106c0-0.23454 0.18871-0.42324 0.42324-0.42324zm0 2.1167h0.74106c0.23454 0 0.42324 0.18871 0.42324 0.42324v0.74106c0 0.23454-0.18871 0.42324-0.42324 0.42324h-0.74106c-0.23454 0-0.42324-0.1887-0.42324-0.42324v-0.74106c0-0.23454 0.18871-0.42324 0.42324-0.42324zm0 2.1167h0.74106c0.23454 0 0.42324 0.18871 0.42324 0.42324v0.74106c0 0.23454-0.18871 0.42324-0.42324 0.42324h-0.74106c-0.23454 0-0.42324-0.18871-0.42324-0.42324v-0.74106c0-0.23454 0.18871-0.42324 0.42324-0.42324zm0 14.023h0.74106c0.23454 0 0.42324 0.1887 0.42324 0.42324v0.74106c0 0.23454-0.18871 0.42324-0.42324 0.42324h-0.74106c-0.23454 0-0.42324-0.18871-0.42324-0.42324v-0.74106c0-0.23454 0.18871-0.42324 0.42324-0.42324z" fill="#f37e40" stroke-width=".26459"/>
 <path d="m2.6455 1.5878v3.175h1.3229c0.73288 0 1.3229 0.59003 1.3229 1.3229v12.7c0 0.73288-0.59003 1.3229-1.3229 1.3229h-1.3229v4.2329h39.159v-22.754zm6.6146 3.175h23.813c0.73288 0 1.3229 0.59003 1.3229 1.3229v12.7c0 0.73288-0.59003 1.3229-1.3229 1.3229h-23.813c-0.73288 0-1.3229-0.59003-1.3229-1.3229v-12.7c0-0.73288 0.59003-1.3229 1.3229-1.3229zm29.104 0h3.4396v15.346h-3.4396c-0.73288 0-1.3229-0.59003-1.3229-1.3229v-12.7c0-0.73288 0.59003-1.3229 1.3229-1.3229z" fill="#f37e40" opacity=".287" stroke-width=".26459"/>
</svg>
