<svg width="160" height="94" viewBox="0 0 42.333 24.871" xmlns="http://www.w3.org/2000/svg"><path d="M0 0V24.872h42.334V0H0zm.529 1.588H41.805v20.638H.528V1.588zm.952 21.167h.741c.235 0 .424.188.424.423v.741a.422.422 0 0 1-.424.423h-.74a.422.422 0 0 1-.424-.423v-.741c0-.235.189-.423.423-.423zm2.117 0h.741c.235 0 .423.188.423.423v.741c0 .233-.186.42-.418.423h-.751a.422.422 0 0 1-.418-.423v-.741c0-.235.188-.423.423-.423zm2.117 0h.74c.235 0 .424.188.424.423v.741c0 .233-.186.42-.418.423H5.71a.422.422 0 0 1-.419-.423v-.741c0-.235.19-.423.424-.423zm2.116 0h.742c.234 0 .423.188.423.423v.741c0 .233-.186.42-.418.423h-.752a.422.422 0 0 1-.418-.423v-.741c0-.235.189-.423.423-.423zm32.016 0h.74c.235 0 .424.188.424.423v.741c0 .233-.186.42-.418.423h-.751a.422.422 0 0 1-.418-.423v-.741c0-.235.188-.423.423-.423z" fill="#f37e40"/><path d="M.529 1.588v3.175h3.44c.732 0 1.322.59 1.322 1.323v12.7a1.32 1.32 0 0 1-1.322 1.323H.529v2.117H41.805V1.588H.53zM9.26 4.763h23.814c.733 0 1.322.59 1.322 1.323v12.7a1.32 1.32 0 0 1-1.322 1.323H9.26a1.32 1.32 0 0 1-1.323-1.323v-12.7c0-.733.59-1.323 1.323-1.323zm29.105 0h3.44V20.11h-3.44a1.32 1.32 0 0 1-1.323-1.323v-12.7c0-.733.59-1.323 1.323-1.323z" fill="#f37e40" opacity=".287"/></svg>