<svg width="160" height="94" version="1.1" viewBox="0 0 42.333 24.871" xmlns="http://www.w3.org/2000/svg">
 <path transform="matrix(.26459 0 0 .26459 -.00030851 0)" d="m0 0v6 78 8 2 0.003906h160v-94.004h-150-10zm2 6h1.5996 2.8008 3.5996 148v78h-0.00781-13.994-1.0039-67.996-1-70-2v-78zm3.5996 80h2.8008c0.88644 0 1.5996 0.71321 1.5996 1.5996v2.8008c0 0.88645-0.7132 1.5996-1.5996 1.5996h-2.8008c-0.88644 0-1.5996-0.7132-1.5996-1.5996v-2.8008c0-0.88645 0.7132-1.5996 1.5996-1.5996zm8 0h2.8008c0.88644 0 1.5996 0.71321 1.5996 1.5996v2.8008c0 0.87974-0.70298 1.587-1.5801 1.5977h-2.8398c-0.8771-0.01069-1.5801-0.71796-1.5801-1.5977v-2.8008c0-0.88645 0.7132-1.5996 1.5996-1.5996zm8 0h2.8008c0.88644 0 1.5996 0.71321 1.5996 1.5996v2.8008c0 0.87974-0.70298 1.587-1.5801 1.5977h-2.8398c-0.8771-0.01069-1.5801-0.71796-1.5801-1.5977v-2.8008c0-0.88645 0.7132-1.5996 1.5996-1.5996zm8 0h2.8008c0.88644 0 1.5996 0.71321 1.5996 1.5996v2.8008c0 0.87974-0.70302 1.587-1.5801 1.5977h-2.8398c-0.8771-0.01069-1.5801-0.71796-1.5801-1.5977v-2.8008c0-0.88645 0.7132-1.5996 1.5996-1.5996zm121 0h2.8008c0.88645 0 1.5996 0.71321 1.5996 1.5996v2.8008c0 0.87974-0.70301 1.587-1.5801 1.5977h-2.8398c-0.87709-0.01069-1.5801-0.71796-1.5801-1.5977v-2.8008c0-0.88645 0.71317-1.5996 1.5996-1.5996z" fill="#f37e40"/>
 <path transform="matrix(.26459 0 0 .26459 -.00030851 0)" d="m2 6v12l13 0.001953c2.7699 2.16e-4 5 2.2282 5 4.998v48c0 2.7699-2.2301 5-5 5h-13v8h2 70 1 67.996 1.0039 13.994 0.00781v-78h-156zm33 12.002h90.002c2.7699 0 4.998 2.2282 4.998 4.998v48c0 2.7699-2.2282 5-4.998 5h-90.002c-2.7699 0-5-2.2301-5-5v-48c0-2.7699 2.2301-4.998 5-4.998zm110 0h13v58h-13c-2.7699 0-5-2.2301-5-5v-48c0-2.7699 2.2301-5 5-5z" fill="#f37e40" opacity=".287"/>
</svg>
