<?xml version="1.0" encoding="UTF-8" standalone="no"?>
<svg width="326" height="94" viewBox="0 0 86.254506 24.871" version="1.1" id="svg29" sodipodi:docname="workspaces-primary-display.svg" inkscape:version="1.1.1 (3bf5ae0d25, 2021-09-20)" xmlns:inkscape="http://www.inkscape.org/namespaces/inkscape" xmlns:sodipodi="http://sodipodi.sourceforge.net/DTD/sodipodi-0.dtd" xmlns="http://www.w3.org/2000/svg" xmlns:svg="http://www.w3.org/2000/svg">
  <sodipodi:namedview id="namedview31" pagecolor="#ffffff" bordercolor="#cccccc" borderopacity="1" inkscape:pageshadow="0" inkscape:pageopacity="0" inkscape:pagecheckerboard="0" showgrid="true" inkscape:zoom="5.6568542" inkscape:cx="-29.168155" inkscape:cy="19.710602" inkscape:window-width="1292" inkscape:window-height="704" inkscape:window-x="68" inkscape:window-y="27" inkscape:window-maximized="1" inkscape:current-layer="svg29" width="326px">
    <inkscape:grid type="xygrid" id="grid65"/>
  </sodipodi:namedview>
  <defs id="defs5">
    <clipPath clipPathUnits="userSpaceOnUse" id="a">
      <path style="opacity:1;vector-effect:none;fill:#ed333b;fill-opacity:1;stroke:none;stroke-width:2;stroke-linecap:butt;stroke-linejoin:miter;stroke-miterlimit:4;stroke-dasharray:none;stroke-dashoffset:0;stroke-opacity:1;marker:none" d="m 1448,-3870.014 h 127 v 73 h -127 z" id="path2"/>
    </clipPath>
  </defs>
  <rect y="0.26458511" x="44.185596" height="24.341841" width="41.804455" style="vector-effect:none;fill:#ffffff;fill-opacity:1;stroke:#924d8b;stroke-width:0.529162;stroke-linecap:butt;stroke-linejoin:miter;stroke-miterlimit:4;stroke-dasharray:none;stroke-dashoffset:0;stroke-opacity:1;marker:none" id="rect67"/>
  <path style="display:inline;opacity:0.287;vector-effect:none;fill:#924d8b;fill-opacity:1;stroke:#924d8b;stroke-width:0.79375;stroke-linecap:butt;stroke-linejoin:miter;stroke-miterlimit:4;stroke-dasharray:none;stroke-dashoffset:0;stroke-opacity:1;marker:none;marker-start:none;marker-mid:none;marker-end:none;paint-order:normal" d="M 44.31789,0.3974596 H 85.857756 V 24.474709 H 44.31789 Z" id="path3092"/>
  <rect style="opacity:1;fill:#ffffff;fill-opacity:1;stroke:#ed333b;stroke-width:0;stroke-linecap:round;stroke-miterlimit:4;stroke-dasharray:none" id="rect3775" width="33.337723" height="19.579298" x="48.418961" y="2.6464353" rx="1.3229258" ry="1.3229257"/>
  <rect style="fill:#924d8b;fill-opacity:1;stroke:none;stroke-width:0.286803;stroke-opacity:1" id="rect4752" width="42.333618" height="24.871" x="-0.00011934042" y="0" ry="0"/>
  <rect style="fill:#ffffff;fill-opacity:1;stroke:none;stroke-width:0.398372;stroke-opacity:1" id="rect5232" width="39.158596" height="22.754318" x="2.6457317" y="1.5875092"/>
  <rect style="fill:#924d8b;fill-opacity:1;stroke:none;stroke-width:0.398372;stroke-opacity:1;opacity:0.287" id="rect5232-3" width="39.158596" height="22.754318" x="2.6457317" y="1.5875092"/>
  <g transform="matrix(0.69227248,-0.69226845,0.69227248,0.69226845,-169.35882,-167.97379)" id="g4632" style="fill:#ffffff;stroke-width:0.28984"/>
  <path id="rect4017" style="opacity:1;fill:#ffffff;fill-opacity:1;stroke:#ed333b;stroke-width:0;stroke-linecap:round;stroke-miterlimit:4;stroke-dasharray:none" d="M 0.52905092,4.7625324 V 20.10847 H 3.9686574 c 0.732901,0 1.3229255,-0.590025 1.3229255,-1.322926 V 6.0854584 c 0,-0.732901 -0.5900245,-1.322926 -1.3229255,-1.322926 z m 8.73130868,0 c -0.7329008,0 -1.3229256,0.590025 -1.3229256,1.322926 V 18.785544 c 0,0.732901 0.5900248,1.322926 1.3229256,1.322926 H 33.07302 c 0.732901,0 1.322925,-0.590025 1.322925,-1.322926 V 6.0854584 c 0,-0.732901 -0.590024,-1.322926 -1.322925,-1.322926 z m 29.1043624,0 c -0.732901,0 -1.322925,0.590025 -1.322925,1.322926 V 18.785544 c 0,0.732901 0.590024,1.322926 1.322925,1.322926 h 3.439607 V 4.7625324 Z"/>
  <rect style="fill:#924d8b;fill-opacity:1;stroke:none;stroke-width:0.263189;stroke-opacity:1" id="rect5358" width="2.6458511" height="24.871" x="-0.00011934042" y="0"/>
  <path id="rect2863-36-3" style="fill:#ffffff;fill-opacity:1;stroke-width:0.0993768" d="m 0.95228395,1.5875106 c -0.234528,0 -0.423233,0.188705 -0.423233,0.423233 v 0.741045 c 0,0.234529 0.188705,0.423233 0.423233,0.423233 H 1.693329 c 0.234528,0 0.423233,-0.188704 0.423233,-0.423233 v -0.741045 c 0,-0.234528 -0.188705,-0.423233 -0.423233,-0.423233 z m 0,2.116681 c -0.234528,0 -0.423233,0.188705 -0.423233,0.423233 v 0.741045 c 0,0.234528 0.188705,0.423233 0.423233,0.423233 H 1.693329 c 0.234528,0 0.423233,-0.188705 0.423233,-0.423233 v -0.741045 c 0,-0.234528 -0.188705,-0.423233 -0.423233,-0.423233 z m 0,2.116681 c -0.234528,0 -0.423233,0.188704 -0.423233,0.423233 v 0.7410448 c 0,0.2345282 0.188705,0.4232327 0.423233,0.4232327 H 1.693329 c 0.234528,0 0.423233,-0.1887045 0.423233,-0.4232327 V 6.2441056 c 0,-0.234529 -0.188705,-0.423233 -0.423233,-0.423233 z m 0,2.1166807 c -0.234528,0 -0.423233,0.1887045 -0.423233,0.4232326 v 0.7410452 c 0,0.2345291 0.188705,0.4232322 0.423233,0.4232322 H 1.693329 c 0.234528,0 0.423233,-0.1887031 0.423233,-0.4232322 V 8.3607859 c 0,-0.2345281 -0.188705,-0.4232326 -0.423233,-0.4232326 z m 0,14.0230107 c -0.234528,0 -0.423233,0.188704 -0.423233,0.423232 v 0.741046 c 0,0.234528 0.188705,0.423232 0.423233,0.423232 H 1.693329 c 0.234528,0 0.423233,-0.188704 0.423233,-0.423232 v -0.741046 c 0,-0.234528 -0.188705,-0.423232 -0.423233,-0.423232 z" sodipodi:nodetypes="sssssssssssssssssssssssssssssssssssssssssssss"/>
</svg>