<svg width="326" height="94" version="1.1" viewBox="0 0 86.255 24.871" xmlns="http://www.w3.org/2000/svg">
 <g fill="#f37e40">
  <path d="m43.922 0v24.871h42.332v-24.871zm0.52734 0.5293h41.275v23.813h-41.275z" color="#000000" style="-inkscape-stroke:none"/>
  <path d="m44.318 0.3971v4.3662h3.3084c0.73292 0 1.3229 0.59002 1.3229 1.3229v12.701c0 0.73291-0.59001 1.3229-1.3229 1.3229h-3.3084v4.3641h41.54v-24.077zm8.6006 4.3662h23.813c0.73291 0 1.3229 0.59002 1.3229 1.3229v12.701c0 0.73291-0.59002 1.3229-1.3229 1.3229h-23.813c-0.73292 0-1.3229-0.59002-1.3229-1.3229v-12.701c0-0.73291 0.59001-1.3229 1.3229-1.3229zm29.104 0h3.4401v15.346h-3.4401c-0.73292 0-1.3229-0.59002-1.3229-1.3229v-12.701c0-0.73291 0.59001-1.3229 1.3229-1.3229z" opacity=".287" stroke-width=".26459" style="paint-order:normal"/>
  <path d="m2.6194 1.5875v3.175h1.3229c0.73288 0 1.3229 0.59003 1.3229 1.3229v12.7c0 0.73288-0.59003 1.3229-1.3229 1.3229h-1.3229v4.2329h39.159v-22.754zm6.6146 3.175h23.813c0.73288 0 1.3229 0.59003 1.3229 1.3229v12.7c0 0.73288-0.59003 1.3229-1.3229 1.3229h-23.813c-0.73288 0-1.3229-0.59003-1.3229-1.3229v-12.7c0-0.73288 0.59003-1.3229 1.3229-1.3229zm29.104 0h3.4396v15.346h-3.4396c-0.73288 0-1.3229-0.59003-1.3229-1.3229v-12.7c0-0.73288 0.59003-1.3229 1.3229-1.3229z" opacity=".287" stroke-width=".26459"/>
 </g>
 <path transform="matrix(.26459 0 0 .26459 0 -3.681e-5)" d="m0 0v94.002h160v-94.002h-150zm3.5996 6h2.8008c0.8864 0 1.5996 0.71321 1.5996 1.5996v2.8008c0 0.8864-0.71321 1.5996-1.5996 1.5996h-2.8008c-0.8864 0-1.5996-0.7132-1.5996-1.5996v-2.8008c0-0.8864 0.71321-1.5996 1.5996-1.5996zm6.4004 0h148v86.002h-148zm-6.4004 8h2.8008c0.8864 0 1.5996 0.7132 1.5996 1.5996v2.8008c0 0.8864-0.71321 1.5996-1.5996 1.5996h-2.8008c-0.8864 0-1.5996-0.7132-1.5996-1.5996v-2.8008c0-0.8864 0.71321-1.5996 1.5996-1.5996zm0 8h2.8008c0.8864 0 1.5996 0.7132 1.5996 1.5996v2.8008c0 0.8864-0.71321 1.5996-1.5996 1.5996h-2.8008c-0.8864 0-1.5996-0.7132-1.5996-1.5996v-2.8008c0-0.8864 0.71321-1.5996 1.5996-1.5996zm0 8h2.8008c0.8864 0 1.5996 0.7132 1.5996 1.5996v2.8008c0 0.8864-0.71321 1.5996-1.5996 1.5996h-2.8008c-0.8864 0-1.5996-0.7132-1.5996-1.5996v-2.8008c0-0.8864 0.71321-1.5996 1.5996-1.5996zm0 53h2.8008c0.8864 0 1.5996 0.7132 1.5996 1.5996v2.8008c0 0.8864-0.71321 1.5996-1.5996 1.5996h-2.8008c-0.8864 0-1.5996-0.7132-1.5996-1.5996v-2.8008c0-0.8864 0.71321-1.5996 1.5996-1.5996z" fill="#f37e40"/>
</svg>
