<svg style="display:inline;enable-background:new" version="1.0" height="216.12" width="249.599" xmlns:xlink="http://www.w3.org/1999/xlink" xmlns="http://www.w3.org/2000/svg"><defs><linearGradient id="d"><stop offset="0" style="stop-color:#000;stop-opacity:1"/><stop offset="1" style="stop-color:#000;stop-opacity:0"/></linearGradient><linearGradient id="e"><stop style="stop-color:#f22c42;stop-opacity:1" offset="0"/><stop style="stop-color:#f77e8b;stop-opacity:1" offset="1"/></linearGradient><linearGradient id="f"><stop style="stop-color:#f34f17;stop-opacity:1" offset="0"/><stop style="stop-color:#f8906c;stop-opacity:1" offset="1"/></linearGradient><linearGradient id="a"><stop offset="0" style="stop-color:#cdcdcd;stop-opacity:1"/><stop offset="1" style="stop-color:#d9d9d9;stop-opacity:1"/></linearGradient><linearGradient y2="249" x2="329" y1="239" x1="329" gradientTransform="translate(-1)" gradientUnits="userSpaceOnUse" id="h" xlink:href="#a"/><linearGradient y2="206" x2="333" y1="194" x1="333" gradientTransform="matrix(-1 0 0 1 664 0)" gradientUnits="userSpaceOnUse" id="b" xlink:href="#a"/><linearGradient gradientUnits="userSpaceOnUse" y2="228" x2="152" y1="84" x1="152" id="t" xlink:href="#a"/><linearGradient y2="228" x2="152" y1="76" x1="152" gradientUnits="userSpaceOnUse" id="v" xlink:href="#c"/><linearGradient id="c"><stop style="stop-color:#fff;stop-opacity:1" offset="0"/><stop offset=".125" style="stop-color:#fff;stop-opacity:.09803922"/><stop offset=".925" style="stop-color:#000;stop-opacity:.09803922"/><stop style="stop-color:#000;stop-opacity:.49803922" offset="1"/></linearGradient><linearGradient id="i"><stop offset="0" style="stop-color:#f2f2f2;stop-opacity:1"/><stop offset="1" style="stop-color:#f9f9f9;stop-opacity:1"/></linearGradient><linearGradient id="g"><stop offset="0" style="stop-color:#76c22b;stop-opacity:1"/><stop offset="1" style="stop-color:#cbe667;stop-opacity:1"/></linearGradient><linearGradient gradientUnits="userSpaceOnUse" y2="220" x2="152" y1="188" x1="152" id="A" xlink:href="#d"/><linearGradient gradientTransform="matrix(0 2 -1 0 -8 -148)" gradientUnits="userSpaceOnUse" y2="-212" x2="164" y1="-212" x1="152" id="y" xlink:href="#e"/><linearGradient gradientTransform="matrix(0 2 -1 0 -8 -148)" gradientUnits="userSpaceOnUse" y2="-228" x2="164" y1="-228" x1="152" id="x" xlink:href="#f"/><linearGradient gradientTransform="matrix(0 2 -1 0 -8 -148)" gradientUnits="userSpaceOnUse" y2="-244" x2="164" y1="-244" x1="152" id="w" xlink:href="#g"/><linearGradient gradientTransform="matrix(.97222 0 0 .98333 4.222 2.6)" gradientUnits="userSpaceOnUse" y2="276" x2="192" y1="36" x1="112" id="z" xlink:href="#i"/><linearGradient y2="228" x2="152" y1="84" x1="152" gradientUnits="userSpaceOnUse" id="j" xlink:href="#a"/><linearGradient gradientUnits="userSpaceOnUse" y2="466" x2="2321" y1="464" x1="2321" id="n" xlink:href="#k" gradientTransform="matrix(4.86957 0 0 5 -9262.26 -1704)"/><linearGradient id="k"><stop style="stop-color:#8a826a;stop-opacity:1" offset="0"/><stop style="stop-color:#a69f8a;stop-opacity:1" offset="1"/></linearGradient><linearGradient gradientUnits="userSpaceOnUse" y2="465" x2="2343" y1="459" x1="2343" id="o" xlink:href="#l" gradientTransform="matrix(5 0 0 5 -9564 -1704)"/><linearGradient id="l"><stop offset="0" style="stop-color:#746c58;stop-opacity:1"/><stop offset="1" style="stop-color:#8a836a;stop-opacity:1"/></linearGradient><linearGradient gradientUnits="userSpaceOnUse" y2="467" x2="2340" y1="463" x1="2340" id="p" xlink:href="#l" gradientTransform="matrix(5 0 0 5 -9564 -1704)"/><linearGradient gradientTransform="matrix(1 0 0 3 0 -1224)" gradientUnits="userSpaceOnUse" y2="608" x2="2148" y1="612" x1="2148" id="q" xlink:href="#d"/><filter height="1.033" y="-.017" width="1.02" x="-.01" id="s" style="color-interpolation-filters:sRGB"><feGaussianBlur stdDeviation="1"/></filter><filter height="1.067" y="-.033" width="1.04" x="-.02" id="r" style="color-interpolation-filters:sRGB"><feGaussianBlur stdDeviation="2"/></filter><filter height="1.173" y="-.087" width="1.028" x="-.014" id="m" style="color-interpolation-filters:sRGB"><feGaussianBlur stdDeviation="1.3"/></filter><clipPath id="u" clipPathUnits="userSpaceOnUse"><path d="M271.999 203.001c0 25-9.783 24.709-35 25h-170c-25.216-.291-35 0-35-25V109c0-25 9.784-24.708 35-25h170c25.217.292 35 0 35 25z" style="color:#000;display:inline;overflow:visible;visibility:visible;opacity:1;fill:url(#j);fill-opacity:1;fill-rule:nonzero;stroke:none;stroke-width:4;stroke-linecap:butt;stroke-linejoin:miter;stroke-miterlimit:4;stroke-dasharray:none;stroke-dashoffset:0;stroke-opacity:1;marker:none;enable-background:accumulate"/></clipPath></defs><g style="display:inline" transform="translate(-27.2 -44)"><g style="display:inline;opacity:1;enable-background:new"><path style="display:inline;opacity:.2;vector-effect:none;fill:#000;fill-opacity:1;stroke:none;stroke-width:4.00079;stroke-linecap:butt;stroke-linejoin:miter;stroke-miterlimit:4;stroke-dasharray:none;stroke-dashoffset:0;stroke-opacity:1;marker:none;filter:url(#m);enable-background:new" d="M2152 593c-2.216 0-4 1.784-4 4v16h-12c-2.216 0-4 1.784-4 4h-90c-1.108 0-2 .892-2 2v4c0 1.108.892 2 2 2h90c0 2.216 1.784 4 4 4h32c2.216 0 4-1.784 4-4h90c1.108 0 2-.892 2-2v-4c0-1.108-.892-2-2-2h-90a3.993 3.993 0 0 0-4-4h-12v-16c0-2.216-1.784-4-4-4z" transform="translate(-2000 -372)"/><g transform="translate(-2000 -372)"><rect ry="2" rx="2" y="616" x="2040" height="8" width="224" style="display:inline;opacity:1;vector-effect:none;fill:url(#n);fill-opacity:1;stroke:none;stroke-width:4.00079;stroke-linecap:butt;stroke-linejoin:miter;stroke-miterlimit:4;stroke-dasharray:none;stroke-dashoffset:0;stroke-opacity:1;marker:none;enable-background:new"/><rect ry="4" rx="4" y="592" x="2148" height="28" width="8" style="display:inline;opacity:1;vector-effect:none;fill:url(#o);fill-opacity:1;stroke:none;stroke-width:4.00079;stroke-linecap:butt;stroke-linejoin:miter;stroke-miterlimit:4;stroke-dasharray:none;stroke-dashoffset:0;stroke-opacity:1;marker:none;enable-background:new"/><path d="M2042 616c-1.108 0-2 .892-2 2v2c0-1.108.892-2 2-2h220c1.108 0 2 .892 2 2v-2c0-1.108-.892-2-2-2z" style="display:inline;opacity:.2;vector-effect:none;fill:#fff;fill-opacity:1;stroke:none;stroke-width:4.00079;stroke-linecap:butt;stroke-linejoin:miter;stroke-miterlimit:4;stroke-dasharray:none;stroke-dashoffset:0;stroke-opacity:1;marker:none;enable-background:new"/><rect ry="4" rx="4" y="612" x="2132" height="16" width="40" style="display:inline;opacity:1;vector-effect:none;fill:url(#p);fill-opacity:1;stroke:none;stroke-width:4.00079;stroke-linecap:butt;stroke-linejoin:miter;stroke-miterlimit:4;stroke-dasharray:none;stroke-dashoffset:0;stroke-opacity:1;marker:none;enable-background:new"/><path d="M2136 612c-2.216 0-4 1.784-4 4v2c0-2.216 1.784-4 4-4h32c2.216 0 4 1.784 4 4v-2c0-2.216-1.784-4-4-4z" style="display:inline;opacity:.2;vector-effect:none;fill:#fff;fill-opacity:1;stroke:none;stroke-width:4.00079;stroke-linecap:butt;stroke-linejoin:miter;stroke-miterlimit:4;stroke-dasharray:none;stroke-dashoffset:0;stroke-opacity:1;marker:none;enable-background:new"/><path style="opacity:.2;vector-effect:none;fill:url(#q);fill-opacity:1;stroke:none;stroke-width:4.00079;stroke-linecap:butt;stroke-linejoin:miter;stroke-miterlimit:4;stroke-dasharray:none;stroke-dashoffset:0;stroke-opacity:1;marker:none" d="M2148 600h8v12h-8z"/><path d="M2136 612c-2.216 0-4 1.784-4 4v1c0-2.216 1.784-4 4-4h32c2.216 0 4 1.784 4 4v-1c0-2.216-1.784-4-4-4z" style="display:inline;opacity:.8;vector-effect:none;fill:#fff;fill-opacity:1;stroke:none;stroke-width:4.00079;stroke-linecap:butt;stroke-linejoin:miter;stroke-miterlimit:4;stroke-dasharray:none;stroke-dashoffset:0;stroke-opacity:1;marker:none;enable-background:new"/></g></g><path d="M271.999 205.001c0 25-9.783 24.709-35 25h-170c-25.216-.291-35 0-35-25V111c0-25 9.784-24.708 35-25h170c25.217.292 35 0 35 25z" style="color:#000;display:inline;overflow:visible;visibility:visible;opacity:.2;fill:#000;fill-opacity:1;fill-rule:nonzero;stroke:none;stroke-width:4;stroke-linecap:butt;stroke-linejoin:miter;stroke-miterlimit:4;stroke-dasharray:none;stroke-dashoffset:0;stroke-opacity:1;marker:none;filter:url(#r);enable-background:accumulate"/><path style="color:#000;display:inline;overflow:visible;visibility:visible;opacity:.1;fill:#000;fill-opacity:1;fill-rule:nonzero;stroke:none;stroke-width:4;stroke-linecap:butt;stroke-linejoin:miter;stroke-miterlimit:4;stroke-dasharray:none;stroke-dashoffset:0;stroke-opacity:1;marker:none;filter:url(#s);enable-background:accumulate" d="M271.999 203.001c0 25-9.783 24.709-35 25h-170c-25.216-.291-35 0-35-25V109c0-25 9.784-24.708 35-25h170c25.217.292 35 0 35 25z"/><path d="M271.999 203.001c0 25-9.783 24.709-35 25h-170c-25.216-.291-35 0-35-25V109c0-25 9.784-24.708 35-25h170c25.217.292 35 0 35 25z" style="color:#000;display:inline;overflow:visible;visibility:visible;opacity:1;fill:url(#t);fill-opacity:1;fill-rule:nonzero;stroke:none;stroke-width:4;stroke-linecap:butt;stroke-linejoin:miter;stroke-miterlimit:4;stroke-dasharray:none;stroke-dashoffset:0;stroke-opacity:1;marker:none;enable-background:accumulate"/><path d="M32 172v31.002c0 25 9.783 24.708 35 25h169.998c25.217-.292 35 0 35-25V172z" style="color:#000;display:inline;overflow:visible;visibility:visible;opacity:.075;fill:#000;fill-opacity:1;fill-rule:nonzero;stroke:none;stroke-width:4;stroke-linecap:butt;stroke-linejoin:miter;stroke-miterlimit:4;stroke-dasharray:none;stroke-dashoffset:0;stroke-opacity:1;marker:none;enable-background:accumulate"/><path clip-path="url(#u)" d="M271.999 203.001c0 25-9.783 24.709-35 25h-170c-25.216-.291-35 0-35-25V109c0-25 9.784-24.708 35-25h170c25.217.292 35 0 35 25z" style="color:#000;display:inline;overflow:visible;visibility:visible;opacity:.5;fill:none;fill-opacity:1;fill-rule:nonzero;stroke:url(#v);stroke-width:4;stroke-linecap:butt;stroke-linejoin:miter;stroke-miterlimit:4;stroke-dasharray:none;stroke-dashoffset:0;stroke-opacity:1;marker:none;enable-background:accumulate"/><path d="M80 92h144c4.432 0 8 0 8 3.75V100H72v-4.25C72 92 76 92 80 92zM64 196h176v12c0 4.432-3.568 8-8 8H72c-4.432 0-8-4-8-8v-4z" style="display:inline;opacity:.3;fill:#000021;fill-opacity:1;stroke:none;stroke-width:2;stroke-linecap:round;stroke-linejoin:round;stroke-miterlimit:4;stroke-dasharray:none;stroke-opacity:1;enable-background:new"/><rect ry="4" rx="4" y="156" x="232" height="8" width="8" style="display:inline;opacity:1;fill:url(#w);fill-opacity:1;stroke:none;stroke-width:1;stroke-linecap:round;stroke-linejoin:round;stroke-miterlimit:4;stroke-dasharray:none;stroke-dashoffset:0;stroke-opacity:.880597;enable-background:new"/><rect ry="4" rx="4" y="156" x="216" height="8" width="8" style="display:inline;opacity:1;fill:url(#x);fill-opacity:1;stroke:none;stroke-width:1;stroke-linecap:round;stroke-linejoin:round;stroke-miterlimit:4;stroke-dasharray:none;stroke-dashoffset:0;stroke-opacity:.880597;enable-background:new"/><rect ry="4" rx="4" y="156" x="200" height="8" width="8" style="display:inline;opacity:1;fill:url(#y);fill-opacity:1;stroke:none;stroke-width:1;stroke-linecap:round;stroke-linejoin:round;stroke-miterlimit:4;stroke-dasharray:none;stroke-dashoffset:0;stroke-opacity:.880597;enable-background:new"/><path style="display:inline;opacity:.2;vector-effect:none;fill:#fff;fill-opacity:1;stroke:none;stroke-width:0;stroke-linecap:round;stroke-linejoin:round;stroke-miterlimit:4;stroke-dasharray:none;stroke-dashoffset:0;stroke-opacity:1;enable-background:new" d="M32 171h239.999v1H32z"/><path d="M90 44c-6 0-10 4-10 10v46h144V54c0-6-4-10-10-10zM80 196h144z" style="display:inline;opacity:.2;vector-effect:none;fill:#000;fill-opacity:1;stroke:none;stroke-width:0;stroke-linecap:round;stroke-linejoin:round;stroke-miterlimit:4;stroke-dasharray:none;stroke-dashoffset:0;stroke-opacity:1;enable-background:new"/><path d="M90 46c-4.432 0-8 3.568-8 8v46h140V54c0-4.432-3.568-8-8-8zm-8 150h140z" style="display:inline;opacity:1;vector-effect:none;fill:url(#z);fill-opacity:1;stroke:none;stroke-width:0;stroke-linecap:round;stroke-linejoin:round;stroke-miterlimit:4;stroke-dasharray:none;stroke-dashoffset:0;stroke-opacity:1;enable-background:new"/><path d="M64 196h176v12c0 4.432-3.568 8-8 8H72c-4.432 0-8-3.568-8-8v-4z" style="display:inline;opacity:.2;fill:url(#A);fill-opacity:1;stroke:none;stroke-width:2;stroke-linecap:round;stroke-linejoin:round;stroke-miterlimit:4;stroke-dasharray:none;stroke-opacity:1;enable-background:new"/></g></svg>