<svg width="249.599" height="224" version="1.0" style="display:inline;enable-background:new" xmlns:xlink="http://www.w3.org/1999/xlink" xmlns="http://www.w3.org/2000/svg"><defs><linearGradient id="d"><stop style="stop-color:#000;stop-opacity:1" offset="0"/><stop style="stop-color:#000;stop-opacity:0" offset="1"/></linearGradient><linearGradient id="e"><stop offset="0" style="stop-color:#f22c42;stop-opacity:1"/><stop offset="1" style="stop-color:#f77e8b;stop-opacity:1"/></linearGradient><linearGradient id="f"><stop offset="0" style="stop-color:#f34f17;stop-opacity:1"/><stop offset="1" style="stop-color:#f8906c;stop-opacity:1"/></linearGradient><linearGradient id="a"><stop style="stop-color:#cdcdcd;stop-opacity:1" offset="0"/><stop style="stop-color:#d9d9d9;stop-opacity:1" offset="1"/></linearGradient><linearGradient xlink:href="#a" id="h" gradientUnits="userSpaceOnUse" gradientTransform="translate(-1)" x1="329" y1="239" x2="329" y2="249"/><linearGradient xlink:href="#a" id="b" gradientUnits="userSpaceOnUse" gradientTransform="matrix(-1 0 0 1 664 0)" x1="333" y1="194" x2="333" y2="206"/><linearGradient xlink:href="#a" id="m" x1="152" y1="84" x2="152" y2="228" gradientUnits="userSpaceOnUse"/><linearGradient xlink:href="#c" id="n" gradientUnits="userSpaceOnUse" x1="152" y1="76" x2="152" y2="228"/><linearGradient id="c"><stop offset="0" style="stop-color:#fff;stop-opacity:1"/><stop style="stop-color:#fff;stop-opacity:.09803922" offset=".125"/><stop style="stop-color:#000;stop-opacity:.09803922" offset=".925"/><stop offset="1" style="stop-color:#000;stop-opacity:.49803922"/></linearGradient><linearGradient id="i"><stop style="stop-color:#f2f2f2;stop-opacity:1" offset="0"/><stop style="stop-color:#f9f9f9;stop-opacity:1" offset="1"/></linearGradient><linearGradient id="g"><stop style="stop-color:#76c22b;stop-opacity:1" offset="0"/><stop style="stop-color:#cbe667;stop-opacity:1" offset="1"/></linearGradient><linearGradient xlink:href="#d" id="t" x1="152" y1="188" x2="152" y2="220" gradientUnits="userSpaceOnUse"/><linearGradient xlink:href="#e" id="r" x1="152" y1="-212" x2="164" y2="-212" gradientUnits="userSpaceOnUse" gradientTransform="matrix(0 2 -1 0 -8 -148)"/><linearGradient xlink:href="#f" id="q" x1="152" y1="-228" x2="164" y2="-228" gradientUnits="userSpaceOnUse" gradientTransform="matrix(0 2 -1 0 -8 -148)"/><linearGradient xlink:href="#g" id="p" x1="152" y1="-244" x2="164" y2="-244" gradientUnits="userSpaceOnUse" gradientTransform="matrix(0 2 -1 0 -8 -148)"/><linearGradient xlink:href="#i" id="s" x1="112" y1="36" x2="192" y2="276" gradientUnits="userSpaceOnUse" gradientTransform="matrix(.97222 0 0 .98333 4.222 2.6)"/><linearGradient xlink:href="#a" id="j" gradientUnits="userSpaceOnUse" x1="152" y1="84" x2="152" y2="228"/><filter style="color-interpolation-filters:sRGB" id="l" x="-.01" width="1.02" y="-.017" height="1.033"><feGaussianBlur stdDeviation="1"/></filter><filter style="color-interpolation-filters:sRGB" id="k" x="-.02" width="1.04" y="-.033" height="1.067"><feGaussianBlur stdDeviation="2"/></filter><clipPath clipPathUnits="userSpaceOnUse" id="o"><path style="color:#000;display:inline;overflow:visible;visibility:visible;opacity:1;fill:url(#j);fill-opacity:1;fill-rule:nonzero;stroke:none;stroke-width:4;stroke-linecap:butt;stroke-linejoin:miter;stroke-miterlimit:4;stroke-dasharray:none;stroke-dashoffset:0;stroke-opacity:1;marker:none;enable-background:accumulate" d="M271.999 203.001c0 25-9.783 24.709-35 25h-170c-25.216-.291-35 0-35-25V109c0-25 9.784-24.708 35-25h170c25.217.292 35 0 35 25z"/></clipPath></defs><g style="display:inline" transform="translate(-27.2 -44)"><path style="color:#000;display:inline;overflow:visible;visibility:visible;opacity:.2;fill:#000;fill-opacity:1;fill-rule:nonzero;stroke:none;stroke-width:4;stroke-linecap:butt;stroke-linejoin:miter;stroke-miterlimit:4;stroke-dasharray:none;stroke-dashoffset:0;stroke-opacity:1;marker:none;filter:url(#k);enable-background:accumulate" d="M271.999 205.001c0 25-9.783 24.709-35 25h-170c-25.216-.291-35 0-35-25V111c0-25 9.784-24.708 35-25h170c25.217.292 35 0 35 25z"/><path d="M271.999 203.001c0 25-9.783 24.709-35 25h-170c-25.216-.291-35 0-35-25V109c0-25 9.784-24.708 35-25h170c25.217.292 35 0 35 25z" style="color:#000;display:inline;overflow:visible;visibility:visible;opacity:.1;fill:#000;fill-opacity:1;fill-rule:nonzero;stroke:none;stroke-width:4;stroke-linecap:butt;stroke-linejoin:miter;stroke-miterlimit:4;stroke-dasharray:none;stroke-dashoffset:0;stroke-opacity:1;marker:none;filter:url(#l);enable-background:accumulate"/><path style="color:#000;display:inline;overflow:visible;visibility:visible;opacity:1;fill:url(#m);fill-opacity:1;fill-rule:nonzero;stroke:none;stroke-width:4;stroke-linecap:butt;stroke-linejoin:miter;stroke-miterlimit:4;stroke-dasharray:none;stroke-dashoffset:0;stroke-opacity:1;marker:none;enable-background:accumulate" d="M271.999 203.001c0 25-9.783 24.709-35 25h-170c-25.216-.291-35 0-35-25V109c0-25 9.784-24.708 35-25h170c25.217.292 35 0 35 25z"/><path style="color:#000;display:inline;overflow:visible;visibility:visible;opacity:.075;fill:#000;fill-opacity:1;fill-rule:nonzero;stroke:none;stroke-width:4;stroke-linecap:butt;stroke-linejoin:miter;stroke-miterlimit:4;stroke-dasharray:none;stroke-dashoffset:0;stroke-opacity:1;marker:none;enable-background:accumulate" d="M32 172v31.002c0 25 9.783 24.708 35 25h169.998c25.217-.292 35 0 35-25V172z"/><path style="color:#000;display:inline;overflow:visible;visibility:visible;opacity:.5;fill:none;fill-opacity:1;fill-rule:nonzero;stroke:url(#n);stroke-width:4;stroke-linecap:butt;stroke-linejoin:miter;stroke-miterlimit:4;stroke-dasharray:none;stroke-dashoffset:0;stroke-opacity:1;marker:none;enable-background:accumulate" d="M271.999 203.001c0 25-9.783 24.709-35 25h-170c-25.216-.291-35 0-35-25V109c0-25 9.784-24.708 35-25h170c25.217.292 35 0 35 25z" clip-path="url(#o)"/><path style="display:inline;opacity:.3;fill:#000021;fill-opacity:1;stroke:none;stroke-width:2;stroke-linecap:round;stroke-linejoin:round;stroke-miterlimit:4;stroke-dasharray:none;stroke-opacity:1;enable-background:new" d="M80 92h144c4.432 0 8 0 8 3.75V100H72v-4.25C72 92 76 92 80 92zM64 196h176v12c0 4.432-3.568 8-8 8H72c-4.432 0-8-4-8-8v-4z"/><rect style="display:inline;opacity:1;fill:url(#p);fill-opacity:1;stroke:none;stroke-width:1;stroke-linecap:round;stroke-linejoin:round;stroke-miterlimit:4;stroke-dasharray:none;stroke-dashoffset:0;stroke-opacity:.880597;enable-background:new" width="8" height="8" x="232" y="156" rx="4" ry="4"/><rect style="display:inline;opacity:1;fill:url(#q);fill-opacity:1;stroke:none;stroke-width:1;stroke-linecap:round;stroke-linejoin:round;stroke-miterlimit:4;stroke-dasharray:none;stroke-dashoffset:0;stroke-opacity:.880597;enable-background:new" width="8" height="8" x="216" y="156" rx="4" ry="4"/><rect style="display:inline;opacity:1;fill:url(#r);fill-opacity:1;stroke:none;stroke-width:1;stroke-linecap:round;stroke-linejoin:round;stroke-miterlimit:4;stroke-dasharray:none;stroke-dashoffset:0;stroke-opacity:.880597;enable-background:new" width="8" height="8" x="200" y="156" rx="4" ry="4"/><path style="display:inline;opacity:.2;vector-effect:none;fill:#fff;fill-opacity:1;stroke:none;stroke-width:0;stroke-linecap:round;stroke-linejoin:round;stroke-miterlimit:4;stroke-dasharray:none;stroke-dashoffset:0;stroke-opacity:1;enable-background:new" d="M32 171h239.999v1H32z"/><path style="display:inline;opacity:.2;vector-effect:none;fill:#000;fill-opacity:1;stroke:none;stroke-width:0;stroke-linecap:round;stroke-linejoin:round;stroke-miterlimit:4;stroke-dasharray:none;stroke-dashoffset:0;stroke-opacity:1;enable-background:new" d="M90 44c-6 0-10 4-10 10v46h144V54c0-6-4-10-10-10zM80 196v62c0 6 4 10 10 10h124c6 0 10-4 10-10v-62z"/><path style="display:inline;opacity:1;vector-effect:none;fill:url(#s);fill-opacity:1;stroke:none;stroke-width:0;stroke-linecap:round;stroke-linejoin:round;stroke-miterlimit:4;stroke-dasharray:none;stroke-dashoffset:0;stroke-opacity:1;enable-background:new" d="M90 46c-4.432 0-8 3.568-8 8v46h140V54c0-4.432-3.568-8-8-8zm-8 150v62c0 4.432 3.568 8 8 8h124c4.432 0 8-3.568 8-8v-62z"/><path style="display:inline;opacity:.2;fill:#000;fill-opacity:1;stroke:none;stroke-width:1.97484;stroke-linecap:round;stroke-linejoin:round;stroke-miterlimit:4;stroke-dasharray:none;stroke-dashoffset:0;stroke-opacity:1;enable-background:new" d="M80 196h144v2H80z"/><path style="display:inline;opacity:.6;fill:#999;fill-opacity:1;stroke:none;stroke-width:1.88167;stroke-linecap:square;stroke-linejoin:round;stroke-miterlimit:4;stroke-dasharray:none;stroke-dashoffset:0;stroke-opacity:1;enable-background:new" d="M204 230.097H100v-2h104zM204 214.083H100v-2h104z"/><path style="display:inline;opacity:.2;fill:url(#t);fill-opacity:1;stroke:none;stroke-width:2;stroke-linecap:round;stroke-linejoin:round;stroke-miterlimit:4;stroke-dasharray:none;stroke-opacity:1;enable-background:new" d="M64 196h176v12c0 4.432-3.568 8-8 8H72c-4.432 0-8-3.568-8-8v-4z"/><path d="M204 246.111H100v-2h104z" style="display:inline;opacity:.6;fill:#999;fill-opacity:1;stroke:none;stroke-width:1.88167;stroke-linecap:square;stroke-linejoin:round;stroke-miterlimit:4;stroke-dasharray:none;stroke-dashoffset:0;stroke-opacity:1;enable-background:new"/></g></svg>