<?xml version="1.0" encoding="UTF-8" standalone="no"?>
<svg
   width="326"
   height="94"
   version="1.1"
   viewBox="0 0 86.255 24.871"
   id="svg12"
   sodipodi:docname="workspaces-primary-display-panel-left.svg"
   inkscape:version="1.1.1 (3bf5ae0d25, 2021-09-20)"
   xmlns:inkscape="http://www.inkscape.org/namespaces/inkscape"
   xmlns:sodipodi="http://sodipodi.sourceforge.net/DTD/sodipodi-0.dtd"
   xmlns="http://www.w3.org/2000/svg"
   xmlns:svg="http://www.w3.org/2000/svg">
  <defs
     id="defs16" />
  <sodipodi:namedview
     id="namedview14"
     pagecolor="#ffffff"
     bordercolor="#666666"
     borderopacity="1.0"
     inkscape:pageshadow="2"
     inkscape:pageopacity="0.0"
     inkscape:pagecheckerboard="0"
     showgrid="false"
     inkscape:zoom="1.6641104"
     inkscape:cx="162.84977"
     inkscape:cy="47.17235"
     inkscape:window-width="1298"
     inkscape:window-height="704"
     inkscape:window-x="68"
     inkscape:window-y="27"
     inkscape:window-maximized="1"
     inkscape:current-layer="svg12" />
  <g
     fill="#f37e40"
     id="g8">
    <path
       d="m43.922 0v24.871h42.332v-24.871zm0.52734 0.5293h41.275v23.813h-41.275z"
       color="#000000"
       style="-inkscape-stroke:none"
       id="path2" />
    <path
       d="m44.318 0.3971v24.077h41.54v-24.077zm5.1599 1.9849h30.692c0.7329 0 1.3229 0.59005 1.3229 1.3229v16.933c0 0.7329-0.59005 1.3229-1.3229 1.3229h-30.692c-0.7329 0-1.3229-0.59005-1.3229-1.3229v-16.933c0-0.7329 0.59005-1.3229 1.3229-1.3229z"
       opacity=".287"
       stroke-width=".26459"
       style="paint-order:normal"
       id="path4" />
  </g>
  <path
     d="M 0,-3.6809816e-5 V 24.872555 H 42.334526 V -3.6809816e-5 H 2.6459079 Z M 0.529182,1.5875079 H 41.805345 V 24.342315 H 0.529182 v -6.614769 h 1.5875443 c 0.2931666,0 0.5291816,-0.236015 0.5291816,-0.529181 V 7.1439145 c 0,-0.2931666 -0.236015,-0.5291815 -0.5291816,-0.5291815 H 0.529182 Z m 0.423239,5.5564066 h 0.7410659 c 0.2345412,0 0.4232394,0.1887035 0.4232394,0.4232395 v 0.7410658 c 0,0.2345413 -0.1887061,0.4232395 -0.4232394,0.4232395 H 0.952421 c -0.234541,0 -0.423239,-0.1887035 -0.423239,-0.4232395 V 7.567154 c 0,-0.2345413 0.188706,-0.4232395 0.423239,-0.4232395 z m 0,2.1167263 h 0.7410659 c 0.2345412,0 0.4232394,0.1887036 0.4232394,0.4232395 v 0.7410657 c 0,0.234539 -0.1887061,0.42324 -0.4232394,0.42324 H 0.952421 c -0.234541,0 -0.423239,-0.188704 -0.423239,-0.42324 V 9.6838803 c 0,-0.2345412 0.188706,-0.4232395 0.423239,-0.4232395 z m 0,2.1167262 h 0.7410659 c 0.2345412,0 0.4232394,0.188706 0.4232394,0.42324 v 0.741065 c 0,0.234539 -0.1887061,0.42324 -0.4232394,0.42324 H 0.952421 c -0.234541,0 -0.423239,-0.188704 -0.423239,-0.42324 v -0.741065 c 0,-0.234539 0.188706,-0.42324 0.423239,-0.42324 z m 0,2.116726 h 0.7410659 c 0.2345412,0 0.4232394,0.188707 0.4232394,0.42324 v 0.741066 c 0,0.234541 -0.1887061,0.423239 -0.4232394,0.423239 H 0.952421 c -0.234541,0 -0.423239,-0.188703 -0.423239,-0.423239 v -0.741066 c 0,-0.234539 0.188706,-0.42324 0.423239,-0.42324 z m 0,2.116727 h 0.7410659 c 0.2345412,0 0.4232394,0.188706 0.4232394,0.423239 v 0.741066 c 0,0.234541 -0.1887061,0.42324 -0.4232394,0.42324 H 0.952421 c -0.234539,0 -0.423239,-0.188704 -0.423239,-0.42324 v -0.741066 c 0,-0.234538 0.188706,-0.423239 0.423239,-0.423239 z"
     fill="#f37e40"
     id="path2-3"
     style="stroke-width:0.264591" />
  <path
     d="m 0.529182,1.5875079 v 3.1750895 h 2.1167259 v 5.292e-4 h 1.3229539 c 0.7328901,0 1.322954,0.5895612 1.322954,1.3224248 V 18.785909 c 0,0.73289 -0.5900639,1.322954 -1.322954,1.322954 H 2.9104987 2.6459079 0.529182 v 4.233452 h 2.3813167 v -5.29e-4 H 41.805345 V 1.5875079 L 2.9104987,1.5880247 V 1.5875079 Z M 9.2606776,4.7631266 H 33.073849 c 0.73289,0 1.322954,0.5895612 1.322954,1.3224248 V 18.785909 c 0,0.73289 -0.590064,1.322954 -1.322954,1.322954 H 9.2606776 c -0.73289,0 -1.3229539,-0.590064 -1.3229539,-1.322954 V 6.0855514 c 0,-0.7328901 0.5900639,-1.3224248 1.3229539,-1.3224248 z m 29.1049874,0 h 3.43968 V 20.109392 h -3.43968 c -0.73289,0 -1.322954,-0.590064 -1.322954,-1.322954 V 6.0860806 c 0,-0.7328901 0.590064,-1.322954 1.322954,-1.322954 z"
     fill="#f37e40"
     opacity="0.28"
     id="path4-6"
     style="stroke-width:0.264591" />
</svg>
