<?xml version="1.0" encoding="UTF-8" standalone="no"?>
<svg
   width="326"
   height="94"
   version="1.1"
   viewBox="0 0 86.255 24.871"
   id="svg12"
   sodipodi:docname="workspaces-primary-display-panel-right.svg"
   inkscape:version="1.1.1 (3bf5ae0d25, 2021-09-20)"
   xmlns:inkscape="http://www.inkscape.org/namespaces/inkscape"
   xmlns:sodipodi="http://sodipodi.sourceforge.net/DTD/sodipodi-0.dtd"
   xmlns="http://www.w3.org/2000/svg"
   xmlns:svg="http://www.w3.org/2000/svg">
  <defs
     id="defs16" />
  <sodipodi:namedview
     id="namedview14"
     pagecolor="#ffffff"
     bordercolor="#666666"
     borderopacity="1.0"
     inkscape:pageshadow="2"
     inkscape:pageopacity="0.0"
     inkscape:pagecheckerboard="0"
     showgrid="false"
     inkscape:zoom="1.6641105"
     inkscape:cx="75.115206"
     inkscape:cy="47.773271"
     inkscape:window-width="1298"
     inkscape:window-height="704"
     inkscape:window-x="68"
     inkscape:window-y="27"
     inkscape:window-maximized="1"
     inkscape:current-layer="svg12" />
  <g
     fill="#f37e40"
     id="g8">
    <path
       d="m43.922 0v24.871h42.332v-24.871zm0.52734 0.5293h41.275v23.813h-41.275z"
       color="#000000"
       style="-inkscape-stroke:none"
       id="path2" />
    <path
       d="m44.318 0.3971v24.077h41.54v-24.077zm5.1599 1.9849h30.692c0.7329 0 1.3229 0.59005 1.3229 1.3229v16.933c0 0.7329-0.59005 1.3229-1.3229 1.3229h-30.692c-0.7329 0-1.3229-0.59005-1.3229-1.3229v-16.933c0-0.7329 0.59005-1.3229 1.3229-1.3229z"
       opacity=".287"
       stroke-width=".26459"
       style="paint-order:normal"
       id="path4" />
  </g>
  <path
     d="M 42.334127,-3.6809816e-5 V 24.873038 H 0 V -3.6809816e-5 H 39.688119 Z M 41.804945,1.5874682 H 0.528822 V 24.342536 h 41.276123 v -6.61482 h -1.587504 c -0.293161,0 -0.529182,-0.23601 -0.529182,-0.529181 V 7.1445046 c 0,-0.2931708 0.236021,-0.5291816 0.529182,-0.5291816 h 1.587504 z m -0.423241,5.5564164 h -0.741062 c -0.234541,0 -0.423241,0.1887006 -0.423241,0.4232413 v 0.7410622 c 0,0.2345407 0.18871,0.4232413 0.423241,0.4232413 h 0.741062 c 0.234541,0 0.423241,-0.1887006 0.423241,-0.4232413 V 7.5671259 c 0,-0.2345407 -0.1887,-0.4232413 -0.423241,-0.4232413 z m 0,2.1167064 h -0.741062 c -0.234541,0 -0.423241,0.1887005 -0.423241,0.4232413 v 0.7410617 c 0,0.234541 0.18871,0.423242 0.423241,0.423242 h 0.741062 c 0.234541,0 0.423241,-0.188701 0.423241,-0.423242 V 9.6838323 c 0,-0.2345408 -0.1887,-0.4232413 -0.423241,-0.4232413 z m 0,2.116706 h -0.741062 c -0.234541,0 -0.423241,0.188711 -0.423241,0.423242 v 0.741062 c 0,0.234541 0.18871,0.423241 0.423241,0.423241 h 0.741062 c 0.234541,0 0.423241,-0.1887 0.423241,-0.423241 v -0.741062 c 0,-0.234541 -0.1887,-0.423242 -0.423241,-0.423242 z m 0,2.116707 h -0.741062 c -0.234541,0 -0.423241,0.18871 -0.423241,0.423241 v 0.741062 c 0,0.234541 0.18871,0.423241 0.423241,0.423241 h 0.741062 c 0.234541,0 0.423241,-0.1887 0.423241,-0.423241 v -0.741062 c 0,-0.234541 -0.1887,-0.423241 -0.423241,-0.423241 z m 0,2.116706 h -0.741062 c -0.234541,0 -0.423241,0.188711 -0.423241,0.423241 v 0.741062 c 0,0.234541 0.18871,0.423242 0.423241,0.423242 h 0.741062 c 0.234541,0 0.423241,-0.188701 0.423241,-0.423242 v -0.741062 c 0,-0.23454 -0.1887,-0.423241 -0.423241,-0.423241 z"
     fill="#f37e40"
     stroke-width="0.264591"
     id="path2-3" />
  <path
     d="m 41.805125,1.5874682 v 3.1751093 h -2.116706 v 5.167e-4 h -1.323004 c -0.732892,0 -1.323004,0.5895618 -1.323004,1.322404 V 18.785537 c 0,0.732892 0.590062,1.323003 1.323004,1.323003 h 3.43971 v 4.233413 h -2.381307 v -5.17e-4 H 0.528702 V 1.5873672 l 38.895116,5.17e-4 v -5.17e-4 z M 33.073599,4.7630775 H 9.260528 c -0.732892,0 -1.323004,0.5895618 -1.323004,1.322404 V 18.78552 c 0,0.732892 0.590062,1.323003 1.323004,1.323003 h 23.813071 c 0.732892,0 1.323004,-0.590061 1.323004,-1.323003 V 6.0854815 c 0,-0.7328922 -0.590062,-1.322404 -1.323004,-1.322404 z m -29.105087,0 H 0.528802 V 20.109123 h 3.43971 c 0.732892,0 1.323004,-0.590061 1.323004,-1.323003 V 6.0860815 c 0,-0.7328922 -0.590062,-1.323004 -1.323004,-1.323004 z"
     fill="#f37e40"
     opacity="0.28"
     stroke-width="0.264591"
     id="path4-6" />
</svg>
