<svg width="326" height="94" viewBox="0 0 86.255 24.871" xmlns="http://www.w3.org/2000/svg"><g fill="#f37e40"><path d="M43.922 0v24.871h42.332V0zm.527.53h41.275v23.812H44.45z" color="#000" style="-inkscape-stroke:none"/><path d="M44.318.397v4.366h3.308c.733 0 1.323.59 1.323 1.323v12.701a1.32 1.32 0 0 1-1.323 1.323h-3.308v4.364h41.54V.397zm8.6 4.366h23.814c.733 0 1.323.59 1.323 1.323v12.701a1.32 1.32 0 0 1-1.323 1.323H52.919a1.32 1.32 0 0 1-1.323-1.323v-12.7c0-.734.59-1.324 1.323-1.324zm29.105 0h3.44V20.11h-3.44a1.32 1.32 0 0 1-1.323-1.323v-12.7c0-.734.59-1.324 1.323-1.324z" opacity=".287" style="paint-order:normal"/></g><path d="M0 0v24.873h42.335V0H2.645zm.53 1.588h41.275v22.754H.53v-6.614h1.588c.293 0 .529-.236.529-.53V7.144a.528.528 0 0 0-.53-.53H.53zm.422 5.556h.741c.235 0 .424.189.424.423v.741a.422.422 0 0 1-.424.423h-.74a.422.422 0 0 1-.424-.423v-.74c0-.235.189-.424.423-.424zm0 2.117h.741c.235 0 .424.188.424.423v.74a.422.422 0 0 1-.424.424h-.74a.422.422 0 0 1-.424-.423v-.741c0-.235.189-.423.423-.423zm0 2.116h.741c.235 0 .424.19.424.424v.74a.422.422 0 0 1-.424.424h-.74a.422.422 0 0 1-.424-.423V11.8c0-.235.189-.424.423-.424zm0 2.117h.741c.235 0 .424.189.424.423v.741a.422.422 0 0 1-.424.424h-.74a.422.422 0 0 1-.424-.424v-.74c0-.235.189-.424.423-.424zm0 2.117h.741c.235 0 .424.189.424.423v.741a.422.422 0 0 1-.424.423h-.74a.422.422 0 0 1-.424-.423v-.74c0-.235.189-.424.423-.424z" fill="#f37e40" style="stroke-width:.264591"/><path d="M.53 1.588v3.175h3.439c.733 0 1.323.59 1.323 1.323v12.7a1.32 1.32 0 0 1-1.323 1.323H.529v4.233h41.276V1.588H2.91zm8.73 3.175h23.814c.733 0 1.323.59 1.323 1.323v12.7a1.32 1.32 0 0 1-1.323 1.323H9.26a1.32 1.32 0 0 1-1.323-1.323v-12.7c0-.733.59-1.323 1.323-1.323zm29.106 0h3.44V20.11h-3.44a1.32 1.32 0 0 1-1.323-1.323v-12.7c0-.733.59-1.323 1.323-1.323z" fill="#f37e40" opacity=".28" style="stroke-width:.264591"/></svg>