<svg width="326" height="94" viewBox="0 0 86.255 24.871" xmlns="http://www.w3.org/2000/svg"><g fill="#f37e40"><path d="M43.922 0v24.871h42.332V0zm.527.53h41.275v23.812H44.45z" color="#000" style="-inkscape-stroke:none"/><path d="M44.318.397v24.077h41.54V.397zm5.16 1.985H80.17c.733 0 1.323.59 1.323 1.323v16.933a1.32 1.32 0 0 1-1.323 1.323H49.478a1.32 1.32 0 0 1-1.323-1.323V3.705c0-.733.59-1.323 1.323-1.323z" opacity=".287" style="paint-order:normal"/></g><path d="M0 0V24.873h42.335V0H0zm.53 1.588H41.805v22.755H26.723v-1.599a.527.527 0 0 0-.528-.518H16.14a.528.528 0 0 0-.53.529v1.587H.529V1.588zm16.035 21.167h.74c.235 0 .424.189.424.423v.741a.422.422 0 0 1-.423.423h-.741a.423.423 0 0 1-.424-.423v-.741c0-.235.19-.423.424-.423zm2.116 0h.741c.235 0 .424.189.424.423v.741a.422.422 0 0 1-.424.423h-.74a.422.422 0 0 1-.424-.423v-.741c0-.235.189-.423.423-.423zm2.117 0h.741c.235 0 .423.189.423.423v.741a.422.422 0 0 1-.423.423h-.74a.422.422 0 0 1-.424-.423v-.741c0-.235.189-.423.423-.423zm2.117 0h.741c.234 0 .423.189.423.423v.741a.422.422 0 0 1-.423.423h-.741a.422.422 0 0 1-.423-.423v-.741c0-.235.188-.423.423-.423zm2.117 0h.74c.235 0 .424.189.424.423v.741a.422.422 0 0 1-.423.423h-.741a.422.422 0 0 1-.424-.423v-.741c0-.235.19-.423.424-.423z" fill="#f37e40" style="stroke-width:.264591"/><path d="M.53 1.588v3.175h3.439c.733 0 1.323.59 1.323 1.323v12.7A1.32 1.32 0 0 1 3.97 20.11H.53v4.234H15.61v-1.588c0-.293.237-.53.53-.53h10.055c.29 0 .523.231.528.52v1.597h15.082V20.11h-3.44a1.32 1.32 0 0 1-1.322-1.323v-12.7c0-.734.59-1.324 1.323-1.324h3.44V1.588H.53zM9.26 4.763h23.814c.733 0 1.323.59 1.323 1.323v12.7a1.32 1.32 0 0 1-1.323 1.323H9.26a1.32 1.32 0 0 1-1.323-1.323v-12.7c0-.733.59-1.323 1.323-1.323zm16.934 18.393v.785l.001-.022v-.74l-.001-.023z" fill="#f37e40" opacity=".287" style="stroke-width:.264591"/></svg>