<?xml version="1.0" encoding="UTF-8" standalone="no"?>
<svg
   width="326"
   height="94"
   version="1.1"
   viewBox="0 0 86.255 24.871"
   id="svg12"
   sodipodi:docname="workspaces-primary-display-panel-bottom.svg"
   inkscape:version="1.1.1 (3bf5ae0d25, 2021-09-20)"
   xmlns:inkscape="http://www.inkscape.org/namespaces/inkscape"
   xmlns:sodipodi="http://sodipodi.sourceforge.net/DTD/sodipodi-0.dtd"
   xmlns="http://www.w3.org/2000/svg"
   xmlns:svg="http://www.w3.org/2000/svg">
  <defs
     id="defs16" />
  <sodipodi:namedview
     id="namedview14"
     pagecolor="#ffffff"
     bordercolor="#666666"
     borderopacity="1.0"
     inkscape:pageshadow="2"
     inkscape:pageopacity="0.0"
     inkscape:pagecheckerboard="0"
     showgrid="false"
     inkscape:zoom="2.3534075"
     inkscape:cx="68.411442"
     inkscape:cy="46.953194"
     inkscape:window-width="1298"
     inkscape:window-height="704"
     inkscape:window-x="68"
     inkscape:window-y="27"
     inkscape:window-maximized="1"
     inkscape:current-layer="svg12" />
  <g
     fill="#f37e40"
     id="g8">
    <path
       d="m43.922 0v24.871h42.332v-24.871zm0.52734 0.5293h41.275v23.813h-41.275z"
       color="#000000"
       style="-inkscape-stroke:none"
       id="path2" />
    <path
       d="m44.318 0.3971v24.077h41.54v-24.077zm5.1599 1.9849h30.692c0.7329 0 1.3229 0.59005 1.3229 1.3229v16.933c0 0.7329-0.59005 1.3229-1.3229 1.3229h-30.692c-0.7329 0-1.3229-0.59005-1.3229-1.3229v-16.933c0-0.7329 0.59005-1.3229 1.3229-1.3229z"
       opacity=".287"
       stroke-width=".26459"
       style="paint-order:normal"
       id="path4" />
  </g>
  <path
     d="M 0,-1.0309816e-5 V 1.5875344 24.342343 v 0.529181 0.0016 H 42.334527 V -3.6809816e-5 H 2.645908 0 Z M 0.529182,1.5875344 H 5.556407 41.805346 V 24.342872 H 26.723671 v -1.598393 c -0.0056,-0.288245 -0.238515,-0.518836 -0.528151,-0.518836 H 16.140541 c -0.293166,0 -0.529181,0.23601 -0.529181,0.529181 v 1.587545 h -5.3e-4 v 5.29e-4 H 0.528639 V 24.342369 1.5875609 Z M 16.564707,22.754798 h 0.741066 c 0.234543,0 0.423239,0.188703 0.423239,0.423239 v 0.741066 c 0,0.234544 -0.188701,0.42324 -0.423239,0.42324 h -0.741066 c -0.234547,0 -0.423769,-0.188706 -0.423769,-0.42324 v -0.741066 c 0,-0.234546 0.18922,-0.423239 0.423769,-0.423239 z m 2.116726,0 h 0.741066 c 0.234544,0 0.423239,0.188703 0.423239,0.423239 v 0.741066 c 0,0.234544 -0.188701,0.42324 -0.423239,0.42324 h -0.741066 c -0.234546,0 -0.423239,-0.188706 -0.423239,-0.42324 v -0.741066 c 0,-0.234546 0.1887,-0.423239 0.423239,-0.423239 z m 2.116726,0 h 0.741066 c 0.234541,0 0.42324,0.188703 0.42324,0.423239 v 0.741066 c 0,0.234544 -0.188701,0.42324 -0.42324,0.42324 h -0.741066 c -0.234544,0 -0.423239,-0.188706 -0.423239,-0.42324 v -0.741066 c 0,-0.234546 0.188703,-0.423239 0.423239,-0.423239 z m 2.116727,0 h 0.741066 c 0.234543,0 0.423239,0.188703 0.423239,0.423239 v 0.741066 c 0,0.234544 -0.188701,0.42324 -0.423239,0.42324 h -0.741066 c -0.234542,0 -0.42324,-0.188706 -0.42324,-0.42324 v -0.741066 c 0,-0.234546 0.188706,-0.423239 0.42324,-0.423239 z m 2.116726,0 h 0.741066 c 0.234546,0 0.423239,0.188703 0.423239,0.423239 v 0.741066 c 0,0.234544 -0.188701,0.42324 -0.423239,0.42324 h -0.741066 c -0.234541,0 -0.423239,-0.188706 -0.423239,-0.42324 v -0.741066 c 0,-0.234546 0.188706,-0.423239 0.423239,-0.423239 z"
     fill="#f37e40"
     id="path2-3"
     style="stroke-width:0.264591" />
  <path
     d="m 0.529699,1.5875344 v 3.1750895 h 2.116726 v 5.292e-4 h 1.322954 c 0.732916,0 1.322954,0.5895612 1.322954,1.3224248 V 18.786465 c 0,0.732917 -0.590038,1.322954 -1.322954,1.322954 H 2.911016 2.646425 0.529699 v 4.233453 h 2.381317 v -5.29e-4 h 12.700358 5.29e-4 v -1.587545 c 0,-0.293167 0.23601,-0.529182 0.529181,-0.529182 h 10.05498 c 0.289621,0 0.52254,0.230604 0.528149,0.518836 v 1.597891 h 15.082204 v -4.232395 h -3.43968 c -0.732916,0 -1.322954,-0.590037 -1.322954,-1.322954 V 6.0861071 c 0,-0.7329165 0.590038,-1.322954 1.322954,-1.322954 h 3.43968 V 1.5875344 L 2.911559,1.5880512 V 1.5875344 H 0.530242 Z m 8.731496,3.1756187 h 23.8137 c 0.732916,0 1.322954,0.5895612 1.322954,1.3224248 V 18.786465 c 0,0.732917 -0.590038,1.322954 -1.322954,1.322954 h -23.8137 c -0.732917,0 -1.322954,-0.590037 -1.322954,-1.322954 V 6.0855779 c 0,-0.7329165 0.590037,-1.3224248 1.322954,-1.3224248 z m 16.93381,18.3932939 v 0.784459 c 3.18e-4,-0.0072 0.001,-0.01441 0.001,-0.02171 V 23.17813 c 0,-0.0073 -6.61e-4,-0.01451 -0.001,-0.0217 z"
     fill="#f37e40"
     opacity="0.287"
     id="path4-6"
     style="stroke-width:0.264591" />
</svg>
