<?xml version="1.0" encoding="UTF-8" standalone="no"?>
<svg
   width="326"
   height="94"
   version="1.1"
   viewBox="0 0 86.255 24.871"
   id="svg12"
   sodipodi:docname="workspaces-span-displays-dock-right.svg"
   inkscape:version="1.1.1 (3bf5ae0d25, 2021-09-20)"
   xmlns:inkscape="http://www.inkscape.org/namespaces/inkscape"
   xmlns:sodipodi="http://sodipodi.sourceforge.net/DTD/sodipodi-0.dtd"
   xmlns="http://www.w3.org/2000/svg"
   xmlns:svg="http://www.w3.org/2000/svg">
  <defs
     id="defs16" />
  <sodipodi:namedview
     id="namedview14"
     pagecolor="#ffffff"
     bordercolor="#666666"
     borderopacity="1.0"
     inkscape:pageshadow="2"
     inkscape:pageopacity="0.0"
     inkscape:pagecheckerboard="0"
     showgrid="false"
     inkscape:zoom="1.6641104"
     inkscape:cx="162.84977"
     inkscape:cy="47.172351"
     inkscape:window-width="1298"
     inkscape:window-height="704"
     inkscape:window-x="68"
     inkscape:window-y="27"
     inkscape:window-maximized="1"
     inkscape:current-layer="svg12" />
  <g
     fill="#f37e40"
     id="g8">
    <path
       d="m43.922 0v24.871h42.332v-24.871zm0.52734 0.5293h41.275v23.813h-41.275z"
       color="#000000"
       style="-inkscape-stroke:none"
       id="path2" />
    <path
       d="m44.318 0.3971v4.3662h3.3084c0.73292 0 1.3229 0.59002 1.3229 1.3229v12.701c0 0.73291-0.59001 1.3229-1.3229 1.3229h-3.3084v4.3641h41.54v-24.077zm8.6006 4.3662h23.813c0.73291 0 1.3229 0.59002 1.3229 1.3229v12.701c0 0.73291-0.59002 1.3229-1.3229 1.3229h-23.813c-0.73292 0-1.3229-0.59002-1.3229-1.3229v-12.701c0-0.73291 0.59001-1.3229 1.3229-1.3229zm29.104 0h3.4401v15.346h-3.4401c-0.73292 0-1.3229-0.59002-1.3229-1.3229v-12.701c0-0.73291 0.59001-1.3229 1.3229-1.3229z"
       opacity=".287"
       stroke-width=".26459"
       style="paint-order:normal"
       id="path4" />
  </g>
  <path
     d="M 42.334127,-3.6809816e-5 V 24.873038 H 0 V -3.6809816e-5 H 39.688119 Z M 41.804945,1.5874682 H 0.528822 V 24.342536 h 41.276123 v -6.61482 h -1.587504 c -0.293161,0 -0.529182,-0.23601 -0.529182,-0.529181 V 7.1445052 c 0,-0.293171 0.236021,-0.529182 0.529182,-0.529182 h 1.587504 z m -0.423241,5.556417 h -0.741062 c -0.234541,0 -0.423241,0.1887 -0.423241,0.423241 v 0.741062 c 0,0.234541 0.18871,0.423241 0.423241,0.423241 h 0.741062 c 0.234541,0 0.423241,-0.1887 0.423241,-0.423241 v -0.741062 c 0,-0.234541 -0.1887,-0.423241 -0.423241,-0.423241 z m 0,2.116706 h -0.741062 c -0.234541,0 -0.423241,0.1887 -0.423241,0.423241 v 0.7410618 c 0,0.234541 0.18871,0.423242 0.423241,0.423242 h 0.741062 c 0.234541,0 0.423241,-0.188701 0.423241,-0.423242 V 9.6838322 c 0,-0.23454 -0.1887,-0.423241 -0.423241,-0.423241 z m 0,2.1167058 h -0.741062 c -0.234541,0 -0.423241,0.188711 -0.423241,0.423242 v 0.741062 c 0,0.234541 0.18871,0.423241 0.423241,0.423241 h 0.741062 c 0.234541,0 0.423241,-0.1887 0.423241,-0.423241 v -0.741062 c 0,-0.234541 -0.1887,-0.423242 -0.423241,-0.423242 z m 0,2.116707 h -0.741062 c -0.234541,0 -0.423241,0.18871 -0.423241,0.423241 v 0.741062 c 0,0.234541 0.18871,0.423241 0.423241,0.423241 h 0.741062 c 0.234541,0 0.423241,-0.1887 0.423241,-0.423241 v -0.741062 c 0,-0.234541 -0.1887,-0.423241 -0.423241,-0.423241 z m 0,2.116706 h -0.741062 c -0.234541,0 -0.423241,0.188711 -0.423241,0.423241 v 0.741062 c 0,0.234541 0.18871,0.423242 0.423241,0.423242 h 0.741062 c 0.234541,0 0.423241,-0.188701 0.423241,-0.423242 v -0.741062 c 0,-0.23454 -0.1887,-0.423241 -0.423241,-0.423241 z"
     fill="#f37e40"
     stroke-width="0.264591"
     id="path2-3" />
  <path
     d="m 41.805125,1.5874682 v 3.17511 h -2.116706 v 5.16e-4 h -1.323004 c -0.732892,0 -1.323004,0.589562 -1.323004,1.322404 V 18.785537 c 0,0.732892 0.590062,1.323003 1.323004,1.323003 h 3.43971 v 4.233413 h -2.381307 v -5.17e-4 H 0.528702 V 1.5873672 l 38.895116,5.17e-4 v -5.17e-4 z m -8.731526,3.17561 H 9.260528 c -0.732892,0 -1.323004,0.589561 -1.323004,1.322404 V 18.78552 c 0,0.732892 0.590062,1.323003 1.323004,1.323003 h 23.813071 c 0.732892,0 1.323004,-0.590061 1.323004,-1.323003 V 6.0854822 c 0,-0.732893 -0.590062,-1.322404 -1.323004,-1.322404 z m -29.105087,0 H 0.528802 V 20.109123 h 3.43971 c 0.732892,0 1.323004,-0.590061 1.323004,-1.323003 V 6.0860812 c 0,-0.732892 -0.590062,-1.323003 -1.323004,-1.323003 z"
     fill="#f37e40"
     opacity="0.28"
     stroke-width="0.264591"
     id="path4-6" />
</svg>
