<?xml version="1.0" encoding="UTF-8" standalone="no"?>
<svg
   width="326"
   height="94"
   version="1.1"
   viewBox="0 0 86.255 24.871"
   id="svg12"
   sodipodi:docname="workspaces-primary-display-right.svg"
   inkscape:version="1.1.1 (3bf5ae0d25, 2021-09-20)"
   xmlns:inkscape="http://www.inkscape.org/namespaces/inkscape"
   xmlns:sodipodi="http://sodipodi.sourceforge.net/DTD/sodipodi-0.dtd"
   xmlns="http://www.w3.org/2000/svg"
   xmlns:svg="http://www.w3.org/2000/svg">
  <defs
     id="defs16" />
  <sodipodi:namedview
     id="namedview14"
     pagecolor="#ffffff"
     bordercolor="#666666"
     borderopacity="1.0"
     inkscape:pageshadow="2"
     inkscape:pageopacity="0.0"
     inkscape:pagecheckerboard="0"
     showgrid="false"
     inkscape:zoom="3.3282209"
     inkscape:cx="75.115207"
     inkscape:cy="47.322581"
     inkscape:window-width="1298"
     inkscape:window-height="704"
     inkscape:window-x="68"
     inkscape:window-y="27"
     inkscape:window-maximized="1"
     inkscape:current-layer="svg12" />
  <g
     fill="#f37e40"
     id="g8">
    <path
       d="m43.922 0v24.871h42.332v-24.871zm0.52734 0.5293h41.275v23.813h-41.275z"
       color="#000000"
       style="-inkscape-stroke:none"
       id="path2" />
    <path
       d="m44.318 0.3971v24.077h41.54v-24.077zm5.1599 1.9849h30.692c0.7329 0 1.3229 0.59005 1.3229 1.3229v16.933c0 0.7329-0.59005 1.3229-1.3229 1.3229h-30.692c-0.7329 0-1.3229-0.59005-1.3229-1.3229v-16.933c0-0.7329 0.59005-1.3229 1.3229-1.3229z"
       opacity=".287"
       stroke-width=".26459"
       style="paint-order:normal"
       id="path4" />
    <path
       d="m 39.715,1.5875 v 3.175 h -1.3229 c -0.73288,0 -1.3229,0.59003 -1.3229,1.3229 v 12.7 c 0,0.73288 0.59003,1.3229 1.3229,1.3229 h 1.3229 v 4.2329 H 0.556 V 1.5872 Z m -6.6146,3.175 H 9.2874 c -0.73288,0 -1.3229,0.59003 -1.3229,1.3229 v 12.7 c 0,0.73288 0.59003,1.3229 1.3229,1.3229 h 23.813 c 0.73288,0 1.3229,-0.59003 1.3229,-1.3229 v -12.7 c 0,-0.73288 -0.59003,-1.3229 -1.3229,-1.3229 z m -29.104,0 H 0.5568 v 15.346 h 3.4396 c 0.73288,0 1.3229,-0.59003 1.3229,-1.3229 v -12.7 c 0,-0.73288 -0.59003,-1.3229 -1.3229,-1.3229 z"
       opacity="0.287"
       stroke-width="0.26459"
       id="path6" />
  </g>
  <path
     d="M 42.3344,-3.681e-5 V 24.871952 H 39.6885 0 V -3.681e-5 H 39.6885 Z M 41.381982,1.5875032 h -0.741064 c -0.234532,0 -0.423238,0.1887082 -0.423238,0.4232382 V 2.751805 c 0,0.2345326 0.188708,0.4232382 0.423238,0.4232382 h 0.741064 c 0.234532,0 0.423238,-0.1887056 0.423238,-0.4232382 V 2.0107414 c 0,-0.2345326 -0.188708,-0.4232382 -0.423238,-0.4232382 z m -1.693482,0 H 0.52918 V 24.342772 H 39.6885 Z m 1.693482,2.11672 h -0.741064 c -0.234532,0 -0.423238,0.1887056 -0.423238,0.4232382 V 4.868525 c 0,0.2345326 0.188708,0.4232382 0.423238,0.4232382 h 0.741064 c 0.234532,0 0.423238,-0.1887056 0.423238,-0.4232382 V 4.1274614 c 0,-0.2345326 -0.188708,-0.4232382 -0.423238,-0.4232382 z m 0,2.11672 h -0.741064 c -0.234532,0 -0.423238,0.1887056 -0.423238,0.4232382 V 6.985245 c 0,0.2345326 0.188708,0.4232382 0.423238,0.4232382 h 0.741064 c 0.234532,0 0.423238,-0.1887056 0.423238,-0.4232382 V 6.2441814 c 0,-0.2345326 -0.188708,-0.4232382 -0.423238,-0.4232382 z m 0,2.11672 h -0.741064 c -0.234532,0 -0.423238,0.1887056 -0.423238,0.4232382 V 9.101965 c 0,0.2345326 0.188708,0.4232382 0.423238,0.4232382 h 0.741064 c 0.234532,0 0.423238,-0.1887056 0.423238,-0.4232382 V 8.3609014 c 0,-0.2345326 -0.188708,-0.4232382 -0.423238,-0.4232382 z m 0,14.0232698 h -0.741064 c -0.234532,0 -0.423238,0.188706 -0.423238,0.423238 v 0.741064 c 0,0.234533 0.188708,0.423238 0.423238,0.423238 h 0.741064 c 0.234532,0 0.423238,-0.188705 0.423238,-0.423238 v -0.741064 c 0,-0.234532 -0.188708,-0.423238 -0.423238,-0.423238 z"
     fill="#f37e40"
     id="path10"
     style="stroke-width:0.26459" />
</svg>
