<?xml version="1.0" encoding="UTF-8" standalone="no"?>
<svg
   width="326"
   height="94"
   version="1.1"
   viewBox="0 0 86.255 24.871"
   id="svg12"
   sodipodi:docname="workspaces-span-displays-bottom.svg"
   inkscape:version="1.1.1 (3bf5ae0d25, 2021-09-20)"
   xmlns:inkscape="http://www.inkscape.org/namespaces/inkscape"
   xmlns:sodipodi="http://sodipodi.sourceforge.net/DTD/sodipodi-0.dtd"
   xmlns="http://www.w3.org/2000/svg"
   xmlns:svg="http://www.w3.org/2000/svg">
  <defs
     id="defs16" />
  <sodipodi:namedview
     id="namedview14"
     pagecolor="#ffffff"
     bordercolor="#666666"
     borderopacity="1.0"
     inkscape:pageshadow="2"
     inkscape:pageopacity="0.0"
     inkscape:pagecheckerboard="0"
     showgrid="false"
     inkscape:zoom="1.6641104"
     inkscape:cx="162.84977"
     inkscape:cy="47.17235"
     inkscape:window-width="1298"
     inkscape:window-height="704"
     inkscape:window-x="68"
     inkscape:window-y="27"
     inkscape:window-maximized="1"
     inkscape:current-layer="svg12" />
  <g
     fill="#f37e40"
     id="g8">
    <path
       d="m43.922 0v24.871h42.332v-24.871zm0.52734 0.5293h41.275v23.813h-41.275z"
       color="#000000"
       style="-inkscape-stroke:none"
       id="path2" />
    <path
       d="m44.318 0.3971v4.3662h3.3084c0.73292 0 1.3229 0.59002 1.3229 1.3229v12.701c0 0.73291-0.59001 1.3229-1.3229 1.3229h-3.3084v4.3641h41.54v-24.077zm8.6006 4.3662h23.813c0.73291 0 1.3229 0.59002 1.3229 1.3229v12.701c0 0.73291-0.59002 1.3229-1.3229 1.3229h-23.813c-0.73292 0-1.3229-0.59002-1.3229-1.3229v-12.701c0-0.73291 0.59001-1.3229 1.3229-1.3229zm29.104 0h3.4401v15.346h-3.4401c-0.73292 0-1.3229-0.59002-1.3229-1.3229v-12.701c0-0.73291 0.59001-1.3229 1.3229-1.3229z"
       opacity=".287"
       stroke-width=".26459"
       style="paint-order:normal"
       id="path4" />
  </g>
  <path
     d="M 0,-1.1909816e-5 V 1.5875328 22.225614 v 2.116726 0.529182 0.001 H 42.334526 V -3.6809816e-5 H 2.645908 0 Z M 0.529182,1.5875328 H 0.952421 1.693487 2.645908 41.805345 V 22.225614 H 41.803245 38.100562 37.834939 19.843823 19.579233 1.057877 0.528696 V 1.5875328 Z M 1.481603,22.754796 h 0.741065 c 0.234544,0 0.42324,0.188708 0.42324,0.423239 v 0.741066 c 0,0.234546 -0.188706,0.423239 -0.42324,0.423239 H 1.481603 c -0.234544,0 -0.42324,-0.188706 -0.42324,-0.423239 v -0.741066 c 0,-0.234547 0.188706,-0.423239 0.42324,-0.423239 z m 2.116726,0 h 0.741066 c 0.234544,0 0.423239,0.188708 0.423239,0.423239 v 0.741066 c 0,0.232771 -0.186002,0.419905 -0.41808,0.422737 H 3.593169 c -0.232072,-0.0028 -0.41808,-0.189966 -0.41808,-0.422737 v -0.741066 c 0,-0.234547 0.188707,-0.423239 0.42324,-0.423239 z m 2.116726,0 h 0.741066 c 0.234544,0 0.423239,0.188708 0.423239,0.423239 v 0.741066 c 0,0.232771 -0.186002,0.419905 -0.418079,0.422737 H 5.709896 c -0.232073,-0.0028 -0.41808,-0.189966 -0.41808,-0.422737 v -0.741066 c 0,-0.234547 0.188706,-0.423239 0.423239,-0.423239 z m 2.1167265,0 h 0.7410659 c 0.2345439,0 0.4232395,0.188708 0.4232395,0.423239 v 0.741066 c 0,0.232771 -0.1860127,0.419905 -0.4180799,0.422737 H 7.826622 c -0.232073,-0.0028 -0.41808,-0.189966 -0.41808,-0.422737 v -0.741066 c 0,-0.234547 0.188706,-0.423239 0.4232395,-0.423239 z m 32.0154855,0 h 0.741066 c 0.234547,0 0.423239,0.188708 0.423239,0.423239 v 0.741066 c 0,0.232771 -0.18601,0.419905 -0.418079,0.422737 h -0.751385 c -0.23207,-0.0028 -0.41808,-0.189966 -0.41808,-0.422737 v -0.741066 c 0,-0.234547 0.188698,-0.423239 0.423239,-0.423239 z"
     fill="#f37e40"
     id="path2-3"
     style="stroke-width:0.264591" />
  <path
     d="m 0.529182,1.5875328 v 3.1750895 l 3.43968,5.292e-4 c 0.73289,5.72e-5 1.322954,0.5895612 1.322954,1.3224248 V 18.785934 c 0,0.73289 -0.590064,1.322954 -1.322954,1.322954 h -3.43968 v 2.116726 h 0.529181 18.521355 0.264591 17.991116 0.265622 3.702684 0.0021 V 1.5875328 H 0.529667 Z M 9.2606776,4.7631515 H 33.074378 c 0.73289,0 1.322425,0.5895612 1.322425,1.3224248 V 18.785934 c 0,0.73289 -0.589561,1.322954 -1.322425,1.322954 H 9.2606776 c -0.73289,0 -1.3229539,-0.590064 -1.3229539,-1.322954 V 6.0855763 c 0,-0.7328901 0.5900639,-1.3224248 1.3229539,-1.3224248 z m 29.1049874,0 h 3.43968 V 20.109417 h -3.43968 c -0.73289,0 -1.322954,-0.590064 -1.322954,-1.322954 V 6.0861055 c 0,-0.7328901 0.590064,-1.322954 1.322954,-1.322954 z"
     fill="#f37e40"
     opacity="0.287"
     id="path4-6"
     style="stroke-width:0.264591" />
</svg>
