<svg width="326" height="94" viewBox="0 0 86.255 24.871" xmlns="http://www.w3.org/2000/svg"><g fill="#f37e40"><path d="M43.922 0v24.871h42.332V0zm.527.53h41.275v23.812H44.45z" color="#000" style="-inkscape-stroke:none"/><path d="M44.318.397v24.077h41.54V.397zm5.16 1.985H80.17c.733 0 1.323.59 1.323 1.323v16.933a1.32 1.32 0 0 1-1.323 1.323H49.478a1.32 1.32 0 0 1-1.323-1.323V3.705c0-.733.59-1.323 1.323-1.323z" opacity=".287" style="paint-order:normal"/></g><path d="M0 0V24.872h42.335V0H0zm.53 1.588H41.805v20.638H.527V1.588zm.952 21.167h.74c.235 0 .424.189.424.423v.741a.422.422 0 0 1-.423.423h-.741a.422.422 0 0 1-.424-.423v-.741c0-.235.19-.423.424-.423zm2.116 0h.741c.235 0 .424.189.424.423v.741c0 .233-.186.42-.418.423h-.752a.422.422 0 0 1-.418-.423v-.741c0-.235.189-.423.423-.423zm2.117 0h.741c.235 0 .423.189.423.423v.741c0 .233-.186.42-.418.423H5.71a.422.422 0 0 1-.418-.423v-.741c0-.235.189-.423.423-.423zm2.117 0h.74c.235 0 .424.189.424.423v.741c0 .233-.186.42-.418.423h-.751a.422.422 0 0 1-.418-.423v-.741c0-.235.188-.423.423-.423zm32.015 0h.741c.235 0 .424.189.424.423v.741c0 .233-.186.42-.419.423h-.75a.422.422 0 0 1-.419-.423v-.741c0-.235.189-.423.423-.423z" fill="#f37e40" style="stroke-width:.264591"/><path d="M.53 1.588v3.175h3.439c.733 0 1.323.59 1.323 1.323v12.7a1.32 1.32 0 0 1-1.323 1.323H.529v2.117h41.277V1.588H.53zm8.73 3.175h23.814c.733 0 1.323.59 1.323 1.323v12.7a1.32 1.32 0 0 1-1.323 1.323H9.261a1.32 1.32 0 0 1-1.323-1.323v-12.7c0-.733.59-1.323 1.323-1.323zm29.106 0h3.44V20.11h-3.44a1.32 1.32 0 0 1-1.323-1.323v-12.7c0-.733.59-1.323 1.323-1.323z" fill="#f37e40" opacity=".287" style="stroke-width:.264591"/></svg>