<svg width="326" height="94" viewBox="0 0 86.255 24.871" xmlns="http://www.w3.org/2000/svg"><g fill="#f37e40"><path d="M43.922 0v24.871h42.332V0zm.527.53h41.275v23.812H44.45z" color="#000" style="-inkscape-stroke:none"/><path d="M44.318.397v24.077h41.54V.397zm5.16 1.985H80.17c.733 0 1.323.59 1.323 1.323v16.933a1.32 1.32 0 0 1-1.323 1.323H49.478a1.32 1.32 0 0 1-1.323-1.323V3.705c0-.733.59-1.323 1.323-1.323z" opacity=".287" style="paint-order:normal"/><path d="M39.715 1.587v3.175h-1.323a1.32 1.32 0 0 0-1.323 1.323v12.7c0 .733.59 1.323 1.323 1.323h1.323v4.233H.556V1.587zM33.1 4.762H9.287a1.32 1.32 0 0 0-1.323 1.323v12.7c0 .733.59 1.323 1.323 1.323H33.1a1.32 1.32 0 0 0 1.323-1.323v-12.7A1.32 1.32 0 0 0 33.1 4.762zm-29.104 0H.556v15.346h3.44a1.32 1.32 0 0 0 1.323-1.322v-12.7a1.32 1.32 0 0 0-1.323-1.323z" opacity=".287"/></g><path d="M42.334 0v24.872H0V0h39.688zm-.952 1.588h-.741a.422.422 0 0 0-.423.423v.74c0 .235.188.424.423.424h.741a.422.422 0 0 0 .423-.423V2.01a.422.422 0 0 0-.423-.423zm-1.693 0H.529v22.755h39.16zm1.693 2.116h-.741a.422.422 0 0 0-.423.423v.742c0 .234.188.423.423.423h.741a.422.422 0 0 0 .423-.423v-.742a.422.422 0 0 0-.423-.423zm0 2.117h-.741a.422.422 0 0 0-.423.423v.741c0 .235.188.423.423.423h.741a.422.422 0 0 0 .423-.423v-.74a.422.422 0 0 0-.423-.424zm0 2.117h-.741a.422.422 0 0 0-.423.423v.741c0 .234.188.423.423.423h.741a.422.422 0 0 0 .423-.423v-.741a.422.422 0 0 0-.423-.423zm0 14.023h-.741a.422.422 0 0 0-.423.423v.741c0 .235.188.423.423.423h.741a.422.422 0 0 0 .423-.423v-.74a.422.422 0 0 0-.423-.424z" fill="#f37e40" style="stroke-width:.26459"/></svg>