<svg width="326" height="94" viewBox="0 0 86.255 24.871" xmlns="http://www.w3.org/2000/svg"><g fill="#f37e40"><path d="M43.922 0v24.871h42.332V0zm.527.53h41.275v23.812H44.45z" color="#000" style="-inkscape-stroke:none"/><path d="M44.318.397v24.077h41.54V.397zm5.16 1.985H80.17c.733 0 1.323.59 1.323 1.323v16.933a1.32 1.32 0 0 1-1.323 1.323H49.478a1.32 1.32 0 0 1-1.323-1.323V3.705c0-.733.59-1.323 1.323-1.323z" opacity=".287" style="paint-order:normal"/><path d="M2.62 1.587v3.175h1.322c.733 0 1.323.59 1.323 1.323v12.7a1.32 1.32 0 0 1-1.323 1.323H2.62v4.233h39.16V1.587zm6.614 3.175h23.813c.733 0 1.323.59 1.323 1.323v12.7a1.32 1.32 0 0 1-1.323 1.323H9.234a1.32 1.32 0 0 1-1.323-1.323v-12.7c0-.732.59-1.323 1.323-1.323zm29.104 0h3.44v15.346h-3.44a1.32 1.32 0 0 1-1.323-1.322v-12.7c0-.733.59-1.323 1.323-1.323z" opacity=".287"/></g><path d="M0 0v24.872h42.334V0H0zm.952 1.588h.741c.235 0 .424.188.424.423v.74a.422.422 0 0 1-.424.424h-.74a.422.422 0 0 1-.424-.423V2.01c0-.235.189-.423.423-.423zm1.694 0h39.16v22.755H2.645V1.588zM.952 3.704h.741c.235 0 .424.189.424.423v.742a.422.422 0 0 1-.424.423h-.74a.422.422 0 0 1-.424-.423v-.742c0-.234.189-.423.423-.423zm0 2.117h.741c.235 0 .424.189.424.423v.741a.422.422 0 0 1-.424.423h-.74a.422.422 0 0 1-.424-.423v-.74c0-.235.189-.424.423-.424zm0 2.117h.741c.235 0 .424.188.424.423v.741a.422.422 0 0 1-.424.423h-.74a.422.422 0 0 1-.424-.423v-.741c0-.235.189-.423.423-.423zm0 14.023h.741c.235 0 .424.189.424.423v.741a.422.422 0 0 1-.424.423h-.74a.422.422 0 0 1-.424-.423v-.74c0-.235.189-.424.423-.424z" fill="#f37e40"/></svg>