<svg width="160" height="94" viewBox="0 0 42.333 24.871" xmlns="http://www.w3.org/2000/svg"><defs><clipPath id="a"><path d="M316-4731h162v95H316z" fill="#3584e4" style="paint-order:normal"/></clipPath></defs><path d="M4.922 4.783a.131.131 0 0 0-.14.14l.605 7.891a.131.131 0 0 0 .224.082l2.03-2.03 3.193 3.198.094.094.185-.185-.091-.094-3.29-3.293a.131.131 0 0 0-.185 0l-1.92 1.922-.572-7.451 7.441.574-1.918 1.922a.131.131 0 0 0-.002.183l1.342 1.38.092.095.187-.184-.09-.095-1.252-1.286 2.03-2.033a.131.131 0 0 0-.082-.224z" color="#000" fill="#f37e40" style="-inkscape-stroke:none" stroke-dashoffset=".95" stroke-linecap="square" stroke-linejoin="round"/><path d="m14.561 10.289-.096.092h-.13v.525h.263v-.254l.162-.156zm.38.396-.189.182.364.379.191-.182zm-.607.483v.527h.264v-.527zm1.155.086-.19.181.364.381.189-.183zm.545.57-.19.182.365.379.19-.182zm-1.7.133v.525h.264v-.525zm2.247.436-.19.181.363.38.19-.183zm-2.247.353v.525h.264v-.525zm2.793.215-.189.182.363.38.19-.183zm.545.57-.19.182.366.379.19-.182zm-3.338.004v.525h.264v-.525zm3.885.565-.19.181.364.38.19-.183zm-3.885.224v.526h.264v-.526zm4.432.344-.191.182.244.253h-.346v.264H19v-.193l.13-.127zm-1.853.435.181.391.239-.111-.008-.016h.095v-.264zm.771 0v.264h.525v-.264zm-3.35.008v.528h.264v-.528zm3.11.51-.238.111.222.477.239-.111zm-1.535.22-.375.368.183.187.375-.367zm-1.575.06v.525h.264V15.9zm1.922.085-.236.117.232.471.237-.115zm1.522.35-.238.111.22.477.239-.112zm-2.432.056-.377.368.184.19.377-.37zm-1.011.297v.526h.17l-.1.097.183.188.377-.367-.183-.19-.184.18v-.434zm2.27.006-.237.116.23.472.237-.115zm1.505.356-.238.111.027.057.023.052.014.047.008.043.002.041-.004.04-.006.036-.012.036-.017.039.238.11.024-.054.021-.066.014-.068.006-.07-.004-.073-.014-.074-.023-.076-.03-.07zm-1.16.353-.237.115.137.28.03.054.039.055.046.047.051.04.028.017.134-.227-.013-.008-.024-.017-.021-.022-.018-.025-.017-.033zm.822.297-.004.002-.037.026-.041.023-.043.02-.045.019-.045.014-.045.011-.047.01-.045.004-.044.002h-.01l-.01.262.021.002.063-.002.064-.008.065-.012.062-.015.06-.022.063-.023.059-.03.057-.033.054-.035.01-.01z" color="#000" display="block" fill="#f37e40" style="-inkscape-stroke:none;fill:#f37e40;fill-opacity:1" stroke-dasharray="0.525771, 0.262885" stroke-miterlimit="10"/><path style="color:#000;display:inline;opacity:.249;fill:#f37e40;stroke-width:.26458;-inkscape-stroke:none;fill-opacity:1" d="M20.308 0v.016c0 4.583-1.516 8.808-4.074 12.206l.552.575A21.002 21.002 0 0 0 21.102.016V0zm-5.842 14.27A20.244 20.244 0 0 1 0 20.326v.793c5.6 0 10.687-2.188 14.466-5.75z"/><path style="color:#000;display:inline;opacity:.474;fill:#f37e40;stroke-width:.26458;-inkscape-stroke:none;fill-opacity:1" d="M12.3 0v.016c0 1.927-.443 3.749-1.231 5.372l.84.065A13.028 13.028 0 0 0 13.095.016V0zM5.385 11.078A12.26 12.26 0 0 1 0 12.317v.793c1.945 0 3.79-.428 5.45-1.19z"/><path style="color:#000;display:inline;opacity:.705;fill:#f37e40;stroke-width:.26458;-inkscape-stroke:none;fill-opacity:1" d="M6.708 0v.016c0 3.71-2.998 6.71-6.708 6.71v.793A7.51 7.51 0 0 0 7.503.016V0z"/><path style="color:#000;display:inline;fill:#f37e40;stroke-width:.26458;-inkscape-stroke:none;fill-opacity:1" d="M3.986 0v.016A3.981 3.981 0 0 1 0 4.003v.794A4.787 4.787 0 0 0 4.78.016V0z"/><path d="M0 0V24.873h42.334V0H0zm.529 1.588h41.276v22.755H26.723v-1.599a.527.527 0 0 0-.528-.518H16.14a.528.528 0 0 0-.529.529v1.587H.527V1.588zm16.035 21.167h.741c.235 0 .424.188.424.423v.741a.422.422 0 0 1-.424.423h-.74a.423.423 0 0 1-.424-.423v-.741c0-.235.189-.423.423-.423zm2.117 0h.741c.235 0 .423.188.423.423v.741a.422.422 0 0 1-.423.423h-.74a.422.422 0 0 1-.424-.423v-.741c0-.235.189-.423.423-.423zm2.117 0h.74c.235 0 .424.188.424.423v.741a.422.422 0 0 1-.423.423h-.741a.422.422 0 0 1-.423-.423v-.741c0-.235.188-.423.423-.423zm2.117 0h.74c.235 0 .424.188.424.423v.741a.422.422 0 0 1-.423.423h-.741a.422.422 0 0 1-.424-.423v-.741c0-.235.189-.423.424-.423zm2.116 0h.741c.235 0 .424.188.424.423v.741a.422.422 0 0 1-.424.423h-.74a.422.422 0 0 1-.424-.423v-.741c0-.235.189-.423.423-.423z" fill="#f37e40" style="stroke-width:.26459"/></svg>