<?xml version="1.0" encoding="UTF-8" standalone="no"?>
<svg
   width="160"
   height="94"
   version="1.1"
   viewBox="0 0 42.333 24.871"
   id="svg27"
   sodipodi:docname="hot-corner-dock-bottom.svg"
   inkscape:version="1.1.1 (3bf5ae0d25, 2021-09-20)"
   xmlns:inkscape="http://www.inkscape.org/namespaces/inkscape"
   xmlns:sodipodi="http://sodipodi.sourceforge.net/DTD/sodipodi-0.dtd"
   xmlns="http://www.w3.org/2000/svg"
   xmlns:svg="http://www.w3.org/2000/svg">
  <sodipodi:namedview
     id="namedview29"
     pagecolor="#ffffff"
     bordercolor="#666666"
     borderopacity="1.0"
     inkscape:pageshadow="2"
     inkscape:pageopacity="0.0"
     inkscape:pagecheckerboard="0"
     showgrid="false"
     inkscape:zoom="2.8297872"
     inkscape:cx="79.864663"
     inkscape:cy="47.176692"
     inkscape:window-width="1298"
     inkscape:window-height="704"
     inkscape:window-x="68"
     inkscape:window-y="27"
     inkscape:window-maximized="1"
     inkscape:current-layer="svg27" />
  <defs
     id="defs5">
    <clipPath
       id="a">
      <path
         d="m316-4731h162v95h-162z"
         fill="#3584e4"
         style="paint-order:normal"
         id="path2" />
    </clipPath>
  </defs>
  <g
     transform="matrix(.26458 0 0 .26458 -83.608 1251.7)"
     clip-path="url(#a)"
     fill="#f37e40"
     stroke-width=".99996"
     id="g15" />
  <g
     stroke-dashoffset=".95"
     stroke-linecap="square"
     stroke-linejoin="round"
     id="g19">
    <path
       d="m4.9219 4.7832a0.13146 0.13146 0 0 0-0.14062 0.14062l0.60547 7.8906a0.13146 0.13146 0 0 0 0.22461 0.08203l2.0293-2.0312 3.1934 3.1992 0.09375 0.09375 0.18555-0.18555-0.0918-0.09375-3.2891-3.293a0.13146 0.13146 0 0 0-0.18555 0l-1.9199 1.9219-0.57227-7.4512 7.4414 0.57422-1.918 1.9219a0.13146 0.13146 0 0 0-2e-3 0.18359l1.3418 1.3789 0.0918 0.095703 0.1875-0.18359-0.08984-0.095703-1.252-1.2852 2.0293-2.0332a0.13146 0.13146 0 0 0-0.08203-0.22461z"
       color="#000000"
       fill="#f37e40"
       style="-inkscape-stroke:none"
       id="path17" />
  </g>
  <g
     stroke-dasharray="0.525771, 0.262885"
     stroke-miterlimit="10"
     id="g23">
    <path
       d="m14.561 10.289-0.0957 0.0918h-0.13086v0.52539h0.26367v-0.25391l0.16211-0.15625zm0.38086 0.39648-0.18945 0.18164 0.36328 0.37891 0.19141-0.18164zm-0.60742 0.48242v0.52734h0.26367v-0.52734zm1.1543 0.08594-0.18945 0.18164 0.36328 0.38086 0.18945-0.18359zm0.54492 0.57031-0.18945 0.18164 0.36523 0.37891 0.18945-0.18164zm-1.6992 0.13281v0.52539h0.26367v-0.52539zm2.2461 0.43555-0.18945 0.18164 0.36328 0.37891 0.18945-0.18164zm-2.2461 0.35352v0.52539h0.26367v-0.52539zm2.793 0.21484-0.18945 0.18164 0.36328 0.38086 0.18945-0.18359zm0.54492 0.57031-0.18945 0.18164 0.36523 0.37891 0.18945-0.18164zm-3.3379 0.0039v0.52539h0.26367v-0.52539zm3.8848 0.56445-0.18945 0.18164 0.36328 0.37891 0.18945-0.18164zm-3.8848 0.22461v0.52539h0.26367v-0.52539zm4.4316 0.34375-0.19141 0.18164 0.24414 0.25391h-0.3457v0.26367h0.52539v-0.19336l0.13086-0.12695zm-1.8535 0.43555 0.18164 0.39062 0.23828-0.11133-0.0078-0.01563h0.0957v-0.26367zm0.77148 0v0.26367h0.52539v-0.26367zm-3.3496 0.0078v0.52734h0.26367v-0.52734zm3.1094 0.50977-0.23828 0.11133 0.22266 0.47656 0.23828-0.11133zm-1.5352 0.2207-0.375 0.36719 0.18359 0.1875 0.375-0.36719zm-1.5742 0.05859v0.52539h0.26367v-0.52539zm1.9219 0.08594-0.23633 0.11719 0.23242 0.4707 0.23633-0.11524zm1.5215 0.34961-0.23828 0.11133 0.2207 0.47656 0.23828-0.11133zm-2.4316 0.05664-0.37695 0.36719 0.18359 0.18945 0.37695-0.36914zm-1.0117 0.29688v0.52539h0.16992l-0.09961 0.09766 0.18359 0.1875 0.37695-0.36719-0.18359-0.18945-0.18359 0.17969v-0.43359zm2.2695 0.0059-0.23633 0.11524 0.23047 0.47266 0.23633-0.11523zm1.5059 0.35547-0.23828 0.11133 0.02734 0.05664 0.02344 0.05273 0.01367 0.04687 0.0078 0.04297 2e-3 0.04102-0.0039 0.03906-0.0059 0.03711-0.01172 0.03516-0.01758 0.03906 0.23828 0.10938 0.02344-0.05273 0.02148-0.06641 0.01367-0.06836 0.0059-0.07031-0.0039-0.07227-0.01367-0.07422-0.02344-0.07617-0.0293-0.07031zm-1.1602 0.35352-0.23633 0.11523 0.13672 0.2793 0.0293 0.05469 0.03906 0.05469 0.04687 0.04687 0.05078 0.03906 0.02734 0.01758 0.13476-0.22656-0.01367-0.0078-0.02344-0.01758-0.02148-0.02148-0.01758-0.02539-0.01758-0.0332zm0.82226 0.29688-0.0039 2e-3 -0.03711 0.02539-0.04102 0.02344-0.04297 0.01953-0.04492 0.01953-0.04492 0.01367-0.04492 0.01172-0.04687 0.0098-0.04492 0.0039-0.04492 2e-3h-0.0098l-0.0098 0.26172 0.02148 2e-3 0.0625-2e-3 0.06445-0.0078 0.06445-0.01172 0.0625-0.01563 0.06055-0.02148 0.0625-0.02344 0.05859-0.0293 0.05664-0.0332 0.05469-0.03516 0.0098-0.0098z"
       color="#000000"
       display="block"
       fill="#f37e40"
       style="-inkscape-stroke:none;fill:#f37e40;fill-opacity:1"
       id="path21" />
  </g>
  <path
     id="circle13"
     style="color:#000000;display:inline;opacity:0.249;fill:#f37e40;stroke-width:0.26458;-inkscape-stroke:none;fill-opacity:1"
     d="m 20.308149,0 c 4e-6,0.0054 5.29e-4,0.01065 5.29e-4,0.01602 0,4.5824965 -1.517093,8.8081845 -4.074714,12.205538 l 0.551908,0.575163 c 2.70624,-3.5481736 4.316549,-7.9763878 4.316549,-12.780701 0,-0.0054 -5.13e-4,-0.01065 -5.17e-4,-0.01602 z m -5.84206,14.269509 C 10.783422,18.006978 5.6644015,20.32537 -3.0851064e-4,20.325511 v 0.793755 C 5.5992415,21.119131 10.687428,18.931209 14.466089,15.369191 Z" />
  <path
     id="circle15"
     style="color:#000000;display:inline;opacity:0.474;fill:#f37e40;stroke-width:0.26458;-inkscape-stroke:none;fill-opacity:1"
     d="m 12.299798,0 c 7e-6,0.0054 5.29e-4,0.01065 5.29e-4,0.01602 0,1.9268764 -0.443105,3.7489245 -1.231457,5.3718009 l 0.840781,0.065113 C 12.66803,3.7961016 13.09407,1.9560294 13.09407,0.01602 13.09407,0.01062 13.09356,0.00537 13.093553,0 Z M 5.3849285,11.078468 c -1.626294,0.792473 -3.453028,1.238096 -5.38523701064,1.238176 v 0.793755 C 1.9448885,13.110323 3.7897385,12.682003 5.4500415,11.919766 Z" />
  <path
     id="circle17"
     style="color:#000000;display:inline;opacity:0.705;fill:#f37e40;stroke-width:0.26458;-inkscape-stroke:none;fill-opacity:1"
     d="m 6.7083715,0 c 1.2e-5,0.0054 5.29e-4,0.01065 5.29e-4,0.01602 -1.3e-5,3.7100585 -2.999206,6.7094329 -6.70920901064,6.7097129 V 7.5194882 C 4.1386645,7.5191971 7.5026435,4.1550422 7.5026435,0.01602 c 0,-0.0054 -5.03e-4,-0.01065 -5.3e-4,-0.01602 z" />
  <path
     id="circle19"
     style="color:#000000;display:inline;fill:#f37e40;stroke-width:0.26458;-inkscape-stroke:none;fill-opacity:1"
     d="m 3.9855215,0 c 2.1e-5,0.0054 5.29e-4,0.01065 5.29e-4,0.01602 -1.2e-5,2.206318 -1.78011,3.9865839 -3.98635901064,3.9868633 V 4.7966386 C 2.6349085,4.7963565 4.7797935,2.6513016 4.7797935,0.01602 c 0,-0.0054 -4.99e-4,-0.01065 -5.17e-4,-0.01602 z" />
  <path
     d="m -3.0851064e-4,2.6e-5 v 1.58754 22.75474 0.52918 0.0016 H 42.334092 V 0 H 2.6455915 -3.0851064e-4 Z M 0.52887149,1.587566 H 5.5560815 41.804912 v 22.755269 h -15.08163 v -1.598388 c -0.0056,-0.288244 -0.238515,-0.518835 -0.528149,-0.518835 H 16.140184 c -0.293166,0 -0.52918,0.236009 -0.52918,0.52918 v 1.58754 h -5.29e-4 v 5.3e-4 H 0.52832849 v -5.3e-4 -22.75474 z m 16.03547651,21.1672 h 0.741064 c 0.234543,0 0.423238,0.188703 0.423238,0.423238 v 0.741064 c 0,0.234543 -0.1887,0.423238 -0.423238,0.423238 h -0.741064 c -0.234546,0 -0.423767,-0.188706 -0.423767,-0.423238 v -0.741064 c 0,-0.234546 0.189219,-0.423238 0.423767,-0.423238 z m 2.11672,0 h 0.741064 c 0.234543,0 0.423238,0.188703 0.423238,0.423238 v 0.741064 c 0,0.234543 -0.1887,0.423238 -0.423238,0.423238 h -0.741064 c -0.234546,0 -0.423238,-0.188706 -0.423238,-0.423238 v -0.741064 c 0,-0.234546 0.1887,-0.423238 0.423238,-0.423238 z m 2.11672,0 h 0.741064 c 0.23454,0 0.423238,0.188703 0.423238,0.423238 v 0.741064 c 0,0.234543 -0.1887,0.423238 -0.423238,0.423238 h -0.741064 c -0.234543,0 -0.423238,-0.188706 -0.423238,-0.423238 v -0.741064 c 0,-0.234546 0.188703,-0.423238 0.423238,-0.423238 z m 2.11672,0 h 0.741064 c 0.234543,0 0.423238,0.188703 0.423238,0.423238 v 0.741064 c 0,0.234543 -0.1887,0.423238 -0.423238,0.423238 h -0.741064 c -0.23454,0 -0.423238,-0.188706 -0.423238,-0.423238 v -0.741064 c 0,-0.234546 0.188706,-0.423238 0.423238,-0.423238 z m 2.11672,0 h 0.741064 c 0.234546,0 0.423238,0.188703 0.423238,0.423238 v 0.741064 c 0,0.234543 -0.1887,0.423238 -0.423238,0.423238 h -0.741064 c -0.23454,0 -0.423238,-0.188706 -0.423238,-0.423238 v -0.741064 c 0,-0.234546 0.188706,-0.423238 0.423238,-0.423238 z"
     fill="#f37e40"
     id="path2-3"
     style="stroke-width:0.26459" />
</svg>
