<svg width="160" height="94" viewBox="0 0 42.333 24.871" xmlns="http://www.w3.org/2000/svg"><path style="opacity:.287;fill:#f37e40;fill-opacity:1;stroke-width:1.00002" d="M2 6v86h58v-7h24v-6.787H25.986a3.984 3.984 0 0 1-2.853-1.211H23v-.16a3.965 3.965 0 0 1-1.014-2.63v-52c0-2.198 1.802-4 4-4H84V6H2z" transform="matrix(.26459 0 0 .26459 0 0)"/><path style="fill:#f37e40;fill-opacity:1;stroke-width:.26458;-inkscape-stroke:none" d="M6.777 4.838c-.582 0-1.058.477-1.058 1.059v13.758c0 .581.476 1.058 1.058 1.058h18.521c.582 0 1.058-.477 1.058-1.058V5.897c0-.582-.476-1.059-1.058-1.059zm0 .53h18.521c.298 0 .53.231.53.529v13.758c0 .297-.232.529-.53.529H6.778a.522.522 0 0 1-.53-.53V5.898c0-.298.231-.53.53-.53zm16.351.717-.374.375.79.79-.79.79.374.374.79-.79.79.79.374-.374-.79-.79.79-.79-.374-.375-.79.79zm-15.297.872V14.7l1.695-1.657.833 1.702v.001c.077.17.24.266.406.294a.9.9 0 0 0 .505-.073.794.794 0 0 0 .39-.345.622.622 0 0 0-.004-.566l-.816-1.752h2.124zm.264.658 4.248 4.425h-1.919l.995 2.131v.002c.067.137.057.235.008.327a.55.55 0 0 1-.264.225.66.66 0 0 1-.355.055c-.104-.018-.171-.06-.207-.142l-.001-.002-.997-2.037-1.508 1.473z"/><path d="M0 0V24.873h42.334V0H0zm.529 1.588h41.276v22.755H26.723v-1.599a.527.527 0 0 0-.528-.518H16.14a.528.528 0 0 0-.529.529v1.587H.527V1.588zm16.035 21.167h.741c.235 0 .424.188.424.423v.741a.422.422 0 0 1-.424.423h-.74a.423.423 0 0 1-.424-.423v-.741c0-.235.189-.423.423-.423zm2.117 0h.741c.235 0 .423.188.423.423v.741a.422.422 0 0 1-.423.423h-.74a.422.422 0 0 1-.424-.423v-.741c0-.235.189-.423.423-.423zm2.117 0h.74c.235 0 .424.188.424.423v.741a.422.422 0 0 1-.423.423h-.741a.422.422 0 0 1-.423-.423v-.741c0-.235.188-.423.423-.423zm2.117 0h.74c.235 0 .424.188.424.423v.741a.422.422 0 0 1-.423.423h-.741a.422.422 0 0 1-.424-.423v-.741c0-.235.189-.423.424-.423zm2.116 0h.741c.235 0 .424.188.424.423v.741a.422.422 0 0 1-.424.423h-.74a.422.422 0 0 1-.424-.423v-.741c0-.235.189-.423.423-.423z" fill="#f37e40" style="stroke-width:.26459"/></svg>