<svg width="160" height="94" viewBox="0 0 42.333 24.871" xmlns="http://www.w3.org/2000/svg"><path style="stroke-width:1.00002;fill:#f37e40;fill-opacity:1;opacity:.287" d="M2 6v19h6c1.108 0 2 1.338 2 3v34c0 1.662-.892 3-2 3H2v27h82V78.213H25.986a3.984 3.984 0 0 1-2.853-1.211H23v-.16a3.965 3.965 0 0 1-1.014-2.63v-52c0-2.198 1.802-4 4-4H84V6H2z" transform="matrix(.26459 0 0 .26459 0 0)"/><path d="M1447-4347.5c-2.199 0-4 1.801-4 4v52c0 2.199 1.801 4 4 4h70c2.199 0 4-1.801 4-4v-52c0-2.199-1.801-4-4-4zm0 2h70c1.125 0 2 .875 2 2v52c0 1.125-.875 2-2 2h-70c-1.125 0-2-.875-2-2v-52c0-1.125.875-2 2-2z" color="#000" fill="#f37e40" style="-inkscape-stroke:none" transform="translate(-376.07 1155.1) scale(.26458)"/><path d="M-20.31 5.517v17.93l3.93-3.836 1.93 3.94.001.002c.177.395.554.617.94.681.387.064.8-.005 1.172-.17.372-.164.71-.428.904-.797.194-.368.218-.846-.01-1.312l-1.892-4.057h4.923zm.613 1.523 9.846 10.246h-4.447l2.304 4.934v.004c.156.317.132.544.02.756s-.34.403-.611.523-.583.165-.825.125c-.241-.04-.396-.139-.48-.328l-.002-.004-2.31-4.717-3.495 3.41z" color="#000" display="block" fill="#f37e40" style="-inkscape-stroke:none" transform="matrix(.43142 0 0 .43193 16.593 4.574)"/><path d="m24.708 6.085-.79.79-.79-.79-.374.375.79.79-.79.79.374.374.79-.79.79.79.374-.374-.79-.79.79-.79z" fill="#f37e40"/><path d="M0 0v24.873h42.334V0H2.646zm.529 1.588h41.276v22.754H.529v-6.614h1.587c.294 0 .53-.236.53-.53V7.144a.528.528 0 0 0-.53-.53H.53zm.423 5.556h.741c.235 0 .423.189.423.423v.741a.422.422 0 0 1-.423.423h-.74a.422.422 0 0 1-.424-.423v-.74c0-.235.189-.424.423-.424zm0 2.117h.741c.235 0 .423.188.423.423v.741a.422.422 0 0 1-.423.423h-.74a.422.422 0 0 1-.424-.423v-.741c0-.235.189-.423.423-.423zm0 2.116h.741c.235 0 .423.19.423.424v.74a.422.422 0 0 1-.423.424h-.74a.422.422 0 0 1-.424-.423V11.8c0-.235.189-.424.423-.424zm0 2.117h.741c.235 0 .423.189.423.423v.741a.422.422 0 0 1-.423.424h-.74a.422.422 0 0 1-.424-.424v-.74c0-.235.189-.424.423-.424zm0 2.117h.741c.235 0 .423.189.423.423v.741a.422.422 0 0 1-.423.423h-.74a.422.422 0 0 1-.424-.423v-.741c0-.234.189-.423.423-.423z" fill="#f37e40" style="stroke-width:.26459"/></svg>