<?xml version="1.0" encoding="UTF-8" standalone="no"?>
<svg
   width="160"
   height="94"
   version="1.1"
   viewBox="0 0 42.333 24.871"
   id="svg18"
   sodipodi:docname="active-screen-edges-dock-left.svg"
   inkscape:version="1.1.1 (3bf5ae0d25, 2021-09-20)"
   xmlns:inkscape="http://www.inkscape.org/namespaces/inkscape"
   xmlns:sodipodi="http://sodipodi.sourceforge.net/DTD/sodipodi-0.dtd"
   xmlns="http://www.w3.org/2000/svg"
   xmlns:svg="http://www.w3.org/2000/svg">
  <defs
     id="defs22" />
  <sodipodi:namedview
     id="namedview20"
     pagecolor="#ffffff"
     bordercolor="#666666"
     borderopacity="1.0"
     inkscape:pageshadow="2"
     inkscape:pageopacity="0.0"
     inkscape:pagecheckerboard="0"
     showgrid="true"
     inkscape:zoom="2.8297872"
     inkscape:cx="-6.3609023"
     inkscape:cy="40.109023"
     inkscape:window-width="1298"
     inkscape:window-height="704"
     inkscape:window-x="68"
     inkscape:window-y="27"
     inkscape:window-maximized="1"
     inkscape:current-layer="svg18">
    <inkscape:grid
       type="xygrid"
       id="grid1026" />
  </sodipodi:namedview>
  <path
     id="path4"
     style="stroke-width:1.00002;fill:#f37e40;fill-opacity:1;opacity:0.287"
     d="M 2 6 L 2 25 L 8 25 C 9.1080001 25 10 26.338 10 28 L 10 62 C 10 63.662 9.1080001 65 8 65 L 2 65 L 2 92 L 84 92 L 84 78.212891 L 25.986328 78.212891 C 24.870607 78.21289 23.860426 77.746157 23.132812 77.001953 L 23 77.001953 L 23 76.841797 C 22.377438 76.135954 21.986328 75.221409 21.986328 74.212891 L 21.986328 22.212891 C 21.986328 20.01415 23.787587 18.212891 25.986328 18.212891 L 84 18.212891 L 84 6 L 2 6 z "
     transform="matrix(0.26458511,0,0,0.26458511,-3.0851064e-4,0)" />
  <g
     transform="matrix(.26458 0 0 .26458 -376.07 1155.1)"
     id="g14">
    <path
       d="m1447-4347.5c-2.1987 0-4 1.8013-4 4v52c0 2.1987 1.8013 4 4 4h70c2.1987 0 4-1.8013 4-4v-52c0-2.1987-1.8013-4-4-4zm0 2h70c1.1253 0 2 0.8747 2 2v52c0 1.1253-0.8747 2-2 2h-70c-1.1253 0-2-0.8747-2-2v-52c0-1.1253 0.8747-2 2-2z"
       color="#000000"
       fill="#f37e40"
       style="-inkscape-stroke:none"
       id="path6" />
    <g
       fill="#fff"
       id="g12">
      <g
         transform="matrix(1.6306,0,0,1.6325,1484.1,-4348.5)"
         id="g10">
        <path
           d="m-20.31 5.5169v17.93l3.9297-3.8359 1.9297 3.9395c4.13e-4 9.3e-4 0.0015 1e-3 2e-3 2e-3 0.17657 0.39503 0.55319 0.6177 0.93945 0.68164 0.38717 0.06409 0.7997-0.0053 1.1719-0.16992 0.37218-0.16463 0.70959-0.42796 0.9043-0.79688 0.19442-0.36836 0.21772-0.8468-0.0098-1.3125l-1.8926-4.0567h4.9238zm0.61328 1.5234 9.8457 10.246h-4.4473l2.3047 4.9336v0.0039c0.15543 0.31713 0.13132 0.54405 0.01953 0.75586s-0.33951 0.4032-0.61133 0.52344-0.58289 0.16494-0.82422 0.125c-0.24133-0.03995-0.39651-0.1389-0.48047-0.32812l-2e-3 -0.0039-2.3105-4.7168-3.4941 3.4102z"
           color="#000000"
           display="block"
           fill="#f37e40"
           style="-inkscape-stroke:none"
           id="path8" />
      </g>
    </g>
  </g>
  <path
     d="m24.708 6.0855-0.79002 0.79002-0.79002-0.79002-0.37418 0.37418 0.79002 0.79002-0.79002 0.79002 0.37418 0.37418 0.79002-0.79002 0.79002 0.79002 0.37418-0.37418-0.79002-0.79002 0.79002-0.79002z"
     fill="#f37e40"
     id="path16" />
  <path
     d="M -3.0851064e-4,0 V 24.872518 H 42.334092 V 0 H 2.6455915 Z M 0.52887149,1.58754 H 41.804911 V 24.34228 H 0.52887149 V 17.72753 H 2.1164115 c 0.2931657,0 0.52918,-0.236014 0.52918,-0.52918 V 7.14393 c 0,-0.2931657 -0.2360143,-0.52918 -0.52918,-0.52918 H 0.52887149 Z m 0.4232382,5.55639 H 1.6931733 c 0.2345405,0 0.4232382,0.1887029 0.4232382,0.4232382 v 0.7410636 c 0,0.2345405 -0.1887056,0.4232382 -0.4232382,0.4232382 H 0.95210969 c -0.2345405,0 -0.4232382,-0.1887029 -0.4232382,-0.4232382 V 7.5671682 c 0,-0.2345405 0.1887056,-0.4232382 0.4232382,-0.4232382 z m 0,2.11672 H 1.6931733 c 0.2345405,0 0.4232382,0.1887029 0.4232382,0.4232382 v 0.7410638 c 0,0.234538 -0.1887056,0.423238 -0.4232382,0.423238 H 0.95210969 c -0.2345405,0 -0.4232382,-0.188703 -0.4232382,-0.423238 V 9.6838882 c 0,-0.2345405 0.1887056,-0.4232382 0.4232382,-0.4232382 z m 0,2.11672 H 1.6931733 c 0.2345405,0 0.4232382,0.188706 0.4232382,0.423238 v 0.741064 c 0,0.234538 -0.1887056,0.423238 -0.4232382,0.423238 H 0.95210969 c -0.2345405,0 -0.4232382,-0.188703 -0.4232382,-0.423238 v -0.741064 c 0,-0.234538 0.1887056,-0.423238 0.4232382,-0.423238 z m 0,2.11672 H 1.6931733 c 0.2345405,0 0.4232382,0.188706 0.4232382,0.423238 v 0.741064 c 0,0.23454 -0.1887056,0.423238 -0.4232382,0.423238 H 0.95210969 c -0.2345405,0 -0.4232382,-0.188703 -0.4232382,-0.423238 v -0.741064 c 0,-0.234538 0.1887056,-0.423238 0.4232382,-0.423238 z m 0,2.11672 H 1.6931733 c 0.2345405,0 0.4232382,0.188706 0.4232382,0.423238 v 0.741064 c 0,0.23454 -0.1887056,0.423238 -0.4232382,0.423238 H 0.95210969 c -0.2345379,0 -0.4232382,-0.188703 -0.4232382,-0.423238 v -0.741064 c 0,-0.234538 0.1887056,-0.423238 0.4232382,-0.423238 z"
     fill="#f37e40"
     id="path2"
     style="stroke-width:0.26459" />
</svg>
