<?xml version="1.0" encoding="UTF-8" standalone="no"?>
<svg
   width="160"
   height="94"
   version="1.1"
   viewBox="0 0 42.333 24.871"
   id="svg6"
   sodipodi:docname="active-screen-edges-dock-bottom.svg"
   inkscape:version="1.1.1 (3bf5ae0d25, 2021-09-20)"
   xmlns:inkscape="http://www.inkscape.org/namespaces/inkscape"
   xmlns:sodipodi="http://sodipodi.sourceforge.net/DTD/sodipodi-0.dtd"
   xmlns="http://www.w3.org/2000/svg"
   xmlns:svg="http://www.w3.org/2000/svg">
  <defs
     id="defs10" />
  <sodipodi:namedview
     id="namedview8"
     pagecolor="#ffffff"
     bordercolor="#666666"
     borderopacity="1.0"
     inkscape:pageshadow="2"
     inkscape:pageopacity="0.0"
     inkscape:pagecheckerboard="0"
     showgrid="true"
     inkscape:zoom="2.8297873"
     inkscape:cx="82.338345"
     inkscape:cy="88.522556"
     inkscape:window-width="1298"
     inkscape:window-height="704"
     inkscape:window-x="68"
     inkscape:window-y="27"
     inkscape:window-maximized="1"
     inkscape:current-layer="svg6">
    <inkscape:grid
       type="xygrid"
       id="grid920" />
  </sodipodi:namedview>
  <path
     id="path4"
     style="opacity:0.287;fill:#f37e40;fill-opacity:1;stroke-width:1.00002"
     d="M 2 6 L 2 92 L 60 92 L 60 85 L 84 85 L 84 78.212891 L 25.986328 78.212891 C 24.870608 78.212891 23.860426 77.746156 23.132812 77.001953 L 23 77.001953 L 23 76.841797 C 22.377437 76.135948 21.986328 75.221409 21.986328 74.212891 L 21.986328 22.212891 C 21.986328 20.01415 23.787588 18.212891 25.986328 18.212891 L 84 18.212891 L 84 6 L 2 6 z "
     transform="matrix(0.26458511,0,0,0.26458511,-3.0851064e-4,0)" />
  <path
     id="path6"
     style="fill:#f37e40;fill-opacity:1;stroke-width:0.26458;-inkscape-stroke:none"
     d="m 6.7770723,4.8384984 c -0.5817319,0 -1.0583404,0.4766085 -1.0583404,1.0583404 V 19.654747 c 0,0.581733 0.4766085,1.058341 1.0583404,1.058341 H 25.298031 c 0.581732,0 1.05834,-0.476608 1.05834,-1.058341 V 5.8968388 c 0,-0.5817319 -0.476608,-1.0583404 -1.05834,-1.0583404 z m 0,0.5291702 H 25.298031 c 0.297732,0 0.52917,0.2314384 0.52917,0.5291702 V 19.654747 c 0,0.297732 -0.231438,0.529171 -0.52917,0.529171 H 6.7770723 c -0.2977318,0 -0.5291702,-0.231439 -0.5291702,-0.529171 V 5.8968388 c 0,-0.2977318 0.2314384,-0.5291702 0.5291702,-0.5291702 z m 16.3510507,0.7177905 -0.37414,0.3741398 0.789621,0.7901382 -0.789621,0.7901379 0.37414,0.3741397 0.789621,-0.7901379 0.790138,0.7901379 0.37414,-0.3741397 -0.790138,-0.7901379 0.790138,-0.7901382 -0.37414,-0.3741398 -0.790138,0.790138 z M 7.8307619,6.9567297 V 14.701011 L 9.526277,13.044254 10.35879,14.74597 c 1.78e-4,3.97e-4 8.2e-4,6.09e-4 0.001,10e-4 0.07618,0.170624 0.238504,0.266424 0.405146,0.294041 0.167034,0.02768 0.344823,-0.0023 0.505399,-0.07338 0.160567,-0.07111 0.306157,-0.184821 0.39016,-0.344167 0.08388,-0.159105 0.09402,-0.365746 -0.0041,-0.566894 l -0.816484,-1.751811 h 2.124432 z M 8.095347,7.6145751 12.343179,12.040174 H 10.42442 l 0.994261,2.131151 v 0.0016 c 0.06706,0.136977 0.05701,0.23511 0.0088,0.326597 -0.04823,0.09149 -0.146799,0.173892 -0.264069,0.225827 -0.117269,0.05194 -0.25142,0.07151 -0.355536,0.05426 -0.104115,-0.01726 -0.171001,-0.05987 -0.207224,-0.141594 l -0.001,-0.0021 -0.9968425,-2.03706 -1.5074117,1.472788 z" />
  <path
     d="m -3.0851064e-4,2.6e-5 v 1.58754 22.75474 0.52918 0.0016 H 42.334093 V 0 H 2.6455915 -3.0851064e-4 Z M 0.52887149,1.587566 H 5.5560815 41.804913 v 22.755269 h -15.08163 v -1.598388 c -0.0056,-0.288244 -0.238515,-0.518835 -0.528149,-0.518835 h -10.05495 c -0.293165,0 -0.52918,0.236009 -0.52918,0.52918 v 1.58754 h -5.29e-4 v 5.3e-4 H 0.52832829 v -5.3e-4 -22.75474 z m 16.03547751,21.1672 h 0.741063 c 0.234544,0 0.423239,0.188703 0.423239,0.423238 v 0.741064 c 0,0.234543 -0.188701,0.423238 -0.423239,0.423238 h -0.741063 c -0.234546,0 -0.423768,-0.188706 -0.423768,-0.423238 v -0.741064 c 0,-0.234546 0.189219,-0.423238 0.423768,-0.423238 z m 2.11672,0 h 0.741063 c 0.234544,0 0.423239,0.188703 0.423239,0.423238 v 0.741064 c 0,0.234543 -0.188701,0.423238 -0.423239,0.423238 h -0.741063 c -0.234546,0 -0.423238,-0.188706 -0.423238,-0.423238 v -0.741064 c 0,-0.234546 0.1887,-0.423238 0.423238,-0.423238 z m 2.11672,0 h 0.741063 c 0.234541,0 0.423239,0.188703 0.423239,0.423238 v 0.741064 c 0,0.234543 -0.188701,0.423238 -0.423239,0.423238 h -0.741063 c -0.234543,0 -0.423238,-0.188706 -0.423238,-0.423238 v -0.741064 c 0,-0.234546 0.188702,-0.423238 0.423238,-0.423238 z m 2.11672,0 h 0.741063 c 0.234544,0 0.423239,0.188703 0.423239,0.423238 v 0.741064 c 0,0.234543 -0.188701,0.423238 -0.423239,0.423238 h -0.741063 c -0.234541,0 -0.423238,-0.188706 -0.423238,-0.423238 v -0.741064 c 0,-0.234546 0.188705,-0.423238 0.423238,-0.423238 z m 2.11672,0 h 0.741063 c 0.234546,0 0.423239,0.188703 0.423239,0.423238 v 0.741064 c 0,0.234543 -0.188701,0.423238 -0.423239,0.423238 h -0.741063 c -0.234541,0 -0.423238,-0.188706 -0.423238,-0.423238 v -0.741064 c 0,-0.234546 0.188705,-0.423238 0.423238,-0.423238 z"
     fill="#f37e40"
     id="path2"
     style="stroke-width:0.26459" />
</svg>
