<svg width="160" height="94" viewBox="0 0 42.333 24.871" xmlns="http://www.w3.org/2000/svg"><path d="M0 0V24.872h42.334V0H0zm.529 1.588H41.805v20.638H.528V1.588zm.952 21.167h.741c.235 0 .424.188.424.423v.741a.422.422 0 0 1-.424.423h-.74a.422.422 0 0 1-.424-.423v-.741c0-.235.189-.423.423-.423zm2.117 0h.741c.235 0 .423.188.423.423v.741c0 .233-.186.42-.418.423h-.751a.422.422 0 0 1-.418-.423v-.741c0-.235.188-.423.423-.423zm2.117 0h.74c.235 0 .424.188.424.423v.741c0 .233-.186.42-.418.423H5.71a.422.422 0 0 1-.419-.423v-.741c0-.235.19-.423.424-.423zm2.116 0h.742c.234 0 .423.188.423.423v.741c0 .233-.186.42-.418.423h-.752a.422.422 0 0 1-.418-.423v-.741c0-.235.189-.423.423-.423zm32.016 0h.74c.235 0 .424.188.424.423v.741c0 .233-.186.42-.418.423h-.751a.422.422 0 0 1-.418-.423v-.741c0-.235.188-.423.423-.423z" fill="#f37e40"/><path style="fill:#f37e40;fill-opacity:1;stroke-width:.26458;-inkscape-stroke:none" d="M13.225 4.819c-.581 0-1.058.476-1.058 1.058v13.758c0 .582.477 1.058 1.058 1.058h18.521c.582 0 1.059-.476 1.059-1.058V5.877c0-.582-.477-1.058-1.059-1.058zm0 .529h18.521c.298 0 .53.231.53.529v13.758c0 .298-.232.529-.53.529h-18.52a.522.522 0 0 1-.53-.53V5.878c0-.298.232-.53.53-.53zm16.351.718-.374.374.79.79-.79.79.374.374.79-.79.79.79.374-.374-.79-.79.79-.79-.374-.374-.79.79zm-15.297.87v7.745l1.695-1.657.833 1.702.001.001c.076.17.238.267.405.294a.9.9 0 0 0 .506-.073.794.794 0 0 0 .39-.344.622.622 0 0 0-.004-.567l-.817-1.752h2.125zm.265.659 4.247 4.425h-1.918l.994 2.131v.002c.067.137.057.235.009.327a.55.55 0 0 1-.264.225.66.66 0 0 1-.356.055c-.104-.018-.171-.06-.207-.142l-.001-.002-.997-2.037-1.507 1.473z"/><path d="M.529 1.588v20.637h41.275V1.588zm12.695 3.454h18.52c.44 0 .794.354.794.794v13.758c0 .44-.354.793-.793.793H13.224a.792.792 0 0 1-.794-.793V5.836c0-.44.354-.794.794-.794z" fill="#f37e40" opacity=".287" style="stroke-width:.26459"/><path d="m6.099 16.855-1.27-1.27h-.002a.222.222 0 0 1-.065-.158v-.222h.223c.062 0 .117.024.157.065l.956.956.956-.956a.221.221 0 0 1 .158-.065h.222v.222a.222.222 0 0 1-.065.157l-.001.002zm0-1.781-1.27-1.27h-.002v-.001a.222.222 0 0 1-.065-.157v-.223h.223c.062 0 .117.025.157.065l.956.956.956-.956a.221.221 0 0 1 .158-.065h.223v.223a.222.222 0 0 1-.066.157l-.001.001zm0-1.782-1.27-1.27h-.002a.222.222 0 0 1-.065-.158v-.222h.223c.062 0 .117.024.157.065l.956.956.956-.956a.221.221 0 0 1 .158-.065h.223v.222a.221.221 0 0 1-.066.157l-.001.002z" color="#000" fill="#f37e40" style="font-variant-ligatures:normal;font-variant-position:normal;font-variant-caps:normal;font-variant-numeric:normal;font-variant-alternates:normal;font-feature-settings:normal;text-indent:0;text-decoration-line:none;text-decoration-style:solid;text-decoration-color:#000;text-transform:none;text-orientation:mixed;white-space:normal;shape-padding:0;isolation:auto;mix-blend-mode:normal"/></svg>