<?xml version="1.0" encoding="UTF-8" standalone="no"?>
<svg
   width="160"
   height="94"
   version="1.1"
   viewBox="0 0 42.333 24.871"
   id="svg18"
   sodipodi:docname="auto-hide-panel-right.svg"
   inkscape:version="1.1.1 (3bf5ae0d25, 2021-09-20)"
   xmlns:inkscape="http://www.inkscape.org/namespaces/inkscape"
   xmlns:sodipodi="http://sodipodi.sourceforge.net/DTD/sodipodi-0.dtd"
   xmlns="http://www.w3.org/2000/svg"
   xmlns:svg="http://www.w3.org/2000/svg">
  <defs
     id="defs22" />
  <sodipodi:namedview
     id="namedview20"
     pagecolor="#ffffff"
     bordercolor="#666666"
     borderopacity="1.0"
     inkscape:pageshadow="2"
     inkscape:pageopacity="0.0"
     inkscape:pagecheckerboard="0"
     showgrid="false"
     inkscape:zoom="2.8297872"
     inkscape:cx="79.864662"
     inkscape:cy="47.176692"
     inkscape:window-width="1298"
     inkscape:window-height="704"
     inkscape:window-x="68"
     inkscape:window-y="27"
     inkscape:window-maximized="1"
     inkscape:current-layer="svg18" />
  <path
     d="M 42.334091,0 V 24.87146 H 39.688191 -3.0851e-4 V 0 H 39.688191 Z M 41.381673,1.58754 H 40.64061 c -0.234533,0 -0.423239,0.1887082 -0.423239,0.4232382 v 0.7410636 c 0,0.2345326 0.188709,0.4232382 0.423239,0.4232382 h 0.741063 c 0.234533,0 0.423238,-0.1887082 0.423238,-0.4232382 V 2.0107782 c 0,-0.2345326 -0.188708,-0.4232382 -0.423238,-0.4232382 z m -1.693482,0 H 0.52887149 V 24.34228 H 39.688191 Z m 1.693482,2.11672 H 40.64061 c -0.234533,0 -0.423239,0.1887082 -0.423239,0.4232382 v 0.7410636 c 0,0.2345326 0.188709,0.4232382 0.423239,0.4232382 h 0.741063 c 0.234533,0 0.423238,-0.1887082 0.423238,-0.4232382 V 4.1274982 c 0,-0.2345326 -0.188708,-0.4232382 -0.423238,-0.4232382 z m 0,2.11672 H 40.64061 c -0.234533,0 -0.423239,0.1887082 -0.423239,0.4232382 v 0.7410636 c 0,0.2345326 0.188709,0.4232382 0.423239,0.4232382 h 0.741063 c 0.234533,0 0.423238,-0.1887082 0.423238,-0.4232382 V 6.2442182 c 0,-0.2345326 -0.188708,-0.4232382 -0.423238,-0.4232382 z m 0,2.11672 H 40.64061 c -0.234533,0 -0.423239,0.1887082 -0.423239,0.4232382 v 0.7410636 c 0,0.2345326 0.188709,0.4232382 0.423239,0.4232382 h 0.741063 c 0.234533,0 0.423238,-0.1887082 0.423238,-0.4232382 V 8.3609382 C 41.804911,8.1264056 41.616203,7.9377 41.381673,7.9377 Z m 0,14.02327 H 40.64061 c -0.234533,0 -0.423239,0.188708 -0.423239,0.423238 v 0.741064 c 0,0.234532 0.188709,0.423238 0.423239,0.423238 h 0.741063 c 0.234533,0 0.423238,-0.188708 0.423238,-0.423238 v -0.741064 c 0,-0.234532 -0.188708,-0.423238 -0.423238,-0.423238 z"
     fill="#f37e40"
     id="path2"
     style="stroke-width:0.26459" />
  <path
     d="M 39.688191,1.58754 V 24.34228 H 0.52887149 V 1.58754 Z M 29.109883,5.0417624 H 10.589112 c -0.439748,0 -0.7937695,0.3540215 -0.7937695,0.79377 V 19.593683 c 0,0.439749 0.3540215,0.79377 0.7937695,0.79377 h 18.520771 c 0.439749,0 0.79377,-0.354021 0.79377,-0.79377 V 5.8355324 c 0,-0.4397485 -0.354021,-0.79377 -0.79377,-0.79377 z"
     fill="#f37e40"
     opacity="0.287"
     id="path4"
     style="stroke-width:0.26459" />
  <g
     transform="matrix(0.26458,0,0,0.26458,-398.71734,1156.8)"
     id="g12">
    <path
       d="m 1547,-4354 c -2.1987,0 -4,1.8013 -4,4 v 52 c 0,2.1987 1.8013,4 4,4 h 70 c 2.1987,0 4,-1.8013 4,-4 v -52 c 0,-2.1987 -1.8013,-4 -4,-4 z m 0,2 h 70 c 1.1253,0 2,0.8747 2,2 v 52 c 0,1.1253 -0.8747,2 -2,2 h -70 c -1.1253,0 -2,-0.8747 -2,-2 v -52 c 0,-1.1253 0.8747,-2 2,-2 z"
       color="#000000"
       fill="#f37e40"
       style="-inkscape-stroke:none"
       id="path6" />
    <g
       fill="#ffffff"
       stroke="#3584e4"
       id="g10">
      <path
         d="m 1551,-4346 v 29.27 l 6.4082,-6.2636 3.1484,6.4316 c 0.287,0.6475 0.9017,1.0125 1.5332,1.1172 0.6315,0.1046 1.3051,-0.01 1.9121,-0.2774 0.607,-0.2688 1.1572,-0.7006 1.4746,-1.3027 0.3172,-0.6016 0.3561,-1.38 -0.016,-2.1406 l -3.0879,-6.6211 h 8.0274 z m 1,2.4863 16.055,16.727 h -7.25 l 3.7559,8.0547 v 0.01 c 0.2535,0.5179 0.2116,0.8905 0.029,1.2364 -0.1824,0.3459 -0.5511,0.6572 -0.9942,0.8535 -0.4431,0.1962 -0.9504,0.2702 -1.3437,0.2051 -0.3933,-0.065 -0.6463,-0.2261 -0.7832,-0.5352 v -0.01 l -3.7696,-7.6992 -5.6972,5.5684 z"
         color="#000000"
         display="block"
         fill="#f37e40"
         stroke="none"
         style="-inkscape-stroke:none"
         id="path8" />
    </g>
  </g>
  <path
     d="m 28.420657,6.0855 -0.79002,0.79002 -0.79002,-0.79002 -0.37418,0.37418 0.79002,0.79002 -0.79002,0.79002 0.37418,0.37418 0.79002,-0.79002 0.79002,0.79002 0.37418,-0.37418 -0.79002,-0.79002 0.79002,-0.79002 z"
     fill="#f37e40"
     id="path14" />
  <path
     d="m 37.571583,12.978 -1.2696,-1.2696 c -4.88e-4,-4.87e-4 -4.88e-4,-8.41e-4 -8.42e-4,-0.0015 h -4.88e-4 c -0.04023,-0.0401 -0.09546,-0.06524 -0.15701,-0.06524 h -0.22269 v 0.22269 c 0,0.06168 0.02455,0.1172 0.0648,0.15745 l 0.956,0.956 -0.956,0.956 c -0.04025,0.04023 -0.0648,0.09576 -0.0648,0.15744 v 0.22269 h 0.22269 c 0.06156,0 0.11678,-0.02514 0.15701,-0.06524 l 0.0014,-0.0015 z m -1.7815,0 -1.2696,-1.2696 c -4.87e-4,-4.87e-4 -4.87e-4,-8.41e-4 -8.41e-4,-0.0015 h -4.89e-4 c -0.04024,-0.0401 -0.09546,-0.06524 -0.15701,-0.06524 h -0.22269 v 0.22269 c 0,0.06168 0.02455,0.1172 0.0648,0.15745 l 0.956,0.95604 -0.956,0.956 c -0.04025,0.04023 -0.0648,0.09576 -0.0648,0.15744 v 0.22269 h 0.22266 c 0.06155,0 0.11678,-0.02514 0.15702,-0.06524 l 0.0014,-0.0015 z m -1.7815,0 -1.2696,-1.2696 c -4.92e-4,-4.87e-4 -4.92e-4,-8.41e-4 -8.4e-4,-0.0015 h -4.93e-4 c -0.0402,-0.04006 -0.09543,-0.0652 -0.15698,-0.0652 h -0.22269 v 0.22269 c 0,0.06168 0.02456,0.1172 0.0648,0.15745 l 0.956,0.95599 -0.956,0.956 c -0.04024,0.04024 -0.0648,0.09576 -0.0648,0.15745 v 0.22269 h 0.22269 c 0.06156,0 0.11678,-0.02513 0.15701,-0.06524 l 0.0015,-0.0015 z"
     color="#000000"
     color-rendering="auto"
     dominant-baseline="auto"
     enable-background="new"
     fill="#f37e40"
     image-rendering="auto"
     shape-rendering="auto"
     solid-color="#000000"
     style="font-variant-ligatures:normal;font-variant-position:normal;font-variant-caps:normal;font-variant-numeric:normal;font-variant-alternates:normal;font-feature-settings:normal;text-indent:0;text-decoration-line:none;text-decoration-style:solid;text-decoration-color:#000000;text-transform:none;text-orientation:mixed;white-space:normal;shape-padding:0;isolation:auto;mix-blend-mode:normal"
     id="path16" />
</svg>
