<?xml version="1.0" encoding="UTF-8" standalone="no"?>
<svg
   width="160"
   height="94"
   version="1.1"
   viewBox="0 0 42.333 24.871"
   id="svg6"
   sodipodi:docname="active-screen-edges-panel-bottom.svg"
   inkscape:version="1.1.1 (3bf5ae0d25, 2021-09-20)"
   xmlns:inkscape="http://www.inkscape.org/namespaces/inkscape"
   xmlns:sodipodi="http://sodipodi.sourceforge.net/DTD/sodipodi-0.dtd"
   xmlns="http://www.w3.org/2000/svg"
   xmlns:svg="http://www.w3.org/2000/svg">
  <defs
     id="defs10" />
  <sodipodi:namedview
     id="namedview8"
     pagecolor="#ffffff"
     bordercolor="#666666"
     borderopacity="1.0"
     inkscape:pageshadow="2"
     inkscape:pageopacity="0.0"
     inkscape:pagecheckerboard="0"
     showgrid="true"
     inkscape:zoom="11.319149"
     inkscape:cx="-4.4172933"
     inkscape:cy="88.831768"
     inkscape:window-width="1298"
     inkscape:window-height="704"
     inkscape:window-x="68"
     inkscape:window-y="27"
     inkscape:window-maximized="1"
     inkscape:current-layer="svg6">
    <inkscape:grid
       type="xygrid"
       id="grid920" />
  </sodipodi:namedview>
  <path
     transform="matrix(.26459 0 0 .26459 -.00030851 0)"
     d="m0 0v6 78 8 2 0.003906h160v-94.004h-150-10zm2 6h1.5996 2.8008 3.5996 148v78h-0.00781-13.994-1.0039-67.996-1-70-2v-78zm3.5996 80h2.8008c0.88644 0 1.5996 0.71321 1.5996 1.5996v2.8008c0 0.88645-0.7132 1.5996-1.5996 1.5996h-2.8008c-0.88644 0-1.5996-0.7132-1.5996-1.5996v-2.8008c0-0.88645 0.7132-1.5996 1.5996-1.5996zm8 0h2.8008c0.88644 0 1.5996 0.71321 1.5996 1.5996v2.8008c0 0.87974-0.70298 1.587-1.5801 1.5977h-2.8398c-0.8771-0.01069-1.5801-0.71796-1.5801-1.5977v-2.8008c0-0.88645 0.7132-1.5996 1.5996-1.5996zm8 0h2.8008c0.88644 0 1.5996 0.71321 1.5996 1.5996v2.8008c0 0.87974-0.70298 1.587-1.5801 1.5977h-2.8398c-0.8771-0.01069-1.5801-0.71796-1.5801-1.5977v-2.8008c0-0.88645 0.7132-1.5996 1.5996-1.5996zm8 0h2.8008c0.88644 0 1.5996 0.71321 1.5996 1.5996v2.8008c0 0.87974-0.70302 1.587-1.5801 1.5977h-2.8398c-0.8771-0.01069-1.5801-0.71796-1.5801-1.5977v-2.8008c0-0.88645 0.7132-1.5996 1.5996-1.5996zm121 0h2.8008c0.88645 0 1.5996 0.71321 1.5996 1.5996v2.8008c0 0.87974-0.70301 1.587-1.5801 1.5977h-2.8398c-0.87709-0.01069-1.5801-0.71796-1.5801-1.5977v-2.8008c0-0.88645 0.71317-1.5996 1.5996-1.5996z"
     fill="#f37e40"
     id="path2" />
  <path
     id="path4"
     style="opacity:0.287;fill:#f37e40;fill-opacity:1;stroke-width:0.26459"
     d="M 0.5288617,1.5875106 V 22.225149 l 21.6959793,0 V 20.693966 H 6.8752869 c -0.2952029,0 -0.562482,-0.123491 -0.7549978,-0.320396 h -0.03514 V 20.3312 C 5.9204283,20.144443 5.8169465,19.902465 5.8169465,19.635626 V 5.8772002 c 0,-0.5817541 0.4765865,-1.0583404 1.0583404,-1.0583404 H 22.224841 V 1.5875107 Z"
     sodipodi:nodetypes="ccccscccsssccc" />
  <path
     id="path6"
     style="fill:#f37e40;fill-opacity:1;stroke-width:0.26458;-inkscape-stroke:none"
     d="m 6.7770723,4.8384984 c -0.5817319,0 -1.0583404,0.4766085 -1.0583404,1.0583404 V 19.654747 c 0,0.581733 0.4766085,1.058341 1.0583404,1.058341 H 25.298031 c 0.581732,0 1.05834,-0.476608 1.05834,-1.058341 V 5.8968388 c 0,-0.5817319 -0.476608,-1.0583404 -1.05834,-1.0583404 z m 0,0.5291702 H 25.298031 c 0.297732,0 0.52917,0.2314384 0.52917,0.5291702 V 19.654747 c 0,0.297732 -0.231438,0.529171 -0.52917,0.529171 H 6.7770723 c -0.2977318,0 -0.5291702,-0.231439 -0.5291702,-0.529171 V 5.8968388 c 0,-0.2977318 0.2314384,-0.5291702 0.5291702,-0.5291702 z m 16.3510507,0.7177905 -0.37414,0.3741398 0.789621,0.7901382 -0.789621,0.7901379 0.37414,0.3741397 0.789621,-0.7901379 0.790138,0.7901379 0.37414,-0.3741397 -0.790138,-0.7901379 0.790138,-0.7901382 -0.37414,-0.3741398 -0.790138,0.790138 z M 7.8307619,6.9567297 V 14.701011 L 9.526277,13.044254 10.35879,14.74597 c 1.78e-4,3.97e-4 8.2e-4,6.09e-4 0.001,10e-4 0.07618,0.170624 0.238504,0.266424 0.405146,0.294041 0.167034,0.02768 0.344823,-0.0023 0.505399,-0.07338 0.160567,-0.07111 0.306157,-0.184821 0.39016,-0.344167 0.08388,-0.159105 0.09402,-0.365746 -0.0041,-0.566894 l -0.816484,-1.751811 h 2.124432 z M 8.095347,7.6145751 12.343179,12.040174 H 10.42442 l 0.994261,2.131151 v 0.0016 c 0.06706,0.136977 0.05701,0.23511 0.0088,0.326597 -0.04823,0.09149 -0.146799,0.173892 -0.264069,0.225827 -0.117269,0.05194 -0.25142,0.07151 -0.355536,0.05426 -0.104115,-0.01726 -0.171001,-0.05987 -0.207224,-0.141594 l -0.001,-0.0021 -0.9968425,-2.03706 -1.5074117,1.472788 z" />
</svg>
