<svg width="160" height="94" viewBox="0 0 42.333 24.871" xmlns="http://www.w3.org/2000/svg"><path d="M0 0V24.872h42.334V0H0zm.529 1.588H41.805v20.638H.528V1.588zm.952 21.167h.741c.235 0 .424.188.424.423v.741a.422.422 0 0 1-.424.423h-.74a.422.422 0 0 1-.424-.423v-.741c0-.235.189-.423.423-.423zm2.117 0h.741c.235 0 .423.188.423.423v.741c0 .233-.186.42-.418.423h-.751a.422.422 0 0 1-.418-.423v-.741c0-.235.188-.423.423-.423zm2.117 0h.74c.235 0 .424.188.424.423v.741c0 .233-.186.42-.418.423H5.71a.422.422 0 0 1-.419-.423v-.741c0-.235.19-.423.424-.423zm2.116 0h.742c.234 0 .423.188.423.423v.741c0 .233-.186.42-.418.423h-.752a.422.422 0 0 1-.418-.423v-.741c0-.235.189-.423.423-.423zm32.016 0h.74c.235 0 .424.188.424.423v.741c0 .233-.186.42-.418.423h-.751a.422.422 0 0 1-.418-.423v-.741c0-.235.188-.423.423-.423z" fill="#f37e40"/><path style="opacity:.287;fill:#f37e40;fill-opacity:1;stroke-width:.26459" d="M.529 1.588v20.637h21.696v-1.531H6.875c-.295 0-.562-.124-.755-.32h-.035v-.043a1.05 1.05 0 0 1-.268-.695V5.877c0-.582.477-1.058 1.058-1.058h15.35V1.588z"/><path style="fill:#f37e40;fill-opacity:1;stroke-width:.26458;-inkscape-stroke:none" d="M6.777 4.838c-.582 0-1.058.477-1.058 1.059v13.758c0 .581.476 1.058 1.058 1.058h18.521c.582 0 1.058-.477 1.058-1.058V5.897c0-.582-.476-1.059-1.058-1.059zm0 .53h18.521c.298 0 .53.231.53.529v13.758c0 .297-.232.529-.53.529H6.778a.522.522 0 0 1-.53-.53V5.898c0-.298.231-.53.53-.53zm16.351.717-.374.375.79.79-.79.79.374.374.79-.79.79.79.374-.374-.79-.79.79-.79-.374-.375-.79.79zm-15.297.872V14.7l1.695-1.657.833 1.702v.001c.077.17.24.266.406.294a.9.9 0 0 0 .505-.073.794.794 0 0 0 .39-.345.622.622 0 0 0-.004-.566l-.816-1.752h2.124zm.264.658 4.248 4.425h-1.919l.995 2.131v.002c.067.137.057.235.008.327a.55.55 0 0 1-.264.225.66.66 0 0 1-.355.055c-.104-.018-.171-.06-.207-.142l-.001-.002-.997-2.037-1.508 1.473z"/></svg>