<svg width="160" height="94" viewBox="0 0 42.333 24.871" xmlns="http://www.w3.org/2000/svg"><path d="M42.334 0v24.872H0V0h39.688zm-.952 1.588h-.741a.422.422 0 0 0-.424.423v.74c0 .235.19.424.424.424h.74a.422.422 0 0 0 .424-.423V2.01a.422.422 0 0 0-.423-.423zm-1.694 0H.528v22.754h39.16zm1.694 2.116h-.741a.422.422 0 0 0-.424.423v.742c0 .234.19.423.424.423h.74a.422.422 0 0 0 .424-.423v-.742a.422.422 0 0 0-.423-.423zm0 2.117h-.741a.422.422 0 0 0-.424.423v.741c0 .235.19.424.424.424h.74a.422.422 0 0 0 .424-.424v-.74a.422.422 0 0 0-.423-.424zm0 2.117h-.741a.422.422 0 0 0-.424.423v.741c0 .235.19.423.424.423h.74a.422.422 0 0 0 .424-.423v-.741a.422.422 0 0 0-.423-.423zm0 14.023h-.741a.422.422 0 0 0-.424.423v.741c0 .235.19.424.424.424h.74a.422.422 0 0 0 .424-.424v-.74a.422.422 0 0 0-.423-.424z" fill="#f37e40" style="stroke-width:.26459"/><path d="M.529 1.588v22.754h21.696v-3.648H6.875c-.295 0-.562-.124-.755-.32h-.035v-.043a1.05 1.05 0 0 1-.268-.696V5.877c0-.581.477-1.058 1.058-1.058h15.35V1.588z" fill="#f37e40" opacity=".28"/><path d="M1447-4347.5c-2.199 0-4 1.801-4 4v52c0 2.199 1.801 4 4 4h70c2.199 0 4-1.801 4-4v-52c0-2.199-1.801-4-4-4zm0 2h70c1.125 0 2 .875 2 2v52c0 1.125-.875 2-2 2h-70c-1.125 0-2-.875-2-2v-52c0-1.125.875-2 2-2z" color="#000" fill="#f37e40" style="-inkscape-stroke:none" transform="translate(-376.07 1155.1) scale(.26458)"/><path d="M-20.31 5.517v17.93l3.93-3.836 1.93 3.94.001.002c.177.395.554.617.94.681.387.064.8-.005 1.172-.17.372-.164.71-.428.904-.797.194-.368.218-.846-.01-1.312l-1.892-4.057h4.923zm.613 1.523 9.846 10.246h-4.447l2.304 4.934v.004c.156.317.132.544.02.756s-.34.403-.611.523-.583.165-.825.125c-.241-.04-.396-.139-.48-.328l-.002-.004-2.31-4.717-3.495 3.41z" color="#000" display="block" fill="#f37e40" style="-inkscape-stroke:none" transform="matrix(.43142 0 0 .43193 16.593 4.574)"/><path d="m24.708 6.085-.79.79-.79-.79-.374.375.79.79-.79.79.374.374.79-.79.79.79.374-.374-.79-.79.79-.79z" fill="#f37e40"/></svg>