<svg width="160" height="94" viewBox="0 0 42.333 24.871" xmlns="http://www.w3.org/2000/svg"><path d="M0 0v24.872h42.334V0H2.646zm.952 1.587h.741c.235 0 .423.19.423.424v.74a.422.422 0 0 1-.423.424h-.74a.422.422 0 0 1-.424-.423V2.01c0-.235.189-.424.423-.424zm1.694 0h39.159v22.755H2.645zM.952 3.704h.741c.235 0 .423.189.423.423v.742a.422.422 0 0 1-.423.423h-.74a.422.422 0 0 1-.424-.423v-.742c0-.234.189-.423.423-.423zm0 2.117h.741c.235 0 .423.189.423.423v.741a.422.422 0 0 1-.423.423h-.74a.422.422 0 0 1-.424-.423v-.74c0-.235.189-.424.423-.424zm0 2.117h.741c.235 0 .423.188.423.423v.74a.422.422 0 0 1-.423.424h-.74a.422.422 0 0 1-.424-.423V8.36c0-.235.189-.423.423-.423zm0 14.023h.741c.235 0 .423.188.423.423v.74a.422.422 0 0 1-.423.424h-.74a.422.422 0 0 1-.424-.423v-.741c0-.235.189-.423.423-.423z" fill="#f37e40"/><path d="M2.646 1.588v3.175h1.322c.733 0 1.323.59 1.323 1.323v12.7a1.32 1.32 0 0 1-1.323 1.323H2.645v4.232h39.16V1.587zM9.26 4.763h23.813c.733 0 1.323.59 1.323 1.323v12.7a1.32 1.32 0 0 1-1.323 1.323H9.26a1.32 1.32 0 0 1-1.323-1.323v-12.7c0-.733.59-1.323 1.323-1.323zm29.104 0h3.44v15.346h-3.44a1.32 1.32 0 0 1-1.323-1.323v-12.7c0-.733.59-1.323 1.323-1.323z" fill="#f37e40" opacity=".287"/></svg>