<svg width="160" height="94" viewBox="0 0 42.333 24.871" xmlns="http://www.w3.org/2000/svg"><path d="M42.334 0v24.872H0V0h39.688zm-.952 1.587h-.741a.422.422 0 0 0-.424.424v.74c0 .235.189.424.424.424h.74a.422.422 0 0 0 .424-.423V2.01a.422.422 0 0 0-.423-.424zm-1.694 0H.53v22.755h39.16zm1.694 2.117h-.741a.422.422 0 0 0-.424.423v.742c0 .234.189.423.424.423h.74a.422.422 0 0 0 .424-.423v-.742a.422.422 0 0 0-.423-.423zm0 2.117h-.741a.422.422 0 0 0-.424.423v.741c0 .235.189.423.424.423h.74a.422.422 0 0 0 .424-.423v-.74a.422.422 0 0 0-.423-.424zm0 2.117h-.741a.422.422 0 0 0-.424.423v.74c0 .235.189.424.424.424h.74a.422.422 0 0 0 .424-.423V8.36a.422.422 0 0 0-.423-.423zm0 14.023h-.741a.422.422 0 0 0-.424.423v.74c0 .235.189.424.424.424h.74a.422.422 0 0 0 .424-.423v-.741a.422.422 0 0 0-.423-.423z" fill="#f37e40"/><path d="M39.688 1.588v3.175h-1.323a1.32 1.32 0 0 0-1.323 1.323v12.7c0 .733.59 1.323 1.323 1.323h1.323v4.232H.529V1.587zm-6.615 3.175H9.26a1.32 1.32 0 0 0-1.322 1.323v12.7c0 .733.59 1.323 1.322 1.323h23.813a1.32 1.32 0 0 0 1.323-1.323v-12.7a1.32 1.32 0 0 0-1.323-1.323zm-29.104 0H.53v15.346h3.44a1.32 1.32 0 0 0 1.323-1.323v-12.7A1.32 1.32 0 0 0 3.97 4.763z" fill="#f37e40" opacity=".287"/></svg>